<?xml version="1.0" encoding="UTF-8"?>
<svg id="Layer_1" data-name="Layer 1" xmlns="http://www.w3.org/2000/svg" viewBox="0 0 109.48 95.5">
  <defs>
    <style>
      .cls-1 {
        fill: #f6b21a;
      }
    </style>
  </defs>
  <path class="cls-1" d="M107.91,38.52c-2.35-.84-4.31-2.37-6.54-3.44-2.46-1.18-4.98-2.07-7.61-2.69-1.37-.32-2.69-.82-4.14-.86-.88-.02-1.41-.86-1.34-1.77,.03-.36-.01-.74,.1-1.06,1.42-3.98,2.76-8,4.55-11.84,1.05-2.24,2.12-4.48,3.08-6.76,.54-1.29,.87-2.66,1.27-3.9-.19-.62-.23-1.13-.49-1.49-.26-.35-.8-.81-1.1-.73-.86,.21-1.9,.31-2.18,1.46-.58,2.39-2.1,4.21-3.74,5.91-2.64,2.73-5.44,5.3-8.5,7.57-.77,.57-1.5,.57-2.3,.09-1.93-1.16-4.04-1.88-6.15-2.63-1.88-.67-3.87-1.28-5.48-2.4-3.78-2.63-7.88-4.73-11.71-7.27-.22-.15-.65-.13-.92-.02-1.87,.74-1.92,.93-1.18,2.82,.47,1.2,.85,2.43,1.26,3.65,.71,2.11,1.01,4.38,2.19,6.31,1.24,2.01,2.17,4.16,3.13,6.3,.68,1.51,1.39,2.99,2.6,4.2,.66,.65,1.09,1.54,1.6,2.32,.9,1.37,1.55,2.74-.09,4.06-.09,.07-.17,.18-.2,.29-.68,2.64-2.28,4.9-3.09,7.49-.24,.78-.52,1.56-.86,2.31-1.05,2.37-2.14,4.72-3.2,7.1-.19,.42-.23,.9-.39,1.34-.81,2.32-.67,4.92-2.17,7.03-.51,2.46-1.68,4.64-2.83,6.84-.47,.89-.03,2.06,.8,2.44,.9,.41,2.02,.2,2.55-.46,2.06-2.59,4.12-5.17,6.19-7.74,.22-.27,.49-.58,.8-.69,1.17-.45,1.86-1.46,2.74-2.23,2.5-2.18,5.01-4.36,7.52-6.54,.18-.15,.38-.29,.59-.4,.79-.44,2.08-.21,2.58,.53,1.26,1.86,2.51,3.73,3.28,5.85,1.46,4,3.29,7.83,5.64,11.38,1.11,1.67,1.7,3.6,2.88,5.22,.57,.78,2.24,.83,2.75,.04,.51-.8,.92-1.59,.88-2.64-.06-1.89,.09-3.79,.16-5.69,.77-1.17,.6-2.52,.64-3.81,.06-2.5,.1-5,.09-7.5-.01-1.88,.07-3.76-.59-5.61-.43-1.19-.07-1.69,1.06-2.23,1.39-.67,2.86-1.18,4.17-1.96,2.16-1.29,4.64-1.68,6.92-2.63,1.51,.08,2.67-.84,3.98-1.35,.8-.31,1.05-.92,1.41-1.5,.7-1.13,.5-2.31-.61-2.71h0Zm-21.38,19.59c-.13-.76-.26-1.52-.4-2.27,.11,.02,.22,.02,.33,.01,.03,.75,.05,1.51,.07,2.26h0Zm-1.23-29.49c0-.19,.01-.38,0-.58,.11-.23,.23-.46,.35-.68-.11,.42-.22,.84-.35,1.26Z"/>
  <path class="cls-1" d="M47.56,51.88c-.47,0-1.01-.09-1.41,.09-1.46,.67-3,.56-4.53,.65-.46,.03-.95,.08-1.37,.25-2.51,1.01-5.28,1.14-7.75,2.32-.6,.29-1.16-.29-.96-1,1.05-3.73,1.46-7.59,2.28-11.36,.3-1.39,.78-2.72,.65-3.77,0-1.11,.04-1.82,.02-2.54-.03-1.07-.53-1.71-1.59-2.07-1.14-.39-1.14-.49-1.8,.35-.58,.74-1,1.61-1.63,2.29-2.83,3.03-5.62,6.12-8.6,9-4.08,3.93-3.93,3.64-9.05,.94-.31-.16-.54-.47-.84-.66-2.39-1.51-4.77-3.03-7.19-4.51-1.2-.73-1.81-.58-2.81,.42-.73,.72-1.2,1.57-.88,2.55,.21,.63,.65,1.36,1.2,1.67,2.19,1.23,3.33,3.27,4.55,5.3,1.7,2.83,3.48,5.6,5.17,8.43,.52,.87,.47,1.89-.1,2.7-1.28,1.84-2.68,3.59-4.01,5.4-.7,.95-1.44,1.88-2.01,2.9-2.04,3.61-2.74,7.75-4.5,11.47-.05,.1,0,.24-.03,.35-.09,.58,.38,1.44,.96,1.79,.49,.29,.9,.07,1.31-.18,.4-.24,.99-.39,1.17-.74,.89-1.72,2.59-2.4,4.12-3.18,3.26-1.67,6.44-3.48,9.55-5.4,1.5-.93,3.05-1.78,4.59-2.66,.59-.33,1.27-.21,1.54,.33,.41,.84,1.01,1.7,1.05,2.58,.13,2.69,1.2,5.03,2.35,7.35,1.51,3.07,3.46,5.9,4.79,9.08,.4,.96,1.09,1.81,1.68,2.69,.36,.54,1.41,.95,1.89,.73,1.01-.46,1.81-1.2,2-2.3,.16-.93,.36-2.04,0-2.82-.7-1.51-.37-3.04-.58-4.55-.17-1.28-.47-2.54-.56-3.82-.1-1.42,0-2.86-.03-4.28,0-.46-.13-.93-.28-1.37-.64-1.88-.81-3.91-1.71-5.73-.17-.34-.04-1.01,.21-1.32,1.32-1.67,2.65-3.34,4.11-4.89,1.72-1.81,3.55-3.52,5.37-5.23,1.2-1.13,2.23-2.48,3.79-3.2,.71-.33,.89-1.08,1.17-1.73,.43-.9-.38-2.31-1.3-2.32h0Z"/>
</svg>