<?xml version="1.0" encoding="utf-8"?>
<!-- Generator: Adobe Illustrator 26.5.0, SVG Export Plug-In . SVG Version: 6.00 Build 0)  -->
<svg version="1.1" id="Layer_1" xmlns="http://www.w3.org/2000/svg" xmlns:xlink="http://www.w3.org/1999/xlink" x="0px" y="0px"
	 viewBox="0 0 312.8 409.6" style="enable-background:new 0 0 312.8 409.6;" xml:space="preserve">
<style type="text/css">
	.st0{fill:#873A96;}
	.st1{fill:#EA7BB1;}
	.st2{fill:#4193C7;}
	.st3{fill:#F47D51;}
	.st4{fill:#EAE1C8;}
	.st5{fill:#D44241;}
	.st6{fill:#F6B21A;}
</style>
<g>
	<path class="st0" d="M274.2-92c0,0.1,0,0.1,0,0.2C274.2-91.9,274.2-92,274.2-92z"/>
</g>
<g>
	<path class="st0" d="M276.5-74.9l0.1,0.4c-0.1-0.2-0.2-0.4-0.3-0.7C276.5-75.1,276.5-75,276.5-74.9z"/>
</g>
<g>
	<path class="st0" d="M278.3-66.6C278.3-66.6,278.4-66.6,278.3-66.6C278.4-66.6,278.3-66.6,278.3-66.6z"/>
</g>
<g>
	<path class="st0" d="M273.4-78.2c0-0.1,0-0.2-0.1-0.3C273.3-78.3,273.4-78.2,273.4-78.2z"/>
</g>
<g>
	<path class="st0" d="M275.5-72.1L275.5-72.1L275.5-72.1z"/>
</g>
<g>
	<path class="st0" d="M284.1-6.3c0.7,0.2-1.1-0.2-0.1,0C283.9-6.3,284.9-6.1,284.1-6.3z"/>
</g>
<path class="st1" d="M304.7,396.3c0.1-0.4,0-0.9,0-1.3c0-5.3,0.1-10.7,0.1-16c0-0.6,0.2-1.4-0.1-1.9c-0.4-0.8,0.3-1.4,0-2
	c-0.6-1.2-0.4-2.5-0.4-3.7c0-6,0.1-12.1,0.1-18.2c0-0.5,0.1-1.2-0.1-1.6c-0.5-1-0.3-1.9-0.3-2.9c0-4.2,0-8.5,0-12.7
	c0-0.6,0.1-1.3-0.1-1.9c-0.3-0.7-0.3-1.4-0.3-2.1c0-5,0.1-9.9,0-14.9c0-1.7,0.2-3.4-0.2-5c0.1-0.8,0.1-1.7,0.1-2.5
	c0-0.1,0-0.3,0-0.4c0-1-0.1-1.9-0.1-2.9v-8c0-1.1,0-2.2,0-3.3c0.1-0.2,0.1-0.3,0.1-0.6l-0.1-4.5c0-0.1,0-0.2-0.1-0.3
	c0-0.7,0-1.5,0-2.2c0-0.5,0-1,0-1.5c0-0.1-0.1-0.2-0.1-0.3v-3.9l0,0c0-0.3,0-0.6,0-0.9l-0.1-14.8l0,0l-1.5-255.8L14.1,8.1
	l-3.2,203.1c-0.2,0.5-0.3,0.9-0.4,1.4c-0.1,0.4-0.3,0.6-0.6,0.7l-0.1,0.1c0.1,1.2,0.3,2.4,0.4,3.6l0,0c0.1,0.1,0.2,0.3,0.2,0.5
	c0,0.5,0,1.1,0,1.6c0,0.6,0,1.2,0,1.8c0.1,2.5,0.1,5,0.1,7.5c0,0.3-0.1,0.5-0.2,0.7c-0.1,10-0.2,20-0.3,30.1c0,0.3,0,0.5,0,0.8
	c0.1,0.1,0.1,0.3,0.2,0.4l-0.1,6.9c0,0.3-0.1,0.7-0.1,1c0,0.7,0,1.3,0,2c0,1.3,0,2.5,0,3.8c0,1.2,0,2.4,0,3.5c0,1.3,0,2.5,0,3.8
	c0,1.2,0,2.4-0.1,3.5c0,1.3,0,2.5,0,3.8c0,1.2,0,2.3,0,3.5c0,1.3,0,2.5,0,3.8c0,0.1,0,0.2,0,0.4L9.4,304c-0.1,4.7-0.2,10.2-0.2,12.5
	c0,0.2,0,0.5,0,0.8v0.8c-0.1,0.3-0.3,0.6-0.4,0.9c0,0.4,0,0.8,0,1.2c0,0.5,0.2,1,0.4,1.5v0.6c-0.1,0.4-0.4,0.8-0.3,1.2
	C9,323.7,9,323.9,9,324c0.1,0.1,0.1,0.2,0.2,0.3v0.8c-0.1,0.1-0.1,0.3-0.2,0.4c0.3,0.9-0.5,2,0.1,2.9v1.9c0,0.1,0,0.2-0.1,0.3
	c-0.3,1.1-0.4,2.2,0,3.4v2c-0.4,1.5-0.4,2.9-0.1,4.4c0.1,0.4-0.2,0.8-0.1,1.3c0,0.2,0.1,0.4,0.1,0.6l-0.4,23.1H8.4
	c-0.1,7.6-0.2,15.2-0.3,22.7L7.8,399H8c0,1,0.4,1.8,1.1,2.4c0.5,0.4,0.9-0.2,1.5-0.2c1.1,0,2.2,0,3.2,0c0.5,0,1.1,0.1,1.6-0.2
	c0.9-0.4,1.8-0.3,2.7-0.3c3.4,0,6.9,0.1,10.3,0.1c6.7,0.1,13.4,0.1,20.1,0.2c0.7,0,1.5,0.1,2.1-0.1c0.7-0.3,1.4-0.3,2.1-0.3
	c1.1,0,2.2,0,3.2,0s2,0,3,0c1.1,0,2.2,0,3.2,0s2,0,3,0c1.1,0,2.2,0,3.2,0s2.2,0,3.2,0s2,0,3,0c1-0.7,2.1,0.1,3.1,0
	c0.4,0,0.7,0,1.1-0.1c0.8-0.2,1.5-0.2,2.3-0.3c0.9-0.1,1.8,0,2.7,0c10.8,0.1,21.7,0.2,32.5,0.3c0.9,0,1.8-0.1,2.6-0.3
	c1.3-0.3,2.7-0.3,4,0.1c0.2,0.1,0.6,0.3,0.8,0.2c1.8-0.8,3.8-0.3,5.6-0.3c9.1,0,18.3,0.1,27.4,0.2c0.6,0,1.3,0.1,1.9-0.2
	c0.8-0.3,1.4,0.5,2.1,0.1c0.8-0.5,1.6-0.4,2.4-0.3c7.5,0.1,15,0.1,22.5,0.2c2.7,0,5.4,0.1,8.1,0.1c0.9,0,1.7-0.2,2.6-0.1
	c0.9,0.1,1.8,0.1,2.7,0s1.9,0.1,2.9,0.2c0.2,0,0.4,0,0.5,0c0.4-0.1,0.7-0.2,1.1-0.3h3.4c0.4,0.1,0.7,0.2,1.1,0.3
	c0.2,0,0.4,0.1,0.5,0c0.2-0.1,0.4-0.2,0.6-0.3l34.1,0.2l0,0c0,0,0.1,0,0.2,0c0.5,0,1.1,0.1,1.6,0c1.9-0.7,3.9-0.3,5.9-0.3
	c12.3,0.1,24.6,0.3,36.9,0.3c4.9,0,9.9,0.5,14.8-0.3c0.8-0.1,1.4-0.3,1.7-1.1l0,0l0,0c0.2-0.4,0.5-0.8,0.7-1.1
	C305.2,397.3,304.6,396.9,304.7,396.3z"/>
<g>
	<path class="st0" d="M141.8,367c-0.1,0-0.1,0.1-0.2,0.1s-0.1-0.1-0.2-0.2c0.1,0,0.1-0.2,0.2-0.1S141.7,367,141.8,367z"/>
</g>
<g>
	<polygon class="st2" points="22.6,19.8 293.2,21.9 295.3,387.4 16.8,387.4 	"/>
</g>
<g>
	<path class="st3" d="M19.1,308.9L21,208.7c0,0,25.8-62.4,28.9-70c0,0,12.9-39.2,35.5-61.6c0,0,21.8-46.1,42-48.9
		c0,0,11.6-14.4,56.9,64l24.7,33.6l16.1,28.6l13.6,26.8l18.5,24.7c0,0,10.3,15.4,15.3,26.3s22.2,30.1,22.2,30.1l0.7,125H16.8
		L19.1,308.9z"/>
</g>
<path class="st4" d="M293.6,282l-27-37.4c-12.6-12.6-22.2-3.2-22.2-3.2c-9.2,1.9-20.8,29.6-20.8,29.6c-4.8,3.6-25.5,50-25.5,50
	l37.8,65.8l59.5,0.5L293.6,282z"/>
<g>
	<path class="st5" d="M18.9,308.9l-2.3,78.5l221.3,1.3l-6.5-5.5l-53.6-98L130.7,198c0,0-21.9-42.9-53.9,2c0,0-27.8,28.8-33.1,52.8
		L18.9,308.9z"/>
</g>
<g>
	<path class="st6" d="M62.8,83.9c-1.3,0.5-2.6,1-3.9,1.6c-1.7,0.4-3.4,0.2-5.1,0.6c0.2-1.3,0.4-2.6,0.5-3.9c0.4-3.3,0.8-6.6,0.2-10
		c-0.1-0.5-0.8-0.9-1.2-0.7c-0.8,0.3-1.3,0.8-1.9,1.5c-0.7,0.9-1.4,1.9-2.1,2.8l-0.6,0.8c-0.5,0.5-0.9,1.1-1.2,1.7
		c-0.8,1.1-1.6,2.1-2.4,3.2C45,81.6,45,81.6,45,81.7c-0.2,0-0.3,0.1-0.5,0.1c-0.3,0.1-0.6,0.1-0.9,0.2c-1.4-0.3-2.8-0.9-3.8-1.4
		c-1.8-0.9-3.5-2.8-5.7-2.2c-0.2-0.1-0.4-0.2-0.6-0.3c-1.2-0.5-2.2,1.2-1,1.8c2.3,1,4,2.8,5.7,4.6c-0.1,0.2-0.1,0.5,0.1,0.8
		c0.9,1.9,2,3.7,3.3,5.3c-0.5,0.7-0.9,1.4-1.2,2.2c-0.1,0.1-0.2,0.2-0.3,0.3c-1.4,1.9-2.3,4.2-3,6.5c-0.6,1-1.1,2-1.6,3.1
		c-0.3,0.6-0.6,1.3-0.8,1.9c-0.1,0.1-0.1,0.4-0.2,0.6c-0.5,0.5-0.9,1.1-1.3,1.7c-0.5,0.8,0.3,1.6,1.1,1.5c1.1-0.2,1.6-1.1,1.9-2.1
		c0.1-0.1,0.3-0.3,0.4-0.4c0.4,0.3,0.9,0.4,1.4,0c0.7-0.7,1.4-1.4,2.1-2c0.4,0.2,0.8,0.1,1.1-0.1c2-1.8,4-3.7,5.9-5.7
		c0.1,1.4,0.6,2.8,1.1,4c0.1,0.2,0.1,0.4,0.2,0.6c0.3,0.8,0.5,1.5,0.7,2.3c0.4,1.7,0.7,3.3,0.8,5c0.1,1.1,1.4,1.3,1.9,0.5
		c0.5,0,0.9-0.4,0.9-1c0-0.3,0-0.7,0-1c0-1.6,0.3-3.3,0.5-4.9c0.3-2,0.6-4,0.9-6c0.1-0.5-0.1-0.9-0.4-1.1c0.1-0.3,0.2-0.6,0.4-0.9
		l0,0c0.1,0,0.3-0.1,0.4-0.3c1.5-1.8,3.1-3.5,4.8-5.1c1.6-1.6,3.4-2.9,4.7-4.8C64.5,84.6,63.6,83.6,62.8,83.9z M51.4,95.9L51.4,95.9
		L51.4,95.9c0,0,0-0.2-0.1-0.3c0-0.1,0-0.1,0-0.2l0,0C51.4,95.5,51.4,95.7,51.4,95.9z"/>
</g>
<g>
	<path class="st6" d="M74.4,38c-0.6,0.2-1.2,0.5-1.8,0.9c-0.3-0.4-0.8-0.7-1.4-0.4c-2.2,1.3-4.5,2.3-6.9,3.2
		c-0.3-0.3-0.8-0.4-1.2-0.1c0,0,0,0-0.1,0l0.2-6.7c0-0.3-0.1-0.6-0.4-0.8l0.5-1.6c0.1-0.2,0.1-0.4,0-0.6c0.1-0.2,0.2-0.3,0.3-0.5
		c0.6-1.1-1.1-2.2-1.8-1c-0.1,0.1-0.1,0.2-0.1,0.3c-0.3,0-0.5,0.1-0.7,0.3c-0.4,0-0.8,0.4-0.8,1c0,0.1,0,0.3,0,0.4
		c-0.3,0.5-0.6,1-0.9,1.5c-0.8,1.3-1.6,2.5-2.6,3.7c-1.3-0.1-2.5-0.1-3.8,0c-0.5-0.3-1-0.6-1.6-0.9c-0.9-0.4-2.7-0.7-3.8-0.2
		c-0.2-0.1-0.4-0.3-0.6-0.4c-0.2-0.6-1.1-0.9-1.7-0.4c-0.1,0.1-0.1,0.1-0.2,0.2c-0.5,0.4-0.3,1.3,0.2,1.6s1,0.6,1.5,0.9
		c0.2,1,1.2,1.5,2.3,1.9c0.6,1.4,1.6,2.3,3,3.1c0.3,0.2,0.6,0.4,1,0.5l1.1,1c-0.1,0-0.2,0.1-0.4,0.2c-1.6,1.5-3.2,3.1-4.6,4.9
		c-0.4,0.4-0.8,0.9-1.1,1.4c0,0,0,0.1,0,0.3c-0.2,0.2-0.5,0.5-0.7,0.7c-0.8,0.8-1.5,1.6-2.1,2.5c-0.2,0.2-0.3,0.5-0.5,0.7
		c-0.6,0.7-1.2,1.3-1.8,2.1c-0.7,0.8,0.2,2.3,1.2,1.6c0.9-0.6,1.6-1.5,2.2-2.4c0.1-0.1,0.3-0.3,0.4-0.5c0.1,0,0.2,0.1,0.3,0.1
		c1.2,0.2,2.1-0.4,3.1-1c0.7-0.4,1.4-0.8,2.1-1.2c0.2,0,0.4-0.1,0.6-0.1c0.4-0.1,0.6-0.3,0.7-0.6c1.3-0.8,2.7-1.7,4-2.6
		c0.4,0.3,0.9,0.6,1.3,0.9c0.2,0.3,0.4,0.6,0.6,0.8l1.8,2.1c1.6,2.7,3.4,5.2,5.5,7.6c0.5,0.6,1.8,0.2,1.7-0.7
		c-0.1-0.7-0.2-1.4-0.4-2.1c0,0,0,0,0-0.1c-0.3-2.3-0.5-4.6-0.6-6.9c0-0.4,0-0.9,0-1.3c0-0.5,0-1.1-0.1-1.6c0-1,0-2,0-3
		c2.7-2.4,5.4-4.7,8.2-6.9C76.2,39,75.3,37.6,74.4,38z"/>
</g>
<g>
	<path class="st1" d="M256.2,338.5c1.6-9.5,6.6-18.1,8.3-27.6c0.2-1-1.4-1.9-1.9-0.8c-0.4,1-0.9,2-1.3,3c-0.4,0-0.9,0.2-1,0.7
		c-0.2,0.5-0.4,1.1-0.6,1.7c-0.3,0.2-0.6,0.5-0.9,0.7c-0.1-0.4-0.2-0.8-0.4-1.2c-0.1-0.4-0.5-0.7-0.8-0.7c0-0.7-0.1-1.3-0.1-2
		c0-0.3-0.2-0.6-0.4-0.7c0-0.3,0-0.6,0.1-0.9c0.4-0.1,0.6-0.4,0.6-0.9c-0.1-0.7-0.2-1.3-0.4-2c-0.4-1.1-1.9-0.9-2,0.3
		c-0.1,1.2-0.1,2.3-0.2,3.5c0,0.1-0.1,0.3-0.1,0.4s0,0.1,0,0.2c-0.3,3.8-0.8,7.6-1.3,11.3c-0.1,0.5,0.1,0.8,0.4,1
		c-0.1,0.6-0.2,1.2-0.3,1.8c-0.1,0.1-0.2,0.2-0.3,0.3c0,0.1-0.1,0.2-0.1,0.2l0,0l0,0c-0.2,0.6-0.5,1.2-0.6,1.9c0,0.1,0,0.1,0,0.2
		c-0.1,0.4-0.2,0.8-0.4,1.3c-0.3,1-0.5,1.7-0.1,2.7c0,0.1,0.1,0.2,0.2,0.3c-0.6,1.4-1.1,2.8-1.5,4.2c-0.8-0.2-1.6-0.3-2.4-0.1
		c-0.1,0-0.3,0-0.4,0.1c0-0.2,0.1-0.5,0.1-0.7c0.2-1.3-1.7-1.8-2-0.5c-0.8,4.2-1.7,8.4-2.3,12.6c-0.2,0.2-0.3,0.4-0.3,0.7
		c0,1-0.1,2-0.2,3.1c-0.2,1.7-0.4,3.4-0.5,5.2c0,0.1,0,0.2,0,0.3c-0.1,0.6-0.1,1.2-0.2,1.7c-0.1,0.1-0.2,0.2-0.2,0.4
		c-0.4,1.5-0.5,3-0.4,4.5c0.1,1.1,1.6,1.4,2,0.3c0.1-0.4,0.3-0.9,0.5-1.3c0.4,0.1,0.8,0,1-0.5c1.7-2.9,4.5-4.7,7-7
		c1.1-1.1,2.2-2.2,3-3.6c0.1-0.1,0.1-0.2,0.2-0.4c1.5-1.4,2.8-2.9,4.1-4.5c0.9-0.9,1.7-1.9,2.5-2.8c0.6-0.7,0.1-2-1-1.7
		c-1.3,0.4-2.5,1-3.7,1.6c-0.3-0.2-0.7-0.3-1.1-0.1c-0.4,0.3-0.9,0.5-1.3,0.7c0.1-2.1,0.2-4.2,0.5-6.3
		C256,338.9,256.1,338.8,256.2,338.5z M251.7,344.1c0-0.1-0.1-0.2-0.1-0.4c0.1,0,0.1-0.1,0.2-0.1C251.7,343.8,251.7,344,251.7,344.1
		z"/>
</g>
<g>
	<path class="st1" d="M122.1,91.2c-0.3-0.1-0.6-0.2-1,0c-3,1.4-5.9,2.9-8.7,4.6c-0.2,0-0.5-0.1-0.7-0.1c-0.3,0-0.6-0.1-0.9-0.1
		c0-0.1,0-0.2-0.1-0.4c1.2-4.4,2.4-8.9,3.6-13.3c0.1-0.2,0.1-0.4,0-0.6c0.8-1.7,1.6-3.4,2.4-5.1c0.5-1-0.8-2.2-1.6-1.2
		c-0.6,0.7-1.2,1.4-1.8,2.1c-0.2,0-0.4,0.1-0.6,0.4c-0.6,0.8-1.2,1.6-1.8,2.5c-0.6,0.8-1.3,1.5-1.9,2.3c-0.2,0.2-0.3,0.5-0.2,0.8
		c-1.2,3.3-2.5,6.6-3.7,9.8V93c-0.3,0.5-0.5,1.1-0.8,1.7c-0.6,0.7-1.3,1.4-2,2.1c-0.1,0-0.1,0.1-0.1,0.1c-0.2-0.1-0.4-0.3-0.5-0.6
		c-0.3-1.4-0.6-2.7-1.1-4.1c-0.1-1-0.3-2-0.5-3.1c-0.1-0.9-1.6-1-1.9-0.2c-0.4,0.1-0.7,0.4-0.7,0.9c0,0.6,0,1.2-0.1,1.9
		C97.2,91.8,97,92,97,92.3c-0.2,1.7-0.6,3.4-1,5.1c-0.5,1.2-1.1,2.4-1.6,3.5c-0.4,0.6-0.7,1.3-1,1.9c-2.3,3.4-4.4,6.9-6.4,10.5
		c-0.2,0.4-0.2,0.7,0,1c-0.3,0.5-0.7,1-1,1.5c-2,2.8-3.9,5.6-5,9c-1,1.2-2,2.4-3.1,3.5c-0.9,0.9,0.5,2.4,1.4,1.4
		c0.5-0.5,0.9-1,1.4-1.5c0.2,0,0.4,0,0.6-0.1c0.5-0.2,1-0.5,1.4-0.8c0.2,0.5,0.8,0.8,1.4,0.5c1.7-0.8,3.4-1.5,5.1-2
		c0.5-0.1,0.7-0.5,0.7-0.9c1.9-0.4,3.8-1,5.7-1.6c1.1-0.4,3.1-0.8,4.1-1.8c2.6-0.8,5-1.9,7.1-3.7c0.6-0.5,0.1-1.8-0.7-1.7
		c-1.9,0.2-3.7,0.3-5.6,0.3c-0.3,0-0.6,0.1-0.7,0.4l0,0c0.1-0.2,0.1-0.4,0-0.6c-0.1-0.5-0.2-1-0.3-1.5c-0.1-0.5-0.6-0.8-1.1-0.7
		c1.1-1.4,2.6-2.6,4.1-3.5c0.6-0.3,0.6-0.9,0.4-1.3c2.5-2,4.8-4.1,7.2-6.2c2.6-1.9,5.3-3.8,7.9-5.8c0.4-0.3,0.5-0.8,0.4-1.2
		c1.4-1.1,2.9-2.2,4.3-3.3C123.9,92.3,123,90.9,122.1,91.2z"/>
</g>
<path class="st3" d="M216.8,141.1c0.8,1.7,1.4,3.4,2.8,4.8c0.4,1.4,1.7,2.3,1.9,3.8c0,0.3,0.3,0.6,0.4,0.9c0.1,0.2,0.2,0.3,0.3,0.4
	c0.8-0.6,1.6-1.2,2.5-1.8c-0.4-0.2-0.6-0.5-0.8-1c-1-2.2-2.4-4.2-3.8-6.2c-0.9-1.2-1.5-2.6-2.2-3.9c-0.4-0.7-0.8-1.4-1.2-2.1
	c-1.1-0.1-2.2,0-3.3,0C214.7,137.6,216,139.2,216.8,141.1z"/>
<path class="st3" d="M233.1,172.5c0.4,0.7,0.7,1.5,1.1,2.3c0.3,0.6,0.6,1.3,1,1.9c0.1-1.4,0.3-2.8,0.4-4.1c0-0.2,0.1-0.4,0.2-0.6
	c-1-1.8-2.1-3.6-3.1-5.4c-0.8,0.2-1.6,0.5-2.4,0.9c0,0,0,0.1,0.1,0.1C231.1,169.4,232.1,170.9,233.1,172.5z"/>
<path class="st5" d="M193.4,312.2c-0.8-1.6-1.5-3-2.6-4.5c-1.6-2.3-2.5-4.9-4-7.2c-1.6-2.6-3-5.3-4.9-7.7c-0.1-0.1-0.2-0.3-0.3-0.4
	c-1.1-2.5-2.7-4.7-3.6-7.2c-0.6-1.6-1.6-3-2.4-4.5c-0.2-0.4-0.5-0.9-0.7-1.3c-1.2-3-2.9-5.7-4.4-8.5c-1-1.8-1.9-3.5-2.5-5.5
	c-0.3-1.1-0.9-2.2-1.5-3.2c-1.7-2.8-3.1-5.8-4.7-8.7c-1.3-2.4-2.6-4.7-3.9-7.1c-1-1.7-1.8-3.4-2.5-5.2c-0.6-1.5-1.3-2.9-2.1-4.3
	c-1.5-2.5-2.7-5.2-4.1-7.9c-1-1.9-1.9-3.8-3-5.6c-1-1.6-1.7-3.3-2.3-5.1c-0.6-1.9-1.4-3.6-2.5-5.2c-0.6-1-1-2.1-1.4-3.2
	c-1.2-4-1.5-4.5-3.8-8.2c-0.3-0.4-0.5-0.9-0.6-1.4c-0.6-1.5-1.4-2.9-2.5-4.1c-1.2-1.2-2.3-2.5-3.3-3.9c-1.3-1.8-2.8-3.4-4.6-4.7
	c-0.4-0.3-0.8-0.7-1-1.1c-0.8-1.5-2.1-2.4-3.5-3.2c-1.2-0.7-2.3-1.4-3.4-2.2c-0.9-0.6-1.7-1.1-2.8-1.1c-0.5,0-1-0.2-1.4-0.5
	c-0.9-0.7-1.9-1.1-3-1.1c-0.4,0-0.8-0.3-1.2-0.4c-0.7-0.2-1.5-0.6-2.2-0.5c-0.7,0.2-1.5,0.2-2.2,0.5c-0.5,0.2-0.9,0.3-1.5,0.4
	c-2.4,0.2-4.6,0.8-6.8,1.9c-2.1,1.1-4.2,2.1-6.1,3.5c-1.5,1-2.9,2-4.2,3.2c-1,1-2,2.1-3.3,2.8c-0.2,0.1-0.4,0.3-0.6,0.5
	c-1.9,2.4-4,4.6-6,6.9c-1.1,1.3-1.9,2.8-3,4.1c-0.7,0.9-1.4,1.7-2.2,2.5c-1.4,1.5-2.6,3.1-3.8,4.7c-0.2,0.3-0.4,0.6-0.5,0.9
	c-1.4,2.7-3.2,5.2-5,7.6c-0.1,0.2-0.4,0.4-0.5,0.6c-1.4,2.7-3.7,4.8-5,7.6c-1.5,1.5-2.3,3.5-3.6,5.2c-0.4,0.5-0.7,1-0.9,1.5
	c-1.5,3.1-3.3,6.1-5.1,9c-0.7,1.2-1.2,2.6-1.7,3.9c-0.6,1.3-1,2.7-1.6,4c-1.1,2.3-2,4.6-2.8,7c-0.5,1.7-1.3,3.3-2,4.9
	c-0.6,1.3-1.1,2.6-1.5,4c-0.2,0.7-0.4,1.4-0.7,2.1c-0.3,0.9-0.7,1.7-0.9,2.6c-0.5,2.1-1.2,4.2-2.3,6.1c-2.1,3.8-3.6,8-5.8,11.8
	c-1,1.8-1.5,3.7-2.3,5.6c-0.7,1.7-1.6,3.3-2.2,5.1c-0.4,1.3-1,2.6-1.5,3.9c-0.2,1.6-0.9,3.2-1.4,4.6v-0.1c0-0.5-1.3,1.7-2,3.3
	c0,0.5,0,0.9,0,1.4c-0.1,0.3-0.3,0.6-0.4,0.9c0,0.4,0,0.8,0,1.1c0,0.5,0.2,1,0.3,1.5c0.2,0.7-0.5,1.1-0.3,1.7c0,0.2,0,0.3,0.1,0.5
	c0.3,0.5,0.2,1-0.1,1.4c0.3,0.9-0.5,2,0.3,2.9c-0.1,0.7-0.1,1.4-0.2,2c-0.3,1.1-0.4,2.1,0,3.2c0.2,0.5,0.2,1,0.1,1.5
	c-0.5,1.5-0.5,3-0.2,4.5c0.1,0.4-0.2,0.8-0.1,1.2c0,0.4,0.3,0.8,0.3,1.2c0,0.6-0.2,1.1-0.1,1.7c0,0.1,0.1,0.3,0.1,0.4
	c0.7,0,1.4,0.1,2.1,0.2c0.1-7.7,0.2-15.3,0.2-23c0-0.8,0-1.7,0-2.5c0-0.7,0.2-1.3,0.5-1.9c0.9-2.1,1.8-4.2,2.6-6.3
	c0.9-2.1,1.7-4.2,2.6-6.3c0.8-1.9,1.4-3.8,2.2-5.6c0.7-1.7,1.6-3.3,2.4-5c0.9-1.7,1.6-3.5,2.3-5.3c0.6-1.7,1.6-3.3,2.6-4.9
	c0.5-0.8,0.9-1.6,1.1-2.5c0.2-1.4,0.7-2.8,1.1-4.1c0.1-0.2,0.1-0.5,0.3-0.7c1.3-2.3,1.9-4.9,2.9-7.2c0-0.1,0-0.2,0.1-0.2
	c1.2-2.3,2-4.8,2.7-7.3c0.1-0.4,0.3-0.8,0.5-1.1c1.1-2,2-4.1,2.6-6.3c0.4-1.3,1.1-2.5,1.7-3.6c1.4-2.8,2.8-5.6,4.3-8.3
	c0.6-1.2,1.3-2.4,2.1-3.4c1.3-1.6,2.4-3.3,3.3-5.1c0.5-0.9,1-1.7,1.7-2.5s1.3-1.8,1.9-2.7c0.8-1.3,1.6-2.5,2.6-3.7
	c0.9-1.2,1.8-2.5,2.6-3.8c1.9-3.1,4-6.1,6.5-8.7c1.4-1.4,2.6-3.1,3.8-4.8c1.1-1.6,2.4-3,3.6-4.5c1.9-2.3,4.1-4.3,6.1-6.4
	c1.3-1.3,2.7-2.3,4.3-3.1c1.3-0.8,2.6-1.6,3.9-2.3c1.6-0.9,3.3-1.7,5.2-1.9c0.9-0.1,1.9-0.2,2.7-0.5c1.5-0.6,3-0.3,4.5-0.4
	c1.6-0.1,2.9,0.6,4.4,1.1c2.5,0.9,4.8,2,6.9,3.6c0.5,0.4,1,0.6,1.6,0.8c0.6,0.3,1,0.8,1.5,1.3c1,1.2,2.1,2.4,3.4,3.5
	c1,0.8,1.9,1.7,2.6,2.7c1,1.4,2.2,2.7,3.3,4.1c-0.1,0-0.2,0-0.2,0s0-0.1-0.1-0.1c-0.6-0.9-2.3-0.3-1.9,0.8c0,0.1,0.1,0.2,0.1,0.2
	l0,0l0,0c1,2.4,2.7,4.4,4.4,6.4c1.4,2.1,2.6,4.3,3.4,6.6c0.2,0.7,0.9,0.8,1.4,0.6v0.1c0.1,0.3,0.3,0.5,0.5,0.6
	c0.3,0.7,0.7,1.4,1.1,2c0.6,1,1.1,2.1,1.5,3.2c1.1,3.4,2.7,6.5,4.5,9.6c0.2,0.4,0.5,0.9,0.7,1.3c2.7,5.6,5.8,11,8.4,16.7
	c0.7,1.6,1.7,3.1,2.5,4.6c0.4,0.7,0.9,1.5,1.2,2.2c1.7,3.3,3.4,6.6,5.1,9.9c1.7,3.3,3.2,6.7,4.9,10c0.7,1.4,1.5,2.8,2.3,4.2
	c0.9,1.5,1.5,3.2,2.3,4.8c1,1.9,1.8,3.8,3,5.6c0.8,1.2,1,2.7,2,3.8c1,2.3,2.7,4.3,4,6.4c1.6,2.7,3.3,5.3,4.9,8
	c1.1,1.8,2.3,3.5,3.4,5.3c0.9,1.5,1.8,3,2.7,4.6s2.9,5.2,3.8,6.8c0.4-0.8,0.5-0.9,0.6-1c0,0-0.9-2.6-1.4-3.7
	C195.4,315.6,194.2,313.9,193.4,312.2z"/>
<path class="st3" d="M206.5,120.5c-0.2-0.3-0.4-0.8-0.7-1.1c-2.2-2.2-4.1-4.7-5.8-7.4c-0.6-1-1.5-1.8-2.2-2.8s-1.4-1.9-1.8-3
	c-0.7-1.6-1.6-3.1-2.7-4.5c-0.8-0.9-1.4-2-2-3c-1.3-2.3-2.8-4.4-4-6.7c-0.8-1.6-1.7-3.1-2.6-4.6c-1.4-2.4-2.9-4.8-4.3-7.1
	c-0.7-1.2-1.4-2.5-2.5-3.5c-1.3-1.2-2.3-2.7-3.2-4.2c-2.2-3.7-4.9-7.1-7.3-10.6c-0.7-1-1.7-1.6-2.3-2.7c-1.9-1.8-3-4.2-4.8-6.2
	c-1.2-1.4-2.2-3-3.1-4.6c-1.9-3.3-3.8-6.6-6.5-9.3c-0.6-0.6-1.1-1.5-1.7-2.2c-0.8-0.8-1.3-1.9-2.4-2.6c-0.9-0.6-1.6-1.5-2.4-2.3
	c-0.8-0.8-1.9-1.1-2.9-1.6c-0.2-0.1-0.5-0.1-0.7-0.2c-0.9-0.4-1.8-0.6-2.5-1.1s-1.2-1.2-1.8-1.8c-0.6-0.6-1.2-1.1-2.2-1.1
	c-0.7-0.1-1.5-0.4-2.1-0.7c-0.7-0.4-1.6-0.4-2.2-0.2c-0.8,0.3-1.7,0.2-2.5,0.4s-1.6,0.4-2.4,0.7c-2.3,1-4.5,2.3-6.6,3.8
	c-4.6,3.1-8.4,7.1-12.2,11.1c-1.9,2-3.5,4.3-5.1,6.6c-1.4,2-2.7,4-4.2,6c-1.2,1.6-2.2,3.4-3,5.2c-1.3,3-2.7,5.8-4.7,8.3
	c-0.4,0.5-0.7,1.1-1,1.7c-1.3,2.5-2.8,4.8-4.6,6.9c-2.3,2.7-4.4,5.6-6.2,8.6c-0.6,1-1.3,1.9-2,2.9c-2.5,3.4-5,6.7-6.9,10.6
	c-0.6,1.3-1.5,2.4-2.4,3.6c-1.2,1.6-2.4,3.2-3.3,5c-1,2-2.1,3.9-2.8,5.9c-0.4,0.9-1,1.8-1.6,2.6c-1.7,2.3-3,4.8-4.1,7.5
	c-1.6,3.8-3.2,7.5-4.6,11.5c-0.2,0.5-0.4,0.9-0.7,1.4c-0.9,1.5-1.5,3.2-2,4.9c-0.6,1.8-1.3,3.5-2,5.1c-1,2.3-1.7,4.7-2.5,7.1
	c-0.2,0.7-0.3,1.5-0.6,2.2c-1.3,2.9-2.2,6-3.1,9c-0.5,1.8-1,3.5-1.7,5.3c-0.6,1.7-1.4,3.4-2.1,5.1c-0.2,0.4-0.4,0.8-0.5,1.1
	c-1.2,2.5-2.5,5-3.6,7.5c-2,4.6-4.1,9.2-5.8,13.9c-0.4,1.3-1,2.5-1.6,3.7c-0.6,1.3-0.9,2.7-1.3,4.1c0,0.1,0,0.2-0.1,0.4
	c-0.8,2.4-2.3,4.4-2.8,6.9c-0.1,0.4-0.3,0.6-0.6,0.7l-0.1,0.1c0.1,1.1,0.2,2.3,0.3,3.4l0,0c0.1,0.1,0.2,0.3,0.2,0.4c0,0.5,0,1,0,1.5
	c0,0.6,0,1.1,0,1.7c0.1,2.4,0.1,4.7,0.1,7.1c0,0.3-0.1,0.5-0.2,0.7c-0.1,9.4-0.2,18.9-0.3,28.3c0,0.3,0,0.5,0,0.8
	c0.1,0.1,0.2,0.3,0.2,0.6c0,2.4,0.2,4.9-0.3,7.3c0,0.6,0,1.2,0,1.9c0,1.2,0,2.4,0,3.6c0,1.1,0,2.2,0,3.3c0,1.2,0,2.4,0,3.6
	c0,1.1,0,2.2-0.1,3.3c0,1.2,0,2.4,0,3.6c0,1.1,0,2.2,0,3.3c0,1.2,0,2.4,0,3.6c0,0.7-0.2,15.1-0.3,19.2c0.4-1,1.6-2.7,1.4-3.3
	l0.9-6.8c0-0.3,0.1-7.4,0.1-11c0.1-6.7,0.1-13.4,0.2-20.1c0-3.4,0.1-6.8,0.1-10.2l0,0c0.2-14.4,0.3-28.9,0.4-43.3
	c0-2.4,0.7-4.5,1.6-6.5c0.7-1.5,1.4-2.9,1.6-4.5c0.2-1,0.6-1.9,1.1-2.8c0.9-1.8,1.6-3.7,2.1-5.7c0.1-0.3,0.2-0.6,0.4-0.9
	c1.7-3.5,3-7.1,4.8-10.5c0.2-0.4,0.4-0.9,0.6-1.4c0.4-1.3,0.9-2.5,1.6-3.7c1.8-3.2,3.1-6.7,4.2-10.2c0.4-1.2,0.8-2.4,1.4-3.5
	c0.4-0.7,0.6-1.5,0.8-2.4c0.2-1.7,0.9-3.2,1.6-4.8c1-2.1,1.9-4.1,2.1-6.4c0.1-0.7,0.5-1.4,0.8-2.1c0.9-2.1,1.9-4.1,2.6-6.3
	c0.7-2.1,1.5-4.1,2.4-6.1c0.3-0.8,0.7-1.5,1.1-2.3c0.9-1.7,1.3-3.5,2-5.3c0.5-1.3,1.3-2.5,1.7-3.9c0.5-1.3,1-2.7,1.5-4
	c0.4-0.9,0.8-1.9,1.4-2.6c2.3-2.8,4-6,5.3-9.4c0.7-1.8,1.7-3.5,2.9-5c1-1.4,1.9-2.8,2.8-4.2c1.5-2.2,2.8-4.6,4.1-6.9
	c1-1.6,1.9-3.2,3.2-4.5c1.1-1.2,2-2.5,2.9-3.9c1.1-1.8,2.2-3.6,3.7-5.1c0.8-0.9,1.4-1.9,2.2-2.8c0.4-0.5,0.8-1.1,1.3-1.5
	c1.2-1.1,2.1-2.4,2.8-3.9c0.8-1.7,1.7-3.3,2.8-4.8c1-1.4,1.8-2.8,2.7-4.2c0.1-0.1,0.1-0.1,0.1-0.2c0.3-2.2,1.8-4,2.8-5.9
	c0.5-0.9,0.9-1.8,1.6-2.6c1.6-1.8,2.7-3.9,4.1-5.8c0.5-0.7,1-1.3,1.6-2c0.3-0.3,0.6-0.6,0.8-1c0.6-1.5,1.7-2.5,2.8-3.6
	c1.6-1.6,3.2-3.3,5-4.8c1.9-1.6,3.8-3,5.8-4.5c1.6-1.2,3.4-2.2,5.2-3c1.1-0.4,2.1-0.9,3.4-1c0.4,0,0.8-0.2,1.2-0.3
	c0.4,0,0.8-0.1,1.2,0.1c1,0.3,2,0.8,3.1,0.9c0.4,0,0.8,0.4,1,0.7c1.1,1.2,2.5,1.9,4.1,2.4c1.5,0.5,2.9,1.4,4.1,2.4
	c1.5,1.4,3.1,2.7,4.1,4.5c0.2,0.4,0.6,0.8,1,1.1c1.8,1.8,3.3,3.8,4.6,6c1.2,1.9,2.4,3.9,3.5,5.8c0.7,1.2,1.6,2.2,2.5,3.2
	c0.6,0.7,1.2,1.4,1.7,2.2c1.2,1.9,2.8,3.4,4.1,5.2c0.8,1.2,1.7,2.3,2.6,3.4c2.3,2.9,4.2,6.1,6.2,9.2c0.7,1.1,1.6,2,2.4,3
	c1.1,1.4,2.2,2.8,3,4.4c0.9,1.7,2,3.3,3,5c0.9,1.5,1.9,3,2.6,4.5c1.3,2.8,3.2,5.4,4.8,8c1.5,2.5,3.3,4.9,4.6,7.5
	c0.8,1.6,1.9,3.2,3.1,4.6c1.2,1.4,2.2,3,3.3,4.5c0.2,0.3,0.4,0.8,0.7,1c1.9,2,3.4,4.2,5,6.5c0.6-0.8,1.5-1.4,2.3-1.8
	C207.6,121.9,207.1,121.2,206.5,120.5z"/>
<path class="st5" d="M231.9,387.1c-0.1-0.2-0.2-0.3-0.2-0.5c-0.9,0-1.8,0-2.7,0c-4.8,0-9.5-0.1-14.3-0.1c-1.2,0-2.4-0.2-3.5,0.3
	c-1.3-0.6-2.6,0.1-3.9,0.1c-8-0.2-16-0.2-24-0.2c-0.9,0-1.9-0.1-2.7,0.3c-0.2,0.1-0.5,0.1-0.8,0c-0.9-0.3-1.7-0.3-2.7-0.1
	c-0.9,0.2-1.9,0-2.8,0c-0.9,0-1.7,0-2.5,0c-0.9,0-1.9,0-2.8,0s-1.9,0-2.8,0c-11.5-0.1-22.9-0.2-34.4-0.3c-1.1,0-2.2-0.2-3.2,0.3
	c-0.3,0.2-0.8,0-1.3,0c-8.3-0.1-16.6-0.1-25-0.2c-3.7,0-7.5-0.1-11.2-0.1c-0.7,0-1.3,0-2,0.2c-0.6,0.2-1.3-0.2-1.9-0.2
	c-0.3,0-0.7-0.1-1,0c-1.1,0.6-2.3,0.3-3.5,0.3c-7.3,0-14.6-0.1-21.9-0.1c-0.8,0-1.5-0.2-2.2,0.2c-0.2,0.1-0.5,0.1-0.7,0
	c-0.7-0.4-1.5-0.3-2.2-0.3c-2.4,0-4.8-0.1-7.1-0.1c-0.8,0-1.5-0.1-2.2,0.3c-0.3,0.2-0.8,0.1-1.2,0.1c-8-0.1-16-0.2-24-0.2
	c-0.3,0-0.7,0-1-0.1c-0.2,0-0.4-0.2-0.5-0.4c-0.1-0.3-0.1-0.7-0.1-1c0.1-10.3,0.2-20.7,0.3-31c-0.7,0.6-1.6,1.1-2.5,1.4
	c-0.1,9.9-0.2,19.9-0.3,29.8c0,0.6-0.1,1.2-0.1,1.8c0,0.9,0.4,1.7,1,2.2c0.5,0.4,0.9-0.2,1.4-0.2c1,0,2,0,3.1,0
	c0.5,0,1.1,0.1,1.5-0.1c0.8-0.4,1.7-0.3,2.5-0.3c3.2,0,6.5,0.1,9.7,0.1c6.3,0.1,12.6,0.1,18.9,0.2c0.7,0,1.4,0.1,2-0.1
	c0.7-0.2,1.3-0.3,2-0.3c1,0,2,0,3.1,0c0.9,0,1.9,0,2.8,0c1,0,2,0,3.1,0c0.9,0,1.9,0,2.8,0c1,0,2,0,3.1,0s2,0,3.1,0
	c0.9,0,1.9,0,2.8,0c1-0.7,1.9,0.1,2.9,0c0.3,0,0.7,0,1-0.1c0.7-0.2,1.4-0.2,2.1-0.3c0.8-0.1,1.7,0,2.6,0c10.2,0.1,20.4,0.2,30.6,0.3
	c0.8,0,1.6-0.1,2.5-0.3c1.2-0.3,2.5-0.3,3.8,0.1c0.2,0.1,0.5,0.2,0.7,0.2c1.7-0.7,3.5-0.3,5.3-0.3c8.6,0,17.2,0.1,25.8,0.2
	c0.6,0,1.2,0.1,1.8-0.1c0.7-0.3,1.3,0.5,1.9,0.1c0.7-0.4,1.5-0.3,2.2-0.3c7,0,14.1,0.1,21.2,0.2c2.5,0,5.1,0.1,7.6,0
	c0.8,0,1.6-0.2,2.4-0.1c0.8,0.1,1.7,0.1,2.5,0c0.9-0.1,1.8,0.1,2.7,0.2c0.2,0,0.4,0,0.5,0c1.7-0.6,3.5-0.5,5.2,0
	c0.1,0,0.4,0.1,0.5,0c1.1-0.6,2.3-0.3,3.5-0.3c8.2,0,16.5,0.1,24.7,0.2C232.9,388.2,232.4,387.7,231.9,387.1z"/>
<path class="st3" d="M251.1,199.4c1.3,2.1,2.9,4.1,4.6,6c0.6,0.7,1.2,1.4,1.6,2.3c0.5,1.1,1.1,2.1,1.9,3c0.6,0.7,1.2,1.4,1.6,2.3
	c0.7,1.5,1.6,2.9,2.6,4.3c0.5,0.7,1.2,1.3,1.1,2.2c1,1.8,1.6,3.7,2.9,5.4c1.2,1.6,1.8,3.4,2.5,5.2c0.8,2.2,1.9,4.3,3,6.4
	c0.2,0.4,0.5,0.7,0.6,1.1c0.4,1.3,1.2,2.2,2,3.2c0.7,0.8,1.3,1.8,1.9,2.7c1.9,2.9,3.9,5.7,6.2,8.3c1.8,2.1,3.6,4.2,5,6.6
	c0.6,1,1.4,1.9,2.2,2.8c0.4,0.4,0.8,0.9,1.1,1.3c1,1.5,1,1.5,1,3.3c0,3.1-0.1,6.1-0.1,9.2c0,0.5,0,0.9,0,1.4
	c0.3-0.2,0.8-0.2,1.1,0.2c0.2,0.3,0.5,0.5,0.7,0.8c0.1-0.6-0.2-1.2-0.2-1.9c0-3.2,0-6.5,0.1-9.7c0-0.2,0-1.5,0-2.8
	c-0.7-1.4-1.3-2.8-2.1-4.2c-0.6-0.9-1.3-1.9-1.9-2.8c-0.3-0.5-0.6-1-1.1-1.4c-1.9-1.8-3.5-3.9-5.2-5.9c-0.7-0.8-1.2-1.6-1.9-2.4
	c-0.6-0.7-1.1-1.5-1.5-2.3c-0.1-0.1-0.1-0.3-0.3-0.4c-1.3-1.3-2.1-2.9-3.2-4.3c-0.8-0.9-1.3-2-1.8-3c-0.7-1.3-1.2-2.6-2.1-3.8
	c-0.5-0.8-0.8-1.7-1.1-2.5c-0.6-1.7-1.5-3.4-2.4-5c-1-1.8-2-3.5-2.6-5.4c-0.6-1.7-1.5-3.2-2.6-4.6c-0.4-0.5-0.8-1.1-1.1-1.7
	c-0.6-1-1.2-2-1.8-3.1c-0.5-1-1-1.9-1.7-2.8c-0.7-1-1.4-1.9-2.1-2.8c-1.3-1.7-2.7-3.2-4.1-4.8c-0.8-0.9-1.3-1.9-1.9-3
	c-0.4-0.7-0.7-1.4-1.4-1.7c0,1.2,0.3,2.5,0.5,3.7C251.4,198.9,251.3,199.2,251.1,199.4z"/>
<path class="st4" d="M295.9,384.9c0.1-0.4,0-0.8,0-1.3c0-5,0.1-10,0.1-15c0-0.6,0.2-1.3,0-1.8c-0.4-0.7,0.3-1.3,0-1.9
	c-0.5-1.2-0.4-2.3-0.3-3.5c0-5.7,0.1-11.4,0.1-17.1c0-0.5,0.1-1.1-0.1-1.5c-0.5-0.9-0.3-1.8-0.3-2.7c0-4,0-8,0-12
	c0-0.6,0.1-1.2-0.1-1.8c-0.3-0.7-0.3-1.3-0.3-2c0-4.7,0.1-9.3,0-14c0-1.6,0.2-3.2-0.2-4.7c0.1-0.8,0.1-1.6,0.1-2.3
	c0-0.1,0-0.2,0-0.3c0-1.2-0.1-2.4-0.2-3.6c0-3.2,0-6.4,0-9.6c0.1-0.1,0.1-0.3,0.1-0.5v-4.2c0-0.1,0-0.2,0-0.3c0-0.7,0-1.4,0-2.1
	c0-0.5,0-1,0-1.4c-0.5-0.9-1-1.8-1.7-2.6l0,0c-0.1-0.1-0.2-0.2-0.2-0.3c-0.1-0.1-0.2-0.3-0.3-0.4c-0.2-0.2-0.3-0.5-0.3-0.7
	c-0.6-1.2-1.3-2.4-2-3.5c-0.8-1.3-1.8-2.5-2.8-3.6s-1.8-2.3-2.4-3.5c-1.7-3.2-3.8-6.1-5.9-9.1c-1.1-1.5-2.4-2.9-3.7-4.2
	c-0.9-1-1.9-1.9-2.6-3.1c-0.6-0.9-1.5-1.6-2.2-2.4c-1.7-1.8-3.3-3.7-5.1-5.4c-1.3-1.2-2.8-2.4-4.5-3.2c-2.5-1.2-4.9-1.7-7.6-1.5
	c-1.5,0.1-3.1,0-4.6-0.1c-0.7,0-1.3,0.1-2,0.4c-1.3,0.6-2.6,1.1-4,1.6c-1,0.4-1.7,1-2.5,1.7c-0.5,0.5-1,0.8-1.6,1.3
	c-0.4,0.3-0.8,0.6-1.1,1c-0.7,0.9-1.4,1.9-2.1,2.9c-0.8,1.2-1.6,2.4-2.6,3.4c-1,1.1-1.7,2.3-2.3,3.6c-0.7,1.5-1.7,2.9-2.5,4.4
	c-0.5,1-0.9,2.2-1.5,3.2c-0.6,0.9-1.3,1.8-1.4,2.9c-1.4,1.6-1.9,3.8-3.2,5.4c-0.9,1.2-1.4,2.7-2.3,3.9c-1.2,2.9-3.2,5.3-4.3,8.3
	c-0.6,1.5-1.7,2.9-2.6,4.3c-1.4,2.2-2.9,4.4-3.6,6.9c0,0.2-0.2,0.3-0.2,0.5c-1.4,2.6-2.4,5.3-3.4,8.1c-0.2,0.5-0.4,0.9-0.7,1.4
	c-0.6,1.1-1.3,2.1-1.7,3.3c-0.4,1.2-1,2.3-1.5,3.5c-0.4,1-0.9,2-1.2,3c-0.5,1.4-0.9,2.7-1.6,4c-0.4,0.8-0.4,1.6-0.8,2.4l0,0
	c-0.3,1.2-0.3,1.2-0.9,2.3c1,1.7,1.5,4.4,2.6,5.9c0.6,0.9,1.3,1.8,1.7,2.8c0.5,1.3,1.4,2.5,2,3.8c1,2.3,2.2,4.5,3.4,6.7
	c1.5,2.8,2.8,5.8,4.3,8.6c1.6,3,3.2,6.1,4.9,9.1c1.3,2.3,2.6,4.5,3.9,6.8c0.5,1,1.1,1.9,1.7,2.8c0.4,0.6,0.8,1.1,1.1,1.7
	c1,2.1,2.2,3.9,3.6,5.8c1.2,1.6,2.1,3.4,3.1,5.2c0.6,1,1.4,1.9,1.9,3c0.4,0.8,0.9,1.5,1.5,2.1c0.1,0.1,0.2,0.1,0.3,0.2
	c0.9,1.1,1.9,2,2.8,3.1c0.6,0,1.2,0,1.9,0c0.5,0,1.1,0.1,1.5,0c1.8-0.6,3.7-0.3,5.5-0.3c11.6,0.1,23.1,0.3,34.7,0.3
	c4.6,0,9.3,0.5,14-0.3c0.7-0.1,1.3-0.3,1.6-1c0.2-0.4,0.5-0.7,0.7-1.1C296.4,385.9,295.8,385.4,295.9,384.9z M293.5,365.7
	c0,5.1-0.1,10.2-0.1,15.3c0,0.7,0.4,1.5,0.2,2.2c-0.2,0.8-0.2,1.7-0.3,2.5c0,0.5-0.3,0.7-0.9,0.7c-1.8,0-3.6-0.1-5.4,0
	c-1.1,0-2.2-0.2-3.3,0.3c-0.3,0.1-0.8-0.4-1.2-0.3c-2.4,0.8-4.9,0.2-7.3,0.3c-2.5,0.1-5.1,0-7.6,0s-4.9,0-7.4,0
	c-0.9,0-1.8-0.2-2.8,0.2c-0.6,0.2-1.2-0.5-1.9-0.1c-0.7,0.4-1.5,0.2-2.2,0.2s-1.4,0-2,0c-4.4,0-8.8-0.1-13.3-0.1
	c-0.8,0-1.2-0.2-1.6-0.9c-0.8-1.8-1.8-3.4-3.1-4.8c-0.3-0.4-0.6-0.8-0.8-1.3c-1.7-2.7-2.2-5.8-4.2-8.3c-0.7-0.9-0.8-2-1.4-3
	c-0.4-0.8-12.5-19.4-13.1-20.4c-1.2-2-2.1-4.2-3.1-6.4c-1-2.2-2.4-4.3-3.5-6.4c-0.2-0.5-0.6-0.8-0.8-1.3c-1.6-4-3.9-7.6-6.4-11.1
	c-0.4-0.5-0.4-1-0.2-1.7c0.7-2.3,1.6-4.6,2.5-6.8c0.6-1.5,1.2-2.9,1.8-4.4c0.4-1,0.8-2,1.3-3c0.8-1.4,1.2-3,2.1-4.3
	c0.2-0.3,0.4-0.8,0.5-1.2c1.8-5,4-9.8,6.6-14.5c0.6-1.1,1.2-2.2,1.9-3.3c1-1.5,1.8-3.2,2.7-4.8c1-1.7,2.1-3.3,2.9-5
	c0.7-1.4,1.4-2.7,2.2-4c2-3.1,3.5-6.4,5.2-9.6c1.3-2.4,2.6-4.9,4-7.2c0.9-1.4,1.9-2.8,2.9-4.1c1.4-1.8,2.8-3.6,4.4-5.2
	c1-1,2.3-1.6,3.5-2.4c0.6-0.4,1.2-0.6,1.8-0.9c0.8-0.4,1.6-0.6,2.4-0.5c0.8,0,1.5,0,2.3,0c0.3,0,0.7,0.1,1,0
	c1.8-0.8,3.5-0.3,5.1,0.4c0.8,0.3,1.6,0.5,2.4,0.8c2.5,0.9,4.2,2.8,5.9,4.7c0.4,0.4,0.8,0.9,1.2,1.3c1.4,1.4,2.9,2.6,4,4.3
	c1,1.5,2.1,2.8,3.4,4.1c2.5,2.4,4.4,5.3,6.3,8.2c1.1,1.6,2,3.3,3,5c0.8,1.2,1.6,2.4,2.5,3.5c2.5,3.3,2.5,3.3,4.7,7.7
	c0.5,1,1.1,2.1,2.1,2.8l0,0c0.1,0,0.2,0.1,0.3,0.2c0.1,0.1,0.2,0.2,0.2,0.3c-0.3,0.1-0.6,0.4-0.6,0.9v0.1c-0.1,0.2-0.2,0.4-0.1,0.6
	c0.1,0.8,0.2,1.7,0.2,2.5c0,0.3,0.1,0.6,0.3,0.7c0,0.4,0,0.8,0,1.2c0,0.3,0.1,0.6,0.3,0.7c0,0.2,0,0.4,0,0.5c-0.5,0-1,0.3-1,1
	c-0.1,3.1,0.4,6.1,0.6,9.2c-0.3,0.1-0.6,0.4-0.6,0.9c0.1,1.7,0.3,3.5,0.4,5.2c0,0.3,0.1,0.5,0.3,0.7c0,0.6,0,1.2,0,1.8
	c0,1.2,0,2.4,0,3.6c0,1.3-0.2,2.5,0.3,3.8c0.2,0.4,0.1,1,0,1.5c0,4-0.1,8-0.1,12c0,0.9-0.4,1.7-0.1,2.7c0.3,0.9,0.1,1.8,0.1,2.8
	c0,0.9,0,1.9,0,2.8s0,1.9,0,2.8s0,1.9,0,2.8s0,1.9,0,2.8c0,0.2-0.1,0.5,0,0.8c0.6,1.6,0.3,3.3,0.3,5
	C293.6,356.8,293.5,361.2,293.5,365.7L293.5,365.7z"/>
<path class="st3" d="M209.1,123.3c-0.5-0.4-1-0.8-1.5-1.3c-0.5-0.4-1-0.3-1.4,0c-0.2,0-0.3,0.1-0.4,0.2c-0.1,0.1-0.2,0.2-0.2,0.3
	c-0.4,0.3-0.6,0.8-0.2,1.3c0.4,0.7,0.9,1.8,1.7,2c0.5,0.1,1-0.1,1.2-0.5c0.1,0,0.3-0.1,0.4-0.2c0.1-0.1,0.2-0.2,0.2-0.2
	c0.1,0,0.1-0.1,0.2-0.1C209.4,124.4,209.5,123.7,209.1,123.3z"/>
<path class="st3" d="M216.9,137c-0.3-1.1-0.8-2.1-1.6-3c-0.1-0.1-0.2-0.2-0.4-0.3c-0.1-0.2-0.2-0.4-0.3-0.5
	c-0.4-0.6-1.1-0.6-1.5-0.2c-0.7,0.1-1.3,0.8-0.9,1.5s0.9,1.4,1.4,2.1c0.2,0.4,0.6,0.5,1,0.5c0.1,0.3,0.3,0.5,0.5,0.8
	C215.7,138.7,217.2,138.1,216.9,137z"/>
<path class="st3" d="M225.9,151.3c-0.3-0.8-0.7-1.6-1.4-2.1c-0.3-0.3-0.7-0.4-1-0.2c-0.5-0.1-1.1,0.2-1.2,0.7
	c-0.2,0.3-0.3,0.7-0.1,1.1c0.3,0.6,0.7,1.1,1,1.7c0.3,0.5,0.8,0.6,1.2,0.4c0.2,0.1,0.5,0.1,0.8,0s0.6-0.4,0.6-0.8
	C225.9,151.8,225.9,151.6,225.9,151.3z"/>
<path class="st3" d="M232.6,166.9c-0.2-0.7-0.5-1.3-1-1.8c-0.1-0.2-0.3-0.3-0.5-0.3c-0.3-0.3-0.8-0.3-1.2-0.1
	c-0.2,0.1-0.4,0.4-0.5,0.6c-0.2,0.3-0.2,0.7,0,1c0.2,0.5,0.5,1,0.9,1.5c0.3,0.4,0.9,0.7,1.4,0.4l0,0c0.1,0,0.3-0.1,0.4-0.1
	C232.5,167.9,232.8,167.4,232.6,166.9z"/>
<path class="st3" d="M238.3,176.3c-1-1.2-1.8-2.6-2.5-4c-0.1-0.2-0.2-0.5-0.4-0.7c-0.6-1.2-2.3-0.1-1.8,1c0.1,0.2,0.2,0.5,0.4,0.7
	c0.1,0.2,0.2,0.5,0.3,0.7c-0.3,0.3-0.5,0.7-0.2,1.2c0.6,1.1,1.3,2.2,2.2,3.1c0.1,0.1,0.3,0.2,0.4,0.2l0,0c0.9,0.6,1.7-0.5,1.4-1.3
	C238.6,177.1,238.6,176.7,238.3,176.3z"/>
<path class="st3" d="M252.8,198.7c-0.1-0.1-0.2-0.3-0.2-0.5c0.1-0.2,0.1-0.5,0-0.9c-0.6-1.2-1.5-2.3-2.2-3.4c-0.4-0.7-0.7-1.4-1.1-2
	c-0.5-1-2.3-0.3-1.9,0.8c0.2,0.6,0.5,1.2,0.9,1.7l0,0c-0.1,0.2-0.1,0.4,0,0.6c0.2,0.8,0.9,1.5,1.3,2.2c0.5,0.8,1,1.7,1.5,2.5
	C251.7,200.8,253.4,199.8,252.8,198.7z"/>
<path class="st4" d="M280.6,142.8c-0.3-0.9-0.6-1.7-0.9-2.6c-0.5-1.4-1.8-3.5-2.7-4.5c-1.2-1.3-2.5-2.5-3.8-3.8
	c-1.1-1.1-2.4-2-4-2.6c-1.2-0.5-2.4-1.1-3.7-1.6c-0.8-0.3-1.5-0.4-2.2-0.2c-2,0.6-4.1,1-5.9,2.1c-0.8,0.4-1.7,0.7-2.6,1
	c-0.4,0.1-0.5,0-0.5-0.5c0-1.1,0.9-6.2,1.3-7.7c0.4-1.5,1-2.9,1.4-4.3c0.9-3.4,2.8-6.3,4.6-9.2c1.1-1.8,2.8-3.1,4.4-4.5
	c0.4-0.3,0.8-0.6,1.1-1c0.6-0.6,0.1-1.9-0.7-2c-0.2,0-0.3,0-0.5,0c-1.7,0-3.4,0-5.1-0.1c-1,0-5.8,2.1-7.2,3.3
	c-2.6,2.2-5.2,4.4-7.5,6.9c-0.6,0.6-1.1,1.2-1.5,2c-0.7,1.3-1.7,2.5-2.3,3.9c-0.4,1-1.1,1.9-1.2,3c0,0.3-0.3,0.6-0.4,0.9
	c-0.9,2-1.9,3.9-2.3,6.1c-0.1,0.3-0.3,0.6-0.4,0.9c-0.1,0.2-0.2,0.2-0.4,0c-0.4-0.5-0.7-0.9-1.1-1.4c-1.2-1.6-2.5-3.2-4.2-4.4
	c-1.8-1.2-3.6-2.5-5.8-3c-0.4-0.1-0.8-0.3-1.2-0.3c-2.2,0-4.4,0-6.6,0c-1.3,0.5-2.8,0.3-4.1,1c-1.3,0.6-2.6,1.2-3.6,2.3
	c-0.3,0.3-0.8,0.5-1.2,0.8c0,0.4-0.1,0.8-0.5,0.9c-1,0.5-2,1.4-2.5,2.5c-0.1,0.2-0.3,0.4-0.6,0.5c-0.1,0.1-0.2,0.2-0.3,0.3
	c-0.2,0.2-0.5,0.5-0.7,0.8c-1.4,2.5-3,4.9-3.9,7.6c-0.1,0.2-0.1,0.5-0.1,0.8c0,0.6,1,1.3,1.6,1c0.5-0.2,0.9-0.5,1.3-0.8
	c0.8-0.5,1.5-1.2,2.2-1.6c1-0.6,2.1-0.9,3.3-1.1c0.1-0.1,0.3-0.1,0.5-0.1c0.1,0,0.2,0,0.3,0c0.2,0,0.3,0,0.5,0s0.4,0,0.6,0
	c2,0,3.9-0.1,5.8,0c0.3,0,0.5,0,0.8,0.1c0.1,0,0.2,0,0.4,0c0.3,0,0.5,0.1,0.6,0.3c1,0.4,2.1,0.8,3.1,1.2c0.2,0.1,0.3,0.1,0.5,0.2
	c2.7,1.9,5.6,3.5,7.5,6.3c0.9,1.2,1.4,2.7,2,4c0.2,0.5,0,1-0.5,1.3c-0.8,0.4-1.6,0.9-2.3,1.5c-0.6,0.5-1.4,0.8-2.1,1.2
	c-0.1,0.2-0.2,0.4-0.5,0.5c-1.3,0.5-2.3,1.5-3.5,2.3c-0.3,0.6-1,1.2-1.4,1.8c-0.8,1-1.6,2-2.4,3c-0.3,0.4-0.9,0.7-1,1.1
	c-0.3,1.2-1.3,2-1.6,3.1c-0.5,2.2-1.6,4.2-2.2,6.4c-0.2,0.9-0.7,3.2-0.8,3.4c-1.1,2.2-0.9,4.6-0.9,7c0,1,0.3,2,0.6,3
	c0.1,0.4,0.6,0.8,1,1.1c0.1,0.1,0.5,0.2,0.7,0.1c0.7-0.4,1.3-0.8,1.3-1.7c0-2.7,1.5-4.8,3-6.8c0.5-0.7,1-1.4,1.6-2
	c0.9-0.9,1.7-1.9,2.7-2.7s1.7-1.9,2.9-2.4c0.5-0.2,1-0.6,1.5-0.9c0.1,0,0.2-0.1,0.3-0.1c1.1-0.7,2.4-1.3,3.7-1.6
	c0.1,0,0.2-0.1,0.3-0.1c0.9-0.3,1.8-0.7,2.6-0.7c3.4,0,3-0.6,3,2.8c0,0.1,0,0.2,0,0.2l0,0c-0.1,0.9,0,1.9-0.2,2.8
	c-0.2,0.8,0.1,1.6-0.2,2.4c0,0.1,0,0.1-0.1,0.2c0,0.1,0,0.2,0,0.3c0,0.6-0.1,1.1-0.1,1.7c0,0.1,0,0.2,0,0.4v0.1
	c-0.2,1.6-0.3,3.3-0.4,4.9c0,0.2,0,0.3-0.1,0.5c0,0.3-0.1,0.7-0.2,1c-0.1,0.1-1,4.1-0.9,6c0.1,1.5-0.9,6.3-1.1,7.2
	c-0.2,0.9-0.5,1.8-0.5,2.7c-0.1,0.8-0.4,1.6-0.5,2.5c-0.1,0.8,0,1.7-0.4,2.5c-0.2,0.5-0.1,1.2-0.2,1.8c0,0.8-0.1,1.5-0.3,2.2
	c-0.3,1-0.2,2.2-0.2,3.3c0,0.7,0.8,1.2,1.4,0.9c0.7-0.4,1.5,0.3,2.1-0.2c0.6,0.1,1.2-0.8,1.9-0.1c2.9-0.7,5.9-0.3,8.8-0.4
	c0.6,0,1.3-0.1,1.7,0.2c0.9,0.6,1.4,0.1,2-0.4c0.3-0.3,0.4-0.7,0.4-1.1c0-1.2-0.4-2.3-0.7-3.4c-0.1-0.6-0.2-1.1-0.3-1.7
	c0-0.8-0.1-1.5-0.3-2.2c-0.1-0.4-0.1-0.8-0.1-1.1c0-0.1-0.1-0.2-0.1-0.3c-0.4-2.2-0.8-4.5-0.3-6.8c0-0.2,0.1-0.4,0.2-0.5
	c0-0.3,0.1-0.6,0.1-0.9c0-3.5,0.1-7,0.1-10.5c-0.7-2.9-0.3-5.9-0.4-8.8c0-0.5-0.2-1-0.4-1.5c-0.1-0.5,0-1,0.5-1.4
	c0.9-0.7,1.8-1.3,3-1.2c1.6,0.1,3.2-0.1,4.8,0.4c1.2,0.4,2.5,0,3.7,0.6c2.2,0,4,1.2,5.7,2.4c0.8,0.5,1.5,1.1,2.2,1.7
	c0.7,0.5,1.2,1.2,1.6,1.9c0.6,1,1.5,1,2.3,0.1c0.4-0.4,0.6-0.8,0.3-1.5c-0.3-0.7-0.2-1.7-0.2-2.5c0.1-1.9-0.3-3.7-0.9-5.4
	c-0.6-1.8-1.2-3.7-1.7-5.5c-0.4-1.6-1.4-2.7-2.6-3.6c-0.3-0.2-0.6-0.3-0.9-0.5c-1.5-1.4-3.2-2.1-5.3-1.8c-0.9,0.1-1.8-0.4-2.7-0.2
	c-1.4-0.6-2.8-0.3-4.1,0.4c-0.4,0.2-0.6,0-0.5-0.4c0.1-0.7,0.5-1.5,0.5-2.2c0-0.8,0.5-1.2,0.8-1.8c0.5-0.9,1-1.9,1.7-2.8
	c1.5-1.9,3.8-3.3,6.1-3.6c0.3,0,0.7-0.1,1-0.2c1.6-0.4,3.2-0.9,5-0.8c0.2,0,2.4-0.6,3.2-0.4c1.3,0.4,2.6,0.6,3.8,1.3
	c0.8,0.5,1.7,0.8,2.5,1.3c0.6,0.4,1.1,0.3,1.6-0.1C280.6,144.2,280.8,143.5,280.6,142.8z M263.7,159.3c-0.5-0.1-1-0.1-1.6-0.1
	c0.2-0.1,0.3-0.3,0.3-0.5c0.3,0,0.6,0.1,0.9,0.2c0.1,0.1,0.3,0.2,0.4,0.3C263.7,159.2,263.7,159.2,263.7,159.3z M222.7,159.6
	c-0.1,0.2-0.2,0.3-0.3,0.5c-0.2,0.2-0.5,0.5-0.7,0.7c0-0.1,0.1-0.2,0.1-0.3C222,160.2,222.3,159.9,222.7,159.6z M256.5,107.5
	c0.1-0.1,0.2-0.2,0.3-0.2c0.1-0.1,0.2-0.1,0.3-0.2c0,0,0.1,0,0.1,0.1c-0.1,0.2-0.3,0.4-0.4,0.6C256.7,107.6,256.6,107.6,256.5,107.5
	z M244.5,160c0,0.1,0,0.3,0,0.4c0,0-0.1,0-0.1,0.1C244.3,160.3,244.4,160.1,244.5,160z M244.3,183.3c0,0,0,0.1-0.1,0.2
	c0-0.2,0-0.5,0-0.7C244.2,182.9,244.3,183.1,244.3,183.3z M244.2,184.3c0,0.7,0,1.4,0,2.1v-0.1c0-0.2-0.1-0.3-0.2-0.4
	C244.1,185.4,244.1,184.9,244.2,184.3z M243.5,162.9c0,0.2,0,0.5-0.1,0.7c0-0.2,0-0.5,0-0.7C243.5,162.8,243.5,162.8,243.5,162.9z
	 M246.8,144.5c0-0.1,0.1-0.2,0.2-0.3c0-0.1,0.1-0.1,0.1-0.2c0.1,0.1,0.1,0.2,0.2,0.4l0,0C247.1,144.4,246.9,144.5,246.8,144.5z
	 M237.6,158.8c0,0.1,0,0.3,0.1,0.4c-0.3,0-0.5,0-0.8,0C237.1,159.1,237.3,159,237.6,158.8z M234,138.6
	C234,138.6,234.1,138.5,234,138.6c0.1,0,0.1,0.1,0.1,0.1C234.1,138.7,234.1,138.6,234,138.6z M221.3,124.5h-0.1
	c0-0.1-0.1-0.3-0.2-0.4c0.3,0.1,0.6,0.2,1,0.3C221.7,124.4,221.5,124.5,221.3,124.5z M213.8,128.4c-0.1,0.2-0.2,0.4-0.2,0.5
	c-0.1,0-0.2,0-0.4,0C213.4,128.8,213.6,128.6,213.8,128.4C213.8,128.5,213.8,128.5,213.8,128.4z M225.1,154.5L225.1,154.5
	c0,0,0,0,0.1-0.1C225.2,154.4,225.1,154.5,225.1,154.5z M236.6,161.6v0.1c-0.2,0-0.4,0-0.6,0C236.2,161.7,236.4,161.6,236.6,161.6z
	 M238.7,181.7v0.1l0,0C238.7,181.7,238.7,181.7,238.7,181.7z M236.7,206c0,0.1,0,0.1,0,0.2c-0.1,0-0.1,0-0.2,0c0-0.1,0-0.2,0-0.3
	C236.6,205.9,236.7,205.9,236.7,206z M238.4,133.1C238.4,133.1,238.4,133.2,238.4,133.1c-0.1,0.2,0,0.4,0,0.5
	c-0.1-0.1-0.1-0.3-0.2-0.4C238.3,133.2,238.3,133.2,238.4,133.1z M216.8,168.6c-0.1,0.5-0.2,1-0.4,1.4c-0.1,0.1-0.1,0.3-0.2,0.4
	C216.5,169.8,216.7,169.2,216.8,168.6z M223.4,166.8c0.1-0.1,0.3-0.3,0.5-0.4l1.1-0.7C224.4,166.1,223.9,166.5,223.4,166.8z
	 M252.8,165.5c0.8,0,1.5-0.1,2.3-0.2c0.3,0.1,0.7,0.1,1,0.2c-0.2,0-0.4,0-0.6,0C254.6,165.5,253.7,165.5,252.8,165.5z"/>
<path class="st5" d="M148.6,77.7c-0.4-0.4-0.9-0.5-1.4-0.3c-1.5,0.7-3.2,1.1-4.8,1.3c-1.8,0.2-3.5,0.7-5.3,0.5
	c-0.3-0.1-0.7,0.1-1,0.2c-1.8,0.4-3.4,0.9-5.1,1.5c-0.1,0.1-0.4,0-0.4,0c-0.1-0.2-0.1-0.4,0-0.5c1-1.2,2-2.3,3-3.4
	c0.5-0.6,1.2-1,1.7-1.5c1.7-1.7,3.6-3,5.5-4.5c0.7-0.6,1.4-1.2,2-1.9c1.4-1.7,2.8-3.4,4.2-5.1c0.5-0.7,1-1.4,1.5-2
	c0.4-0.5,0.4-0.8,0-1.3c-0.7-0.9-0.9-1-1.9-0.5c-1.2,0.5-2.4,1.2-3.8,1.1c-0.2,0-0.3,0.2-0.5,0.2c-2.4,0.6-4.7,1.2-7.2,1.3
	c-0.4,0-0.8,0.3-1.2,0.3c-1.4,0.1-4.1,0.9-4.2,1.3c-0.3-0.3,0.7-1.8,1-2.4c0.5-0.9,0.8-2,1.2-3c0.2-0.8,0.4-1.6,0.6-2.4
	c0.4-1.3,1.1-2.5,1.1-3.9c0-0.3,0.2-0.6,0.3-0.9c0.8-1.4,1.5-2.8,2.3-4.2c0.5-0.7,0.6-1.5,0.9-2.3c0.3-0.8-0.4-1.3-0.9-1.7
	c-0.4-0.4-0.8,0-1.1,0.2c-0.7,0.4-1.2,1-1.8,1.4c-1.6,1-3.1,2.3-4.5,3.6c-1.1,1-2,2.2-3.3,2.8c-1.8,1.8-3.7,3.6-5.6,5.5
	c-0.4,0.9-1.1,1.5-1.8,2.1c-2.9,2.9-5.9,5.8-8.9,8.7c-1.9,1.9-3.9,3.8-5.2,6.2c-0.1,0.3-0.4,0.5-0.6,0.8c-0.1,0.1-0.3,0.3-0.4,0.4
	c0-0.2-0.1-0.3-0.1-0.5c0-2.1,0.5-3.9,1.9-6.4c0.6-1.1,0.9-2.2,0.7-3.4c-0.1-0.5-0.5-0.7-0.9-0.5c-2.8,1.9-5.4,3.9-7.8,6.1
	c-0.6,0.5-1.2,1.2-1.6,1.9c-1.6,2.9-2.9,5.9-4.2,8.9c-0.8,1.6-1,3.5-2,5.1c-0.2,1.4-1.1,2.6-1.1,4.1c0,1.6-0.6,3-1.1,4.4
	c-0.2,0.7-0.7,1.4-0.8,2.1c-0.5,2.2-1.2,4.3-1.8,6.5c-0.4,1.7-0.9,3.3-1.8,4.9c-0.8,1.5-1.5,3.2-2.4,4.7c-1.3,2.2-2.3,4.5-4.2,6.3
	c-0.2,0.1-0.3,0.4-0.4,0.6c-0.4,1-1.2,1.8-1.9,2.6c-0.8,0.9-1.4,1.9-2.3,2.7c-0.3,0.2-0.5,0.5-0.8,0.7c-2.2,1.2-3.7,3.3-5.8,4.8
	c-1.5,1.1-2.8,2.6-4.2,4c-1.2,1.3-2.1,2.9-2.8,4.5c-0.2,0.5-0.3,1.2,0.1,1.7c0.7,1,1.5,1.9,2.9,1.7c0.3,0,0.7,0.1,1,0
	c1-0.5,2-0.4,3-0.4c0.6,0,1.1-0.2,1.7-0.3c1.1-0.2,2.2-0.8,3.4-0.7c1.5,0.1,2.8-0.4,4.2-0.8c1.6-0.5,3.2-1,4.8-1.6
	c1.6-0.6,3.4-0.9,5-1.5c1.3-0.5,2.6-1.2,3.9-1.7c0.9-0.3,1.7-0.6,2.5-1.2c1.7-1.2,3.5-2.3,5.3-3.4c3-1.8,6.2-3.2,9.3-4.6
	c0.7-0.3,1.5-0.8,2.3-0.9c1.5-0.2,2.7-0.9,4-1.5c0.9-0.4,1.8-0.8,2.8-1c1.6-0.2,3.1-0.8,4.5-1.5c0.7-0.3,1.4-0.4,1.9-0.8
	c0.6-0.4,1.3-0.6,2-0.9c2.2-1.1,4.5-2.3,6.7-3.5c1.2-1.3,2.7-2.2,3.9-3.3c2.8-2.6,6-4.8,8.8-7.5c0.4-0.3,0.9-0.5,1.3-0.8
	c0.4-0.2,0.7-0.4,1.1-0.6c0.5-0.4,0.6-1.1,0.3-1.6c-0.4-0.6-1.1-0.9-1.7-0.5c-0.3,0.3-0.6,0.6-1,0.8c-1.6,0.7-3.3,1.4-4.9,2
	c-0.2,0.1-0.3,0.1-0.5,0.2c-0.2-0.1-0.5-0.2-0.8-0.2l-1.4,0.3c-0.1,0-0.2,0-0.4,0c-0.2,0-0.5,0.1-0.7,0.1c-0.4-0.1-0.9-0.2-1.4-0.3
	c-0.4-0.1-0.8-0.1-1.2,0c-1.1,0.2-2.1,0.5-3.2,0.7c0,0-0.1-0.1-0.2-0.1c0-0.1,0-0.2,0-0.2c0.2-0.3,0.5-0.6,0.7-0.8
	c1.4-1.4,2.9-2.7,4.1-4.2c1.3-1.7,2.6-3.3,4-4.9c1.4-1.7,2.9-3.3,4-5.2c1.2-1.9,2.5-3.8,3.7-5.7c0.9-1.5,2-2.8,3.3-3.9
	c0.6-0.5,1.3-0.8,1.9-1.3C149.2,79,149.1,78.2,148.6,77.7z M138.5,83.4c-0.1,0.1-0.2,0.2-0.3,0.3c0-0.1,0-0.1-0.1-0.2
	C138.3,83.5,138.4,83.5,138.5,83.4z M129,110c0,0,0-0.1,0.1-0.1c0,0,0.1,0,0.2-0.1C129.2,109.9,129.1,110,129,110z M118.1,99.7
	c-1,0.6-2,1.2-2.9,1.9c-2.4,1.6-4.8,3.3-7.2,4.9c-0.4,0.2-0.5,0.6-0.4,1c-2,1.5-4,3.1-5.9,4.9c-0.2,0.2-0.2,0.4-0.3,0.5
	c-0.3,0.2-0.6,0.5-0.9,0.7c-0.9,0.7,0.1,1.9,1,1.7c0.2,0,0.4-0.1,0.5-0.1c0.2,0.2,0.4,0.3,0.8,0.3c1.1,0,2.2-0.1,3.2-0.1
	c1.4,0.4,2.8,0.7,4.3,0.6c-0.5,0.5-1,0.9-1.5,1.5c-0.1,0.2-0.2,0.3-0.2,0.5c-0.2,0.2-0.5,0.4-0.7,0.6c-2,1.1-4,2.3-5.9,3.5
	c-0.2,0.1-0.3,0.3-0.4,0.4c-2.6,0.9-5.2,1.9-7.7,3c-0.1,0-0.3,0-0.4,0c-1.7,0.3-3.4,0.7-5,1.2c-0.2,0-0.4,0-0.6,0.1l-0.8,0.3
	c-2.7,0.9-5.3,2-7.8,3.4c-0.3,0.1-0.4,0.4-0.5,0.6c-1.4,0.7-2.8,1.5-4.2,2.3c-0.1,0-0.1,0.1-0.1,0.1c-0.1-0.3-0.3-0.7-0.4-1.1
	c0.1-0.1,0.2-0.1,0.2-0.3c0.4-0.5,0.7-1.1,1-1.6c0.4,0.2,1,0.1,1.3-0.4c3.4-6,6.7-11.9,10.1-17.9c0.4,0.1,0.9,0.1,1.2-0.4
	c2.2-3.7,4.1-7.7,5.5-11.8c1.2-2,2.1-4.2,1.9-6.6c0.2-0.6,0.5-1.2,0.7-1.8c0.4-1.1,0.9-2.2,1.3-3.3c0.5-0.9,1-1.9,1.4-2.8
	c0.2-0.4,0.4-0.8,0.5-1.2c0,0.4-0.1,0.8-0.1,1.1c-0.1,0.9,1.3,1.4,1.8,0.6c0.1,1.9,0.4,3.9,0.9,5.7c0.1,0.2,0.2,0.4,0.4,0.5
	l-0.1,0.2c-0.2,0.5,0,0.8,0.3,1c0.4,0.7,1.6,0.8,1.9-0.2c0.8-2.4,1.6-4.9,2.4-7.3c0.2-0.5,0.5-1.1,0.7-1.6c1.4-2.3,2.7-4.6,3.8-7
	c0.8-0.6,1.5-1.2,2.3-1.8c1.8-1.1,3.5-2.4,5.2-3.8c0.1,0.4,0.2,0.8,0.3,1.1c0.1,0.4,0.2,0.9,0.2,1.3c-0.1,0.1-0.1,0.3-0.2,0.5
	c-0.2,0.1-0.3,0.2-0.4,0.4c-0.5,1.1-0.8,2.2-1.1,3.3c-0.4-0.1-0.9,0.1-1.1,0.7l-1.9,6.2c-0.1,0.3-0.1,0.5,0,0.7
	c-0.4,1.2-0.7,2.5-0.9,3.8c-0.4,0.9-0.6,1.8-0.7,2.7c-0.1,0.9,1,1.9,1.7,1c0.4-0.6,1-1,1.5-1.5c0.2,0.2,0.5,0.2,0.8,0.1
	c1.9-0.6,3.7-1.4,5.4-2.2c0.9-0.3,1.7-0.6,2.6-0.9c0.1,0,0.2,0,0.2,0c1,0.3,2,0.2,2.9,0c-0.3,0.5-0.1,1,0.3,1.2
	c0,0.1-0.1,0.3-0.1,0.4v0.1c-0.1,0.1-0.2,0.2-0.3,0.2c-0.4-0.1-0.8-0.1-1.1,0.2c-0.5,0.6-1.1,1.2-1.7,1.8c0,0,0,0-0.1,0
	C122.3,94.7,120,97,118.1,99.7z M96.5,127.2c0.6-0.3,1.2-0.6,1.8-0.9c0.5-0.2,1.1-0.5,1.6-0.7c0,0,0,0,0,0
	C98.8,126.1,97.6,126.7,96.5,127.2C96.5,127.3,96.5,127.2,96.5,127.2z M108.5,122.3c-0.4,0.2-0.9,0.3-1.3,0.5c0-0.1,0.1-0.2,0.1-0.3
	c0.3-0.1,0.6-0.2,0.9-0.3C108.3,122.2,108.4,122.2,108.5,122.3z M86.5,103.3c-0.2,0.3-0.3,0.7-0.5,1c0.1-0.4,0.2-0.8,0.4-1.2
	C86.4,103.2,86.5,103.3,86.5,103.3z M115.9,89.8c-0.1,0-0.1,0.1-0.2,0.1c0-0.1,0.1-0.2,0.1-0.3C115.8,89.7,115.9,89.8,115.9,89.8z
	 M144,64.1C144,64.1,144,64.1,144,64.1C144,64.1,144,64.1,144,64.1C144,64.1,144,64.1,144,64.1z M127.7,68.7
	C127.7,68.7,127.7,68.7,127.7,68.7C127.7,68.7,127.7,68.7,127.7,68.7C127.7,68.7,127.7,68.7,127.7,68.7z M128.3,61.6
	C128.3,61.5,128.3,61.5,128.3,61.6c0-0.1,0.1-0.2,0.1-0.3c0.1-0.2,0.2-0.5,0.3-0.7c0.3-0.5,0.5-1,0.7-1.5
	C129.1,59.9,128.7,60.8,128.3,61.6z M140.3,68.4c-0.5,0.4-1,0.8-1.5,1.2l1.1-1c0.1-0.1,0.2-0.3,0.3-0.5l1.6-1.5
	c0.3-0.1,0.5-0.3,0.6-0.6c0.1-0.1,0.2-0.2,0.3-0.3c0.1-0.1,0.1-0.2,0.2-0.2c0,0,0,0,0,0C142.1,66.5,141.3,67.6,140.3,68.4z
	 M121.4,58.2c-0.1,0.1-0.1,0.2-0.2,0.2c0,0,0,0,0,0C121.3,58.3,121.3,58.2,121.4,58.2z M101,68.9c0.1,0.1,0.1,0.3,0.1,0.5
	c-0.1,0-0.1,0.1-0.2,0.1c-0.3,0.3-0.6,0.5-0.9,0.8c-0.3,0-0.5,0.2-0.7,0.5l-0.1,0.1c-0.1,0-0.1,0-0.2-0.1c0.4-0.5,0.8-0.9,1.3-1.3
	C100.4,69.4,100.9,69,101,68.9z M90.3,89.3c0.1-0.4,0.2-0.9,0.3-1.3c-0.1,0.9-0.3,1.7-0.3,2.6c0,0.1-0.1,0.1-0.1,0.2l-0.1,0.1V91
	c-0.4,1.1-0.8,2.2-1.2,3.3C89.5,92.7,89.9,91,90.3,89.3z M78,119.8C78,119.8,78,119.8,78,119.8C78,119.8,78,119.8,78,119.8
	C78,119.8,78,119.8,78,119.8C78,119.8,78,119.8,78,119.8z M113.4,120.4c-0.2,0-0.4,0.1-0.7,0.2C113.1,120.4,113.8,120.3,113.4,120.4
	z M117.1,119.2C117.1,119.2,117,119.2,117.1,119.2C116.2,119.6,116.3,119.5,117.1,119.2z M134.2,108.5c0-0.1-0.1-0.1-0.1-0.1
	c0.3-0.2,0.6-0.5,0.9-0.7C134.8,108,134.5,108.3,134.2,108.5z M138.8,87c0.1-0.2,1.1-1.7,1.5-2.1C140.1,85.3,137.5,88.9,138.8,87z"
	/>
<path class="st4" d="M101.6,319.4c-0.5-1-0.4-2-0.4-3c0-0.8,0.1-1.7,0-2.5c-0.5-2.3-0.8-4.6-1.7-6.8c-0.3-0.8-0.6-1.6-0.7-2.4
	c-0.1-1.1-0.7-1.9-1.3-2.7c-1.4-1.6-3.3-2.3-5-3.4c-0.1-0.1-0.3-0.1-0.5-0.1c-1.9,0-3.9-0.3-5.8,0.3c-0.1,0-0.4,0-0.4-0.1
	c-0.1-0.1-0.1-0.3-0.1-0.5c1.8-3.3,3.3-6.8,5.1-10.1c1.4-2.5,3.1-4.8,5.2-6.8c1.3-1.2,2.7-2.3,4.3-3c0.2-0.1,0.5-0.2,0.7-0.3
	c0.4-0.2,0.7-0.9,0.5-1.3c-0.2-0.5-0.5-1-1-1c-1.9,0.1-3.7-0.3-5.5-0.6c-0.8-0.1-1.6-0.1-2.5-0.4c-0.8-0.3-1.8-0.1-2.7,0.1
	c-2.2,0.5-4.3,1.3-6.5,1.9c-0.9,0.2-1.7,0.6-2.4,1.2c-2.1,1.8-4.5,3.3-6.4,5.3c-0.2,0.2-0.7,0-0.8-0.3c-0.2-0.8-0.3-1.5,0-2.2
	c0.3-0.8,0.3-1.5,0.3-2.2c0-1.4,0.1-2.7,0.1-4.1c0-0.5-0.1-1.1,0.1-1.5c0.7-1.6,0.2-3.4,1-4.9c-0.1-1.4,0.4-2.6,0.9-3.9
	c0.1-0.2,0.2-0.5,0.2-0.7c0.1-2.4,1-4.6,1.6-6.8c0.4-1.6,1.1-3.2,1.3-4.8c0.1-0.7-0.1-1.1-0.7-1.2c-0.7-0.1-1.3,0.1-1.9,0.5
	c-1.9,1.2-3.7,2.6-5.2,4.4c-1.1,1.3-2,2.7-3.1,3.9c-1.4,1.7-2.5,3.6-3.5,5.6s-1.2,4.4-2.1,6.4c-0.1,0.2-0.1,0.5-0.1,0.8
	c0.1,1.1-0.3,2.1-0.5,3.2c-0.2,1-0.7,2.1-0.6,3.2c0,0.2,0,0.5-0.1,0.7c-0.5,0.9-0.1,2.1-0.5,3c-0.4,1-0.4,2-0.4,3
	c-0.1,1.4,0,2.9,0,4.3c0,0.6,0,1.2-0.1,1.8c0,0.2-0.2,0.3-0.4,0.2c-1.4-1.1-2.8-2.2-4.2-3.2c-1.1-0.8-2.3-1.4-3.6-1.8
	c-1.6-0.5-3.3-0.8-4.9-1.2c-2.5-0.7-4.6-0.1-6.7,1.2c-1.1,0.7-1.7,1.9-2.7,2.7c-0.7,0.5-1.1,1.3-1.2,2.1c-0.1,0.7,0.2,1.5,0.8,1.8
	c0.9,0.5,1.8,0.5,2.7,0.5s1.6,0.1,2.4,0.7c0.8,0.6,1.8,1,2.7,1.2c3.2,1,5.8,3,8.3,5.1c1.4,1.2,2.6,2.6,3.9,4
	c0.8,0.9,0.8,1.2-0.4,1.5c-0.3,0.1-0.7,0.2-1,0.2c-0.9-0.1-1.7,0.3-2.4,0.6c-1.3,0.6-2.5,1.4-3.5,2.4c-1,0.9-1.9,1.9-3.1,2.6
	c-0.3,0.2-0.6,0.4-0.7,0.7c-1.8,3.3-3.7,7-2.4,11.8c0.1,0.3,0.1,0.7-0.1,1c-0.3,0.5,0,0.8,0.2,1.1c0.2,0.2,0.4,0.3,0.6,0.5
	c0.5,0.3,1.2,0.2,1.6-0.3c0.1-0.2,0.3-0.4,0.3-0.7c0.4-1.7,1.4-3,2.6-4.2c1.3-1.2,2.4-2.6,4.2-3.1c0.8-0.2,1.6-0.8,2.4-0.6
	c0.8,0.2,1.6-0.6,2.4,0c1.4,0.1,2.9,0.1,4.2,0.6c1.5-0.2,2.6,0.6,3.8,1.2c0.5,0.2,0.7,0.7,0.8,1.2c0.1,0.7,0.4,1.5,0.4,2.2
	c-0.1,4.5-0.1,9-0.1,13.5c0,0.4,0.1,0.9-0.1,1.3c-0.6,1.3-0.4,2.7-0.5,4c0,0.4,0.1,0.9-0.1,1.2c-0.5,0.9-0.3,1.8-0.4,2.7
	c-0.1,0.9,0.1,1.9-0.2,2.8c-0.4,1.2-0.4,2.3-0.4,3.5c0,0.4,0.1,0.9-0.1,1.2c-0.5,0.9-0.4,1.8-0.4,2.7c-0.1,1.4,0,2.9-0.1,4.3
	s0,2.9-0.1,4.3c0,0.6,0,1.2,0.1,1.8c0.1,0.3,0.4,0.6,0.6,0.8c0.3,0.2,0.7,0.1,0.9-0.2c0.7-0.9,1.6-1.6,2.8-1.6c1.6,0,3-0.7,4.5-0.5
	c0.3,0,0.7,0,1-0.1c3-0.6,4.5-0.5,6.9,0.3c1.2,0.4,1.6,0.3,2.4-0.7c0.3-0.4,0.4-0.8,0.2-1.2c-0.7-1.1-0.9-2.3-1.2-3.6
	c-0.5-2-1-3.9-1.1-5.9c-0.1-1.7-0.6-3.3-0.6-5c0-0.9-0.5-1.8-0.4-2.7c0.1-1-0.4-2-0.4-3c-0.1-1.3-0.2-2.7-0.4-4
	c-0.2-1.1-0.5-2.1-0.5-3.2s-0.4-2.1-0.6-3.2c-0.1-0.6-0.4-1.1-0.4-1.7c-0.2-2.9-1.2-5.7-1.6-8.6c-0.5-0.7-0.2-1.2,0.4-1.7
	c0.9-0.8,1.7-1.7,2.6-2.5c1.6-1.4,3.4-2.5,5.4-3.2c1.4-0.5,2.8-0.5,4.2,0c1.2,0.5,2.4,0.7,3.6,1.2c1,0.4,1.9,1.1,2.9,1.6
	c1.1,0.6,2,1.6,2.9,2.5c0.6,0.6,1.3,0.8,2.1,0.4C101.5,320.6,101.9,319.9,101.6,319.4z M80.2,357.2
	C80.2,357.2,80.1,357.2,80.2,357.2C80.1,357.2,80.1,357.2,80.2,357.2c-0.1-0.1-0.1-0.2-0.2-0.2h0.1
	C80.2,357.1,80.2,357.1,80.2,357.2z M70.5,296.4c0.1-0.1,0.1-0.2,0.2-0.3c0,0.1,0,0.1,0,0.2C70.6,296.3,70.6,296.3,70.5,296.4z
	 M70.6,352.7L70.6,352.7c-0.1,0.1-0.2,0.3-0.3,0.6c0,0.3-0.1,0.5-0.1,0.8l0,0c0.1-0.6,0.2-1.2,0.2-1.7
	C70.5,352.5,70.6,352.6,70.6,352.7z M70.2,292.4c0,0.1-0.1,0.2-0.1,0.3c0-0.2,0.1-0.3,0.1-0.5C70.2,292.2,70.2,292.3,70.2,292.4z
	 M69.4,336.8L69.4,336.8L69.4,336.8L69.4,336.8z M73.1,320.2L73.1,320.2c-0.1-0.1-0.1-0.3-0.1-0.4c0.1,0,0.1,0.1,0.2,0.1
	C73.2,320,73.2,320.1,73.1,320.2z M58.5,307.8c0.1,0,0.1,0,0.2,0c-0.1,0.1-0.1,0.1-0.2,0.2C58.5,307.9,58.5,307.8,58.5,307.8z
	 M65.6,305.8c-0.1,0-0.1,0.1-0.1,0.2c0-0.1-0.1-0.1-0.1-0.2C65.4,305.8,65.5,305.8,65.6,305.8z M45.5,290.8c0.3,0,0.6,0,0.9,0
	c0.1,0.1,0.2,0.2,0.3,0.3C46.3,291,45.9,290.9,45.5,290.8z M76,327.7c0,0.2,0,0.3,0,0.4c0-0.2-0.1-0.4-0.1-0.6
	C76,327.6,76,327.7,76,327.7z M98.5,313.4c0-0.1,0.1-0.2,0.1-0.3c0.1,0.3,0.1,0.7,0.1,1C98.6,313.8,98.6,313.6,98.5,313.4z
	 M77.1,334.4c0,0.7,0.3,1.5,0.4,2.2c0.2,0.9,0.4,1.8,0.5,2.7v0.1c-0.3-1.5-0.7-3-1-4.6v-0.1c-0.1-1.7-0.4-3.5-0.7-5.2
	c0.1,0.5,0.2,0.9,0.3,1.4C76.8,332.1,77.1,333.2,77.1,334.4z"/>
<path class="st6" d="M286.2,71.7c-1.7-0.6-3.1-1.7-4.7-2.5c-1.8-0.8-3.5-1.5-5.4-1.9c-1-0.2-1.9-0.6-3-0.6c-0.6,0-1-0.6-1-1.3
	c0-0.3,0-0.5,0.1-0.8c1-2.8,2-5.7,3.2-8.4c0.8-1.6,1.5-3.2,2.2-4.8c0.4-0.9,0.6-1.9,0.9-2.8c-0.1-0.4-0.2-0.8-0.4-1.1
	c-0.2-0.2-0.6-0.6-0.8-0.5c-0.6,0.1-1.4,0.2-1.6,1c-0.4,1.7-1.5,3-2.7,4.2c-1.9,2-3.9,3.8-6.1,5.4c-0.5,0.4-1.1,0.4-1.6,0.1
	c-1.4-0.8-2.9-1.3-4.4-1.9c-1.3-0.5-2.8-0.9-3.9-1.7c-2.7-1.9-5.6-3.4-8.4-5.2c-0.2-0.1-0.5-0.1-0.7,0c-1.3,0.5-1.4,0.7-0.8,2
	c0.3,0.9,0.6,1.7,0.9,2.6c0.5,1.5,0.7,3.1,1.6,4.5c0.9,1.4,1.5,3,2.2,4.5c0.5,1.1,1,2.1,1.9,3c0.5,0.5,0.8,1.1,1.1,1.7
	c0.6,1,1.1,2-0.1,2.9c-0.1,0-0.1,0.1-0.1,0.2c-0.5,1.9-1.6,3.5-2.2,5.3c-0.2,0.6-0.4,1.1-0.6,1.6c-0.8,1.7-1.5,3.4-2.3,5.1
	c-0.1,0.3-0.2,0.6-0.3,1c-0.6,1.6-0.5,3.5-1.5,5c-0.4,1.8-1.2,3.3-2,4.9c-0.3,0.6,0,1.5,0.6,1.7c0.6,0.3,1.5,0.1,1.8-0.3
	c1.5-1.8,2.9-3.7,4.4-5.5c0.2-0.2,0.4-0.4,0.6-0.5c0.8-0.3,1.3-1,2-1.6c1.8-1.6,3.6-3.1,5.4-4.7c0.1-0.1,0.3-0.2,0.4-0.3
	c0.6-0.3,1.5-0.1,1.8,0.4c0.9,1.3,1.8,2.7,2.3,4.2c1,2.9,2.3,5.6,4,8.1c0.8,1.2,1.2,2.6,2.1,3.7c0.4,0.6,1.6,0.6,2,0
	s0.6-1.1,0.6-1.9c0-1.4,0.1-2.7,0.1-4.1c0.5-0.8,0.4-1.8,0.5-2.7c0-1.8,0.1-3.6,0.1-5.4c0-1.3,0-2.7-0.4-4c-0.3-0.8,0-1.2,0.8-1.6
	c1-0.5,2-0.8,3-1.4c1.5-0.9,3.3-1.2,4.9-1.9c1.1,0.1,1.9-0.6,2.8-1c0.6-0.2,0.8-0.7,1-1.1C287.2,72.8,287,72,286.2,71.7z M271,85.7
	c-0.1-0.5-0.2-1.1-0.3-1.6c0.1,0,0.2,0,0.2,0C271,84.6,271,85.1,271,85.7z M270.2,64.5c0-0.1,0-0.2,0-0.3c0.1-0.1,0.1-0.2,0.2-0.4
	C270.3,64.1,270.2,64.3,270.2,64.5z"/>
<g>
	<path class="st6" d="M56.4,72.4c-0.1,0.8,0.1,1.8-0.4,2.6c-0.1,0.1-0.1,0.3-0.1,0.5c-0.1,2.9-0.1,5.8-0.1,8.7
		c0,0.5,0.3,0.7,0.9,0.5c2.5-0.7,5-1.3,7.5-1.8c0.6-0.1,1.3-0.4,1.9-0.5s1,0.2,1.3,0.7s0.1,1.5-0.3,1.9c-0.7,0.5-1.3,1.1-2,1.5
		c-1.1,0.6-1.9,1.4-2.6,2.4c-1.3,1.8-2.9,3.3-4.5,4.8c-1,1-1.9,2-1.8,3.5c-0.8,1.8-0.9,3.7-1.4,5.6c-0.3,1.2-0.4,2.5-0.7,3.7
		c-0.3,1.4-0.6,2.8-0.9,4.2c-0.2,1-0.2,2-0.2,3c0,0.8-0.3,1.5-0.6,2.1c-0.5,0.9-1.2,0.9-1.8,0.2c-0.4-0.4-0.7-0.8-0.6-1.3
		c0.1-0.9-0.3-1.6-0.5-2.5c-0.4-1.5-1-3-1.3-4.6c-0.3-1.5-1.1-2.8-1.2-4.4c0-0.3-0.3-0.6-0.4-0.9c-0.3-0.7-0.9-0.9-1.4-0.5
		c-1.2,1-2.6,1.9-3.9,2.8c-2.1,1.5-4.3,3-6.4,4.5c-0.6,0.4-1.2,0.9-1.8,1.3c-0.5,0.4-1.1,0.4-1.7,0.1c-0.6-0.2-0.8-1-0.5-1.5
		c1.4-1.8,2.4-3.9,3.1-6c0.6-1.8,1.5-3.5,2.3-5.3c0.9-2.1,1.8-4.4,2.9-6.4c0.3-0.6,0.4-1.1,0-1.7c-1-1.9-2-3.7-3.6-5.2
		s-3-3.2-4.8-4.5c-1-0.7-1.8-1.8-2.7-2.7c-0.4-0.4-0.3-1.1,0.1-1.6c0.2-0.2,0.4-0.4,0.6-0.5c0.3-0.2,0.6-0.4,0.9-0.2
		c1,0.7,2.2,0.7,3.4,1c2.1,0.4,4.1,1,5.8,2.3c1.4,1.1,2.8,1.4,4.5,1.4c0.5,0,1,0,1.5,0c0.2,0,0.6-0.1,0.7-0.3
		c0.7-1.4,2.2-2.1,2.9-3.5c1.8-2,3-4.4,4.5-6.7c0.3-0.4,0.6-0.9,0.9-1.2c0.8-0.8,1.8-0.4,2.1,0.4c0.3,0.9,0.8,1.9,0.6,2.9
		C56.3,71.6,56.4,72,56.4,72.4z M60.7,85.8c-1.4,0.5-2.9,0.9-4.3,1.4c-0.7,0.2-1.3,0.3-2,0.3c-0.6,0-1.2-0.6-1.2-1.1
		c0-0.8,0-1.5,0.2-2.3c0.2-0.6,0.3-1.1,0.3-1.7c0.1-2.9,0.1-5.8,0.2-8.7c0-0.3,0-0.7,0-1c0-0.1-0.1-0.3-0.2-0.4
		c-0.1,0.1-0.3,0.2-0.4,0.3c-1.1,2.1-2.6,3.9-4.2,5.6c-0.5,1.3-2,1.8-2.1,3.4c0,0.4-0.5,0.6-1,0.7c-1.9,0.1-3.9,0.1-5.7-0.7
		c-1.1-0.5-2.2-0.9-3.1-1.7c-1.3-1-4.2-1.8-4.6-1.6c0.1,0.1,2,2.1,3,2.9c1.1,0.9,2.2,1.9,2.9,3.1c0.6,1,1.3,2,1.9,3
		c0.4,0.6,0.8,1.3,1.6,1.6c0.6,0.3,0.6,0.9,0.5,1.3c-0.2,0.6-0.5,1.2-0.9,1.8c-0.3,0.4-0.7,0.7-1,1.2c-0.5,0.8-0.9,1.6-1.2,2.5
		c-0.3,1-1.2,1.6-1.5,2.6c-0.8,2.5-1.9,4.8-3.1,7.1c-0.2,0.4-0.4,0.9-0.5,1.4l0.1,0.2c0.4-0.3,0.8-0.7,1.2-1
		c1.2-0.8,2.4-1.6,3.6-2.4c2.3-1.4,4.6-2.9,6.4-5c0.2-0.2,0.4-0.4,0.6-0.5c0.6-0.4,1.6-0.1,1.9,0.6c0.9,2.5,1.4,5,2,7.5
		c0.2,1,0.4,2.1,0.8,3.1c0.1,0.1,0.3,0.2,0.4,0.3c0,0,0.1-0.1,0.1-0.2c0-1.1,0.5-2.1,0.6-3.2c0.1-0.8,0.1-1.6,0.4-2.5
		c0.3-0.7,0-1.7,0.5-2.4c0.1-1.7,0.9-3.3,0.7-5c-0.1-0.8,0.3-1.5,0.7-2.1s1-1.2,1.6-1.6c0.9-0.4,1.5-1.1,2.1-1.8
		c1.6-1.7,3.2-3.5,4.8-5.2c0.1,0,0.6-0.2,0.3-0.6C63,85.2,61.4,85.5,60.7,85.8z"/>
</g>
<path class="st6" d="M208.3,33.7c-0.4-0.3-1-0.4-1.4-0.1c-2,1.2-4.2,1.6-6.3,2.4c-2.4,0.9-4.9,1.3-7,2.6c-0.3,0.2-0.5,0-0.5-0.3
	c0-1.4-0.2-2.8,0.1-4.1c0.4-1.4,0.2-2.9,0.4-3.9c0-1.4,0-2.4,0.1-3.4c0-0.8-0.6-1.3-1.2-1.4c-0.5,0-1.1,0.4-1.3,1s-0.3,1.1-0.5,1.7
	c-0.1,0.3-0.2,0.7-0.4,0.9c-0.9,1.1-1.4,2.5-2.4,3.6c-1,1-1.7,2.3-2.6,3.4c-0.4,0.5-0.6,1.2-1.1,1.3c-0.4,0.2-1.1-0.2-1.6-0.3
	c-0.2,0-0.3-0.1-0.5-0.1c-3.1-0.9-6.3-1.8-9.4-2.8c-1-0.3-2-0.3-3-0.3c-0.7,0-1.1,0.9-0.8,1.5c0.2,0.4,0.4,0.8,0.7,1
	c1.1,0.5,1.6,1.5,2,2.5c0.6,1.3,1.3,2.6,2.2,3.6c1.7,1.9,2.9,4.1,4.4,6.1c0.2,0.3,0.4,0.8,0.4,1.2c0,0.8,0,1.5-0.4,2.2
	c-0.4,0.9-0.6,2-1,2.8c-0.7,1.4-0.6,2.9-1.1,4.4c-0.2,0.6-0.1,1.3-0.2,2c-0.1,1.3,0,2.7-0.5,4c-0.2,0.6-0.2,1.3-0.3,2
	c-0.1,0.6,0.2,1.2,1,1.5c0.6,0.2,0.7,0.2,1.3-0.3c0.2-0.2,0.5-0.5,0.7-0.7c1.4-2.1,3.3-3.6,5-5.3c0.9-0.9,1.9-1.6,2.7-2.6
	c1.4-1.8,1.6-1.4,3.4-0.4c0.1,0.1,0.3,0.2,0.4,0.3c2,2.1,4.4,3.8,6.3,5.9c1,1.1,2.1,2.2,3.2,3.3c0.6,0.6,1.3,1,2,1.5
	c0.4,0.3,1,0,1.3-0.5c0.4-0.6,0.7-1.2,0.1-1.8c-0.3-1.8-1.1-3.5-1.9-5.2c-0.8-1.7-1.5-3.4-2.2-5.1c-0.6-1.3-1.1-2.7-2.1-3.7
	c-0.6-0.6-0.5-1.4-0.1-2.1c1.2-2.1,2.4-4.2,3.9-6.2c0.6-0.8,1.3-1.6,1.8-2.4c1.6-2.7,3.5-5.2,5.9-7.2c0.7-0.6,0.6-1.4,0.9-2
	C208.7,34.2,208.5,33.8,208.3,33.7z M192.4,53.2L192.4,53.2L192.4,53.2L192.4,53.2z M193,52.4c0.1-0.2,0.3-0.4,0.4-0.6
	c0.1,0,0.1,0,0.2,0C193.5,52,193.2,52.2,193,52.4z M196.5,42.5c0-0.1,0-0.2-0.1-0.3c0.2-0.1,0.4-0.3,0.6-0.4
	C196.9,42.1,196.7,42.3,196.5,42.5z M177.1,39.2L177.1,39.2l-0.1,0.1c0,0,0-0.1-0.1-0.1C177,39.2,177.1,39.2,177.1,39.2z
	 M174.5,37.2c0.2,0,0.5,0,0.8,0.1c-0.1,0-0.2,0.1-0.3,0.2c-0.2,0-0.3,0-0.5,0.1C174.5,37.4,174.5,37.3,174.5,37.2L174.5,37.2z"/>
<path class="st6" d="M243.2,81.2c-0.3,0-0.7-0.1-1,0.1c-1,0.5-2.1,0.4-3.2,0.5c-0.3,0-0.7,0.1-1,0.2c-1.8,0.7-3.8,0.8-5.5,1.6
	c-0.4,0.2-0.8-0.2-0.7-0.7c0.8-2.7,1-5.4,1.6-8.1c0.2-1,0.6-1.9,0.5-2.7c0-0.8,0-1.3,0-1.8c0-0.8-0.4-1.2-1.1-1.5
	c-0.8-0.3-0.8-0.4-1.3,0.2c-0.4,0.5-0.7,1.1-1.2,1.6c-2,2.2-4,4.4-6.1,6.4c-2.9,2.8-2.8,2.6-6.5,0.7c-0.2-0.1-0.4-0.3-0.6-0.5
	c-1.7-1.1-3.4-2.2-5.1-3.2c-0.9-0.5-1.3-0.4-2,0.3c-0.5,0.5-0.9,1.1-0.6,1.8c0.1,0.5,0.5,1,0.9,1.2c1.6,0.9,2.4,2.3,3.2,3.8
	c1.2,2,2.5,4,3.7,6c0.4,0.6,0.3,1.4-0.1,1.9c-0.9,1.3-1.9,2.6-2.9,3.9c-0.5,0.7-1,1.3-1.4,2.1c-1.5,2.6-2,5.5-3.2,8.2
	c0,0.1,0,0.2,0,0.2c-0.1,0.4,0.3,1,0.7,1.3c0.3,0.2,0.6,0,0.9-0.1c0.3-0.2,0.7-0.3,0.8-0.5c0.6-1.2,1.9-1.7,2.9-2.3
	c2.3-1.2,4.6-2.5,6.8-3.9c1.1-0.7,2.2-1.3,3.3-1.9c0.4-0.2,0.9-0.1,1.1,0.2c0.3,0.6,0.7,1.2,0.8,1.8c0.1,1.9,0.9,3.6,1.7,5.2
	c1.1,2.2,2.5,4.2,3.4,6.5c0.3,0.7,0.8,1.3,1.2,1.9c0.3,0.4,1,0.7,1.4,0.5c0.7-0.3,1.3-0.9,1.4-1.6c0.1-0.7,0.3-1.5,0-2
	c-0.5-1.1-0.3-2.2-0.4-3.2c-0.1-0.9-0.3-1.8-0.4-2.7c-0.1-1,0-2,0-3c0-0.3-0.1-0.7-0.2-1c-0.5-1.3-0.6-2.8-1.2-4.1
	c-0.1-0.2,0-0.7,0.1-0.9c0.9-1.2,1.9-2.4,2.9-3.5c1.2-1.3,2.5-2.5,3.8-3.7c0.9-0.8,1.6-1.8,2.7-2.3c0.5-0.2,0.6-0.8,0.8-1.2
	C244.4,82.2,243.9,81.2,243.2,81.2z"/>
<g>
	<path class="st6" d="M65.5,30.9c0,1,0.1,2-0.4,3c-0.1,0.3-0.1,0.7-0.1,1c-0.1,0.8-0.1,1.7-0.4,2.5c-0.2,0.5-0.1,1.2-0.1,1.8
		c0,0.2,0.2,0.5,0.5,0.4c0.3,0,0.7-0.1,1-0.2c2.8-0.9,5.6-1.6,8.4-2.6c0.8-0.3,1.7-0.2,2.3-0.9c0.3-0.3,1.3,0,1.8,0.4
		c0.2,0.2,0.3,1.2,0.1,1.5c-0.1,0.2-0.3,0.5-0.4,0.6c-1.2,1.2-2.3,2.4-3.8,3.4c-1.4,1-2.6,2.1-3.9,3.2c-1.1,0.9-1.5,2-1.6,3.3
		c-0.1,2-0.1,3.9-0.1,5.9c0,0.2-0.1,0.5,0,0.8c0.5,1.2,0.4,2.5,0.4,3.8c0,1.7,0,3.4,0,5.1c0,0.6-0.1,1.1-0.5,1.7
		c-0.5,0.8-1.3,0.9-1.8,0.2c-0.1-0.2-0.3-0.4-0.4-0.6c-0.4-1-1.1-1.7-1.7-2.5c-1.7-2.4-4-4.4-5.7-6.7c-0.6-0.9-1.4-1.7-2.5-2.1
		c-0.3-0.1-0.6-0.1-0.9,0c-2.2,0.7-4.2,1.7-6.1,3C48,58,46.2,59,44.5,60.1c-0.7,0.5-1.4,1-2.1,1.4c-0.6,0.4-1.1,0.7-1.8,1
		c-0.4,0.2-1,0-1.3-0.5c-0.3-0.4-0.4-1-0.1-1.4c0.1-0.2,0.3-0.4,0.5-0.6c1.9-1.8,3.3-4,5-6.1s3.1-4.4,5.1-6.3
		c0.4-0.4,0.6-0.8,0.9-1.2c0.9-1.2,1-1.4-0.1-2.2c-1.3-0.9-2.3-2-3.4-3.1c-1-1-2.1-1.9-3.4-2.6c-1.7-1-3.2-2.2-5-3
		c-0.5-0.2-0.6-0.6-0.7-1c-0.1-0.2-0.1-0.5,0-0.7c0.4-0.7,1-1.1,1.9-1c1.2,0.2,2.5,0.5,3.7,0.8c1.3,0.3,2.5,0.9,3.9,0.9
		c0.2,0,0.5,0.1,0.7,0.2c1.2,0.5,2.5,0.9,3.9,0.9c0.6,0,1.1,0.4,1.7,0.5c1.2,0.2,2-0.2,2.9-1.1c1.5-1.8,3.1-3.5,4.4-5.5
		c0.4-0.7,0.9-1.4,1.3-2.1c0.3-0.4,0.7-0.8,1.2-0.7c0.6,0.1,1,0.4,1.2,1.1c0,0.1,0,0.2,0,0.2C65.6,28.7,65.5,29.8,65.5,30.9z
		 M45.2,36.1c0.1,0.1,1.6,1.1,2.1,1.6c0.4,0.5,1.1,0.8,1.6,1.3s0.9,1,1.4,1.4c1.2,1.1,2.5,2.2,4,3.1c0.4,0.2,0.5,0.7,0.7,1
		c0.3,0.5-0.2,0.7-0.5,1c-0.8,0.9-1.7,1.7-2.5,2.5c-0.7,0.7-1.5,1.4-2.1,2.2c-1,1.2-1.8,2.4-2.8,3.6c-0.7,0.9-1.5,1.8-2.2,2.7
		c-0.2,0.3-0.5,0.6-0.7,1c0.6,0.3,0.9-0.3,1.3-0.5c2-1.1,4-2.2,6-3.2c1.6-0.8,3.2-1.5,4.6-2.6c0.9-0.7,2.1-0.6,2.9,0.4
		c1.4,1.7,2.7,3.5,4.3,5c0.2,0.2,0.4,0.4,0.5,0.6c0.8,1.6,2.5,2.5,3.3,4.1c0,0,0.1,0.1,0.2,0c0.1,0,0.1-0.1,0.1-0.2
		c0-1,0.4-1.9,0.1-2.9c-0.2-0.6-0.1-1.4-0.1-2c0-0.5,0-1-0.1-1.5c-0.5-1.5-0.3-3-0.1-4.5c0-0.4,0.1-0.8,0-1.2
		c-0.2-0.7-0.3-1.5-0.3-2.2c0-1,1.1-1.2,1.7-1.8c0.9-0.9,1.8-1.9,2.8-2.6c1.2-0.8,2.1-1.8,3-2.7c0.1-0.1,0.2-0.3,0.2-0.4
		c-0.2-0.1-0.5-0.2-0.7-0.2c-0.6,0.1-1.1,0.3-1.7,0.5c-2.9,1-5.9,1.8-8.7,3.2C62.9,43.1,62,42.7,62,42c0-0.8-0.1-1.6,0.2-2.2
		c0.3-0.8,0.3-1.7,0.4-2.5c0.2-0.9,0.4-1.8,0.5-2.7c0.1-0.8,0.1-1.7,0.1-2.5c0-0.5,0.7-0.9,0.1-1.4c-0.2-0.2-0.3-0.1-1.1,0.9
		c-1.6,2-3.1,4-4.7,6c-0.4,0.6-0.9,1-1.7,0.9c-0.4,0-0.9,0.1-1.3-0.1c-1.5-0.7-3.2-1-4.8-1.3C48.2,36.8,45.5,35.8,45.2,36.1z"/>
</g>
<path class="st6" d="M249.5,41.3c-0.2-0.6-0.9-0.9-1.5-0.7c-0.5,0.1-1,0.4-1.4,0.4c-1.5,0.1-3,0-4.5,0.5c-0.8,0.2-1.6,0-2.5,0.4
	c-0.8,0.4-1.9,0-2.7,0.5c-0.1,0-0.3,0-0.4-0.2c-0.1-0.1-0.1-0.3,0-0.5c1.6-3.1,3-6.2,5-9.1c0.9-1.2,1.6-2.6,2.4-3.9
	c0.2-0.3,0.3-0.6,0.1-0.9c-0.2-0.4-0.4-0.8-0.6-1.1c-0.3-0.3-1.4-0.1-1.7,0.1c-0.3,0.3-0.6,0.6-0.9,0.9c-1,1-2.2,1.8-3.5,2.5
	c-2.6,1.4-5.4,2.5-7.8,4.1c-0.3,0.2-0.6,0.4-0.9,0.1c-0.5-0.3-1.1-0.3-1.7-0.3s-1.1-0.1-1.7-0.3c-2.4-0.8-4.5-2.2-6.5-3.8
	c-0.6-0.5-1.1-0.7-1.9-0.6c-0.5,0.1-1.1,0.6-1.1,0.9s0.2,0.6,0.4,0.9s0.5,0.5,0.7,0.7c0.7,0.6,1.2,1.4,1.6,2.2c0.5,1,0.9,2,1.5,2.9
	c1.2,1.8,2,3.7,2.9,5.6c0.2,0.4,0.2,0.8,0.4,1.2c-0.1,0.4-0.2,0.7-0.3,1c-0.7,1.2-1.3,2.6-2.2,3.7c-1.9,2.3-3.6,4.7-5.2,7.1
	c-0.5,0.8-1,1.7-1.5,2.6c-0.4,0.8,0.3,1.7,1.2,1.8c1,0,1.8-0.3,2.5-1c0.9-1,2.1-1.8,3.4-2.2c1.2-0.4,2.1-1.1,3.1-1.6
	c0.4-0.2,0.7-0.5,1.1-0.6c0.8-0.4,1.5-1.1,2.5-1c0.5,0.7,1,1.4,1.4,2c0.2,0.3,0.4,0.6,0.6,0.8c0.9,0.9,1.2,2,1.4,3.2
	c0.4,2.9,2.3,4.8,4.2,6.7c0.1,0.1,0.3,0.1,0.5,0.1c0.8-0.4,1.3-1,1.8-1.7c-0.7-0.9,0.4-1.7,0.2-2.7c-0.1-0.7-0.1-1.4,0.1-2
	c0.5-1.5,0.4-3,0.5-4.5c0-0.3,0-0.7,0.1-1c0.6-1.4,0.5-2.8,0.2-4.2c-0.1-0.5,0.1-0.8,0.4-1c1.8-1.1,3.5-2.3,5.4-3.2
	c1.6-0.9,3.2-1.9,4.7-2.9C249.6,42.7,249.8,42,249.5,41.3z M233.1,38.6C233.1,38.6,233,38.6,233.1,38.6c-0.1-0.1-0.1-0.1-0.1-0.2
	c0.1,0,0.2,0,0.3,0C233.2,38.5,233.1,38.5,233.1,38.6z M227.1,38.2c-0.1,0-0.1,0-0.2,0.1v-0.1C227,38.1,227,38.1,227.1,38.2z
	 M235.8,48.8L235.8,48.8C235.8,48.8,235.8,48.7,235.8,48.8L235.8,48.8z M221.2,34.9L221.2,34.9L221.2,34.9L221.2,34.9z"/>
<path class="st5" d="M284.7,296c0-0.5-0.5-1.1-1.1-1.2c-0.7-0.2-1.2,0-1.5,0.6c-0.4,0.6-0.7,1.2-1,1.8c-0.9,1.9-2.3,3.4-4.1,4.4
	c-1.1,0.6-2.4,1.1-3.6,1.7c-0.1,0.1-0.4-0.1-0.4-0.2c-0.1-0.6-0.1-1.2-0.1-1.8c0.8-0.7,0-1.6,0.3-2.4c0.3-0.7,0.1-1.7,0.1-2.5
	c0.1-1.7,0.1-3.5,0.1-5.3c0-1.6,0.1-3.2,0-5.2c0-1.1,0.2-2.3-0.1-3.3c-0.4-1.1-0.3-2.1-0.4-3.2c0-0.2,0-0.4-0.1-0.5
	c-0.8-1.9-0.8-4.1-1.2-6.1c-0.3-1.7-0.8-3.3-1.5-4.8c-0.5-0.9-0.9-1.8-1.2-2.8c-0.4-1.3-1.2-2.6-2.1-3.7c-0.1-0.2-0.7-0.3-0.9-0.2
	c-0.8,0.3-1.3,0.9-1.4,1.9c-0.1,0.8,0,1.7-0.3,2.5c-0.9,2.4-1.2,4.9-1.9,7.3c-0.4,1.5-0.6,3.1-1.1,4.6c-0.5,1.3-1,2.6-1.1,4.1
	c-0.1,1.1-0.7,2.2-1.5,3.1c-0.2,0.2-0.3,0.2-0.4,0c-0.7-1.7-1.3-3.5-1.5-5.3c-0.1-1.3-0.2-2.7-0.4-4c-0.2-1.6-0.9-2.8-1.9-3.8
	c-0.7-0.7-1.5-0.7-2.2,0.1c-0.3,0.4-0.6,0.8-0.7,1.3c-0.4,2-1.2,3.8-1.1,5.9c-0.6,1-0.2,2.2-0.6,3.2c-0.5,1.1-0.3,2.3-0.4,3.5
	c-0.1,0.5,0.1,1-0.1,1.3c-0.6,1.3-0.4,2.8-0.5,4.2c-0.1,0.6,0.1,1.3-0.1,1.8c-0.6,1.6-0.4,3.2-0.5,4.8c-0.1,0.6,0,1.3-0.2,1.8
	c-0.3,0.7-0.3,1.3-0.3,2c0,2.2-0.1,4.3-0.1,6.4c0,0.5,0.1,1.1-0.1,1.5c-0.6,1.3-0.4,2.6-0.5,3.8c-0.1,0.3,0.1,0.7-0.1,1
	c-0.6,1-0.3,2-0.4,3c-0.1,0.6-0.1,1.3-0.1,2c-0.1,0.9-1,4.3-1.4,5.1c-0.2,0.3-0.6,0.4-0.8,0.1c-1-1.3-2-2.7-3-4
	c-0.8-1.2-1.8-2.3-3.2-2.8c-0.7-0.3-1.7,0.3-1.7,1c0,1,0,1.9,0.2,2.8c0.1,0.5,0.2,1.1,0.2,1.7c0,1.4,0,2.7,0,4.1
	c0,0.8-0.2,1.7,0.1,2.5c0.5,1.5,0.4,2.9,0.4,4.3c0.1,1.2,0.1,2.4,0,3.6c-0.1,1.1,0.5,2.1,0.5,3.2c0,1.9,0,3.7,0,5.6
	c0,2,0,3.9-0.5,5.8c-0.3,1-0.4,2-0.6,3c-0.2,1.1,0,2.3-0.2,3.3c-0.3,1.3-0.4,2.7-0.5,4c0,0.2-0.2,0.3-0.2,0.5
	c-0.1,0.5-0.2,1-0.2,1.5c0,1.9-0.1,3.7-1,5.4c-0.1,0.3-0.1,0.8,0,1c0.3,0.4,0.4,0.9,0.5,1.4c0.1,0.3,0.5,0.7,0.8,0.9
	c1.1,0.6,2.3,0.7,3.4,1c0.7,0.2,1.3-0.6,1.9-0.7c0.7-0.1,1.3-0.2,2-0.2c1.2,0,2.2-0.4,3-1.2c0.5-0.5,1-1,1.6-1.3
	c1.9-1,3.4-2.5,4.9-4c0.9-0.9,1.8-1.9,2.8-2.7c0.7-0.6,1.3-1.3,1.9-2c1-1.3,1.8-2.8,3.2-3.8c0.7-1.6,2.5-2.2,3.4-3.6
	c1.6-1,2.6-2.5,4.1-3.6c0.4-0.3,0.7-0.8,1-1.2c1.8-2.1,3.2-4.5,5.3-6.4c0.4-0.3,0.7-0.8,0.9-1.2c1.7-3.1,3.5-6.2,4.5-9.6
	c0.1-0.5,0.2-1,0.2-1.5c-0.1-0.8-1.3-1.3-2-0.8c-0.3,0.3-0.6,0.6-0.9,0.9c-1.1,1-2.3,1.8-3.6,2.3c-1.9,0.8-3.8,1.4-5.7,2
	c-0.2,0.1-0.4,0-0.5-0.1c0,0,0.1-0.1,0.1-0.2c0.8-1.3,1.4-2.7,2.3-3.9c0.7-0.9,1.2-2,1.8-3c1.1-1.8,2.1-3.8,3.5-5.5
	c1.2-1.5,2.4-3.1,3.2-4.8c0.9-1.7,2-3.3,2.7-5.1c0-0.1,0.1-0.1,0.1-0.2c0.5-1.5,1.1-3,1.5-4.5s0.7-2.9,1.1-4.4
	c0.5-1.6,0.7-3.2,1.1-4.7C284.8,298.2,284.7,297.1,284.7,296z M270.8,304.5c0.1,0.1,0.1,0.3,0.2,0.4c-0.1,0-0.1,0-0.2-0.1
	C270.8,304.7,270.8,304.6,270.8,304.5z M272.4,310.9c0.1-0.5,0.2-0.8,0.2-1.2c0.1,0,0.1,0,0.2,0
	C272.7,310.1,272.5,310.5,272.4,310.9z M273,316.2c0,0.1,0,0.3,0,0.5c0,0.1-0.1,0.2-0.1,0.3c-0.1,0-0.1,0-0.2,0
	C272.8,316.7,272.9,316.5,273,316.2z M266,274.8c0-0.1,0-0.3,0-0.4s0-0.2,0.1-0.3L266,274.8z M264.1,284.2c-0.1,0-0.2,0-0.3,0
	c0,0,0-0.1,0.1-0.2c0-0.1,0.1-0.3,0.1-0.4C264,283.8,264,284,264.1,284.2z M260.7,290c-0.1,0.1-0.1,0.2-0.2,0.3c-0.2,0-0.4,0-0.5,0
	C260.2,290.2,260.5,290.1,260.7,290z M259.7,303.9c0,0.1-0.1,0.1-0.1,0.1L259.7,303.9C259.6,303.9,259.6,303.9,259.7,303.9z
	 M249.1,312.6c0,0.8-0.1,1.7-0.1,2.5c0-0.2,0-0.3,0-0.5C249,313.9,248.9,313.2,249.1,312.6z M248.6,328.6c0,0.1,0,0.3,0,0.4
	c-0.1-0.2-0.2-0.3-0.3-0.4C248.4,328.6,248.5,328.6,248.6,328.6z M242.3,349.7c0.1-0.1,0.1-0.2,0.1-0.3c0.7-2.5,2-13.6,2-14.1
	c0.2-0.5,0.4-1,0.6-1.5c0.2,0,0.4,0,0.5,0c0.3,0.7,1.4,0.8,1.8,0.2c0.2,0.2,0.4,0.3,0.6,0.4c0.4,0.3,0.8,0.6,1.1,0.9
	c0.6,0.4,1.5,0.4,1.7-0.5c0.7-2.7,1-5.4,1.1-8.2c0-0.1,0-0.3-0.1-0.4c0-0.2,0.1-0.5,0.1-0.7c0.3-0.2,0.5-0.5,0.6-0.8
	c0.2-3,0.5-6.1,1-9.1c0.5-2.2,0.9-4.3,1.2-6.5c0.1-0.4-0.1-0.7-0.3-0.9c0.4-0.6,0.7-1.2,0.9-2c0-0.2,0-0.4,0-0.6
	c0-0.1,0.1-0.2,0.2-0.3c0.1-0.2,0.2-0.5,0.1-0.7c0.1-0.1,0.2-0.2,0.2-0.3c0.3-0.5,0.5-1,0.7-1.6c0.6,3,1.3,6,1.9,9
	c0.2,0.8,1.5,1,1.9,0.2c0.9-1.6,1.6-3.3,2.2-5c0.5-1.2,1-2.4,1.5-3.6c0.4,0.1,1,0,1.2-0.5c0,0.4,0,0.8,0.1,1.2
	c0,0.3,0.2,0.6,0.4,0.7c0.3,0.7,0.3,1,0.2,1.4c-0.1,1.3-0.2,2.6-0.2,3.9c-1.1,3.7-2.1,7.5-3,11.3c-0.2,0.5-0.3,1.1-0.5,1.6
	c-0.2,0.1-0.4,0.3-0.5,0.5c-1.4,3.9-2.6,7.8-3.7,11.7c-0.4,1.2-0.7,2.5-1,3.8c-0.1,0.5-0.3,1.1-0.4,1.7c0,0.2,0,0.4,0,0.6
	c-0.1,0.6-0.2,1.2-0.2,1.7c-0.1,0.7,0.7,1.1,1.3,1c2.4-0.5,4.7-1.4,6.8-2.6c0,0.1,0.1,0.2,0.1,0.2c0.5,0.6-0.7,2.6-1,3.1
	c-0.5,1.1-1.2,2.2-1.9,3.2c-0.2,0.3-0.2,0.6-0.1,0.9c0,0,0,0.1-0.1,0.1l-0.3,0.3c-0.3-0.2-0.8-0.2-1.2,0.1c-2.5,2.1-4.7,4.4-6.7,6.9
	c-0.1,0.1-0.1,0.1-0.2,0.2c-0.1,0.1-0.2,0.3-0.3,0.4c-0.3,0.3-0.5,0.7-0.8,1c-0.1,0.2-0.2,0.3-0.2,0.5c-2.3,1.8-4.6,3.7-6.5,5.9
	c-1.3,0.8-2.4,1.8-3.3,3.1c-0.2,0.2-0.5,0.4-0.8,0.6c0.2-2,0.2-4-0.1-6.1c0-0.2-0.1-2.5-0.1-2.5
	C241.3,359.2,242.3,352.7,242.3,349.7z M247.1,324.8c0.1-0.2,0.1-0.3,0.2-0.5C247.3,324.5,247.3,324.7,247.1,324.8
	C247.2,324.9,247.1,324.8,247.1,324.8z M267.1,348.3L267.1,348.3c-0.1,0.2-0.2,0.3-0.3,0.5C266.9,348.6,267,348.5,267.1,348.3z
	 M264.8,337.7c-0.1,0-0.1,0-0.2-0.1c0,0,0,0,0-0.1C264.7,337.6,264.7,337.6,264.8,337.7z M267.8,269.3c0.1,0.1,0.1,0.3,0.2,0.4
	l-0.1-0.1C267.9,269.6,267.9,269.4,267.8,269.3z M280.9,300.2L280.9,300.2L280.9,300.2L280.9,300.2z M281.9,299.5
	c0,0,0.1,0.1,0.1,0.2c0,0,0,0,0,0.1c-0.2-0.1-0.3-0.1-0.5-0.1c0.1-0.1,0.1-0.1,0.2-0.2C281.8,299.5,281.9,299.5,281.9,299.5z
	 M276.7,304.3c-1,0.4-3.3,1.2-3.5,1.2C273.2,305.5,276.7,304.2,276.7,304.3z M241.4,324.3c-0.2-0.1-0.3-0.1-0.5-0.2
	c0-0.2,0-0.3-0.1-0.5C241,323.8,241.2,324,241.4,324.3z M238.9,321.3c-0.1,0.1-0.1,0.2-0.2,0.3C238.8,321.5,238.8,321.4,238.9,321.3
	L238.9,321.3z"/>
<g>
	<path class="st1" d="M105.9,115c0.6,0,1.2,0,1.8,0c1.2,0,2.1,0.5,2.9,1.3c0.2,0.2,0.4,0.5,0.1,0.9c-1,1.1-2.1,2.2-3.5,2.9
		c-1.4,0.8-2.9,1.4-4.1,2.5c-0.3,0.3-0.7,0.4-1.1,0.5c-1,0.5-2,1-3,1.3c-1,0.4-2.2,0.4-3.1,0.9c-1.4,0.6-2.9,0.9-4.3,1.3
		c-0.2,0-0.3,0.1-0.5,0.2c-1,0.3-2,0.9-3,1.2s-2.1,0.5-3.1,0.8c-1.7,0.5-3.2,1.5-4.6,2.5c-1.7,1.1-3.5,2-5.5,2.4
		c-0.9,0.2-1.5-0.5-1.3-1.4s0.4-1.5,1.3-2c0.8-0.4,1.4-1.1,1.9-2c1.8-2.8,3.6-5.5,5.5-8.2c0.2-0.4,0.5-0.7,0.6-1.1
		c0.8-2.8,2.6-5.1,4.2-7.5c0.2-0.3,0.4-0.5,0.6-0.8c1.9-3.4,3.7-6.8,5.6-10.2c0.9-1.7,1.4-3.6,1.8-5.5c0.3-1.6,0.8-3.1,1.4-4.6
		c0.6-1.6,1.4-3.2,1.9-4.9c0.3-0.9,1.4-1.2,2.3-0.3c0.6,0.6,0.9,1.4,1.2,2.2c0.2,0.5,0.3,1.1,0.6,1.6c0.6,1,1,2.1,1,3.4
		c0,0.1,0.2,0.4,0.3,0.4c0.2-0.1,0.4-0.2,0.6-0.3c0.1,0,0-0.2,0.1-0.2c0.3-1,0.6-1.9,0.8-2.9c0.6-2.2,1.6-4.2,2.5-6.3
		c0.4-1,0.9-2,1.6-2.8c1.4-1.6,2.4-3.6,4.4-4.8c0.8-1.6,2.6-2.1,3.7-3.4c0.3-0.3,0.7-0.4,1.1-0.6c0.1,0,0.3,0,0.4,0
		c0.9,0.6,1.2,1.3,0.8,2.1c-1.9,4-3.2,8.3-4.6,12.5c-0.4,1.4-0.6,2.8-1,4.1c-0.2,0.9-0.4,1.8-0.5,2.7c-0.1,0.5,0.3,0.7,0.8,0.5
		c0.3-0.1,0.6-0.2,0.9-0.4c2.5-1.8,5.4-2.7,8.3-3.5c0.2-0.1,0.5-0.3,0.7-0.3c1.2,0,2.3-0.3,3.4-0.9c0.7-0.4,2,0.5,2.1,1.3
		c0,0.1,0,0.4-0.1,0.5c-0.3,0.4-0.7,0.9-1.1,1c-1.6,0.4-2.5,1.6-3.8,2.4c-0.9,0.5-1.6,1.2-2.4,1.9c-0.7,0.6-1.1,1.5-1.9,1.9
		c-0.3,0.2-0.6,0.6-0.8,0.9c-0.6,0.6-1,1.4-1.7,1.8c-1,0.6-1.8,1.5-2.7,2.3c-1.9,1.7-3.9,3.2-6.1,4.4c-0.4,0.2-0.8,0.4-1.1,0.7
		c-2.1,2-4.1,4-6.2,6.1c-0.1,0.1-0.1,0.1-0.1,0.2c0,0.2,0.1,0.6,0.2,0.6c0.7,0.2,1.4,0.5,2.2,0.6C104.5,115,105.2,114.9,105.9,115
		L105.9,115z M80,128.9c1.7-1.4,3.7-2.3,5.9-2.6c0.1,0,0.1-0.1,0.2-0.1c1.1-0.1,2-0.8,3.1-1.1c1.4-0.5,2.9-0.8,4.4-1.2
		c2.8-0.8,5.6-1.9,8.2-3.1c1.8-0.8,3.3-2,4.8-3.2c0.1-0.1,0.1-0.2,0.1-0.4c0,0-0.1-0.1-0.2-0.1c-2.2,0-4.4-0.1-6.6-0.1
		c-1.2,0-1.6-0.5-1.7-1.7c0-0.7,0.2-1.3,0.8-1.8c0.6-0.6,1.2-1.2,1.7-1.9c1.8-2.2,5.3-5.7,7.4-6.8c2.7-1.4,5-3.5,7.3-5.5
		c2.5-2.2,4.9-4.7,7.3-7.1c0.2-0.2,0.2-0.3,0-0.4c-0.1,0-0.2,0-0.2,0c-1.2,0.5-2.6,0.8-3.7,1.5s-2.4,1.2-3.5,1.9
		c-0.9,0.5-1.8,1-2.7,1.4c-0.8,0.4-1.8-0.2-1.8-1.2c0-0.5-0.1-1.1,0.1-1.5c0.4-0.8,0.4-1.6,0.5-2.5c0-0.4,0.1-0.8,0.2-1.2
		c0.7-2.5,1.3-5,2.2-7.4c0.8-2,1.4-4.1,2.1-6.2c0,0-0.1-0.1-0.1-0.2s-0.2-0.1-0.2,0c-0.2,0.1-0.4,0.2-0.6,0.4
		c-2.1,1.5-3,4.1-4.8,5.8c-0.1,0-0.1,0.1-0.1,0.2c-0.8,2.5-2.1,4.8-3,7.2c-0.6,1.5-0.9,3-1.7,4.4c-0.1,1.2-0.9,1.8-1.7,2.4
		c-0.7,0.6-2,0.1-1.9-0.8c0-1.1-0.4-2.1-0.6-3.2c-0.2-1.2-0.6-2.5-1.3-3.5c-0.1-0.1-0.3-0.2-0.4-0.3c-0.1,0.1-0.2,0.2-0.3,0.4
		c-0.3,0.8-0.7,1.5-0.9,2.3c-0.9,3.4-2,6.7-3.3,10c-0.1,0.3-0.2,0.6-0.4,0.9c-1.3,2.3-2.7,4.6-4,7c-1.2,2.1-2.5,4.2-3.8,6.2
		c-0.5,0.9-1.1,1.7-1.5,2.6c-0.2,0.4-0.2,0.8-0.4,1.2c-1.7,2.7-3.1,5.6-5.1,8.1c-0.3,0.4-0.9,1.1-0.7,1.5
		C79.1,129.2,79.8,129,80,128.9z"/>
</g>
<g>
	<path class="st1" d="M266.7,304.8c-0.2,1.4-0.3,2.9-0.8,4.4c-0.5,1.7-0.7,3.4-1.2,5.1c-0.6,1.6-0.9,3.2-1.2,4.9
		c-0.1,0.3-0.1,0.7-0.2,1c-0.9,2.7-1.8,5.4-2.6,8.1c-0.2,0.7-0.4,1.4-0.6,2.2c-0.6,2.4-1.6,4.7-2.2,7.2c-0.4,1.7-0.9,3.4-0.8,5.2
		c0,0.5,0.2,0.7,0.5,0.5c1.1-0.6,2.3-1.1,3.3-1.9c1.2-1,2.5-0.9,3.8-0.8c0.2,0,0.4,0.3,0.5,0.5c0.3,0.6,0.5,1.1,0.1,1.9
		c-1,1.9-2,3.7-3.5,5.2c-0.4,0.3-0.6,0.8-0.9,1.2c-0.3,0.4-0.7,0.8-1.1,1.1c-2,1.5-3.9,3.3-5.4,5.3c-1,1.3-2.2,2.4-3.4,3.4
		c-1.8,1.6-3.3,3.4-5.2,4.8c-1,1.7-2.8,2.7-3.8,4.4c-0.1,0.3-0.5,0.5-0.7,0.7c-0.4,0.3-1.3,0-1.4-0.6c0-0.2-0.1-0.4,0-0.5
		c0.7-1.2,0.3-2.5,0.5-3.7s0.5-2.5,0.8-3.7c0.1-0.3,0.2-0.6,0.2-1c0.2-1.4,0-2.8,0.4-4.3c0.4-1.4,0.2-2.9,0.3-4.3
		c0-1.2,0.2-2.3,0.5-3.5c0.2-1,0-2.2,0.5-3.2c0.1-1.8,0.9-3.4,0.7-5.2c-0.2-1.6,0.3-3.2,0.9-4.7c0.2-0.5,0-1.1,0.6-1.3
		c0.7-0.2,1.5-0.2,2.2,0.3s1.3,1,2,1.5c0.4,0.3,0.8,0.1,0.9-0.4c0.2-1.3,0.6-2.6,0.7-4c0-1,0.5-1.9,0.5-3c-0.1-0.9,0.2-1.8,0.5-2.7
		c0.2-0.5,0.1-1.2,0.1-1.8c0-0.8-0.1-1.7,0.4-2.5c0.2-0.3,0.1-0.8,0.1-1.2c0.1-1.2-0.1-2.4,0.5-3.5c0.1-0.1,0-0.3,0-0.5
		c-0.1-2,0.7-4,0.6-6c0-0.7,0.4-1.5,0.5-2.2s0-1.5,0.4-2.2c0.2-0.3,0.2-0.8,0.2-1.2c0-0.7,0.3-1.1,0.6-1.7c0.3-0.5,0.6-0.5,1-0.3
		c1.4,1,1.9,2.4,2,3.9c0.1,1.7,0.8,3.3,0.6,5c0,0.4,0.3,0.8,0.4,1.2c0,0.1,0.3,0.1,0.3,0.1c0.8-1.5,1.5-3,2.2-4.5
		c0.7-1.6,1.4-3.2,2.1-4.8c0.1-0.2,0.2-0.4,0.4-0.6c0.3-0.3,0.8-0.5,1.1-0.3c0.4,0.2,0.8,0.5,0.9,0.8
		C266.7,303.3,266.6,304,266.7,304.8z M243.9,363.2c0.9-1.3,1.7-2.2,2.8-2.9c1.4-1,2.6-2.2,3.8-3.4c1.1-1.2,2.2-2.3,3.3-3.5
		c1.3-1.5,2.7-3.1,4.5-4.1c0.4-0.2,0.7-0.5,0.9-0.9c0.6-1,1.4-1.7,2.1-2.5c0.5-0.6,0.9-1.2,1.2-1.9c0.1-0.1,0-0.3-0.1-0.4
		c0,0-0.1,0-0.2,0c-0.7,0.3-1.4,0.4-2.1,0.9c-1,0.9-2.3,1.5-3.6,1.8c-1.3,0.3-2.2-0.3-2.1-1.7c0-1.1-0.2-2.2,0.5-3.2
		c-0.1-1.9,0.6-3.6,1.1-5.4c0.3-1.2,0.7-2.4,1-3.6c0.6-2.1,1.5-4.1,2.2-6.2c0.8-2.2,1.3-4.5,2.2-6.7c0.5-1.3,0.4-2.8,1-4.1
		c0.5-1,0.5-2.1,0.5-3.2c0-0.1-0.2-0.2-0.3-0.3l-0.2,0.1c-0.4,0.7-0.7,1.3-1.1,2c-0.5,0.9-1.1,1.7-1.7,2.5c-0.1,0.2-0.7,0.3-0.9,0.2
		c-0.8-0.3-1.4-0.8-1.4-1.7c0-1.7-0.7-3.3-0.5-5c0-0.1,0-0.2,0-0.2c0-0.1,0-0.2,0-0.2c-0.1-0.1-0.2-0.2-0.3-0.3
		c-0.1-0.1-0.5,0.1-0.6,0.4c-0.3,1.8,0.1,3.7-0.6,5.5c0,1-0.3,2-0.5,3c-0.2,1.1-0.1,2.2-0.1,3.3c0,0.2,0,0.5-0.1,0.7
		c-0.5,0.7-0.3,1.5-0.4,2.2c0,0.5,0.1,1.1-0.1,1.5c-0.7,1.7-0.4,3.5-0.9,5.2c-0.4,1.3-0.4,2.7-0.7,4s-0.8,2.6-2,3.4
		c-0.5,0.3-1.2,0.3-1.6-0.1c-0.4-0.4-0.7-0.7-1-1.2s-0.7-0.5-1-0.7s-0.5,0-0.5,0.2c0.1,1-0.5,2-0.5,3c-0.1,1.1-0.2,2.2-0.5,3.2
		c-0.2,0.9-0.5,1.8-0.6,2.7c-0.2,2.1-0.8,4.2-0.6,6.3c0,0.6,0.1,1.2-0.1,1.8c-0.6,1.8-0.4,3.7-0.5,5.5c0,0.6,0,1.2-0.2,1.8
		c-0.4,0.9-0.9,2.8-0.6,3.2C242.9,363.7,243.8,363.3,243.9,363.2z"/>
</g>
<path class="st4" d="M15.4,393.8c-1.1,0-1.1,1.6,0,1.6S16.5,393.8,15.4,393.8z"/>
<path class="st4" d="M26.4,392.9H26c-0.2,0-0.4,0.1-0.6,0.2c-0.1,0.1-0.2,0.4-0.2,0.6c0,0.4,0.4,0.8,0.8,0.8h0.4
	c0.2,0,0.4-0.1,0.6-0.2c0.1-0.1,0.2-0.4,0.2-0.6C27.2,393.3,26.9,392.9,26.4,392.9z"/>
<path class="st4" d="M38.3,393.8c-1.1,0-1.1,1.6,0,1.6S39.3,393.8,38.3,393.8z"/>
<path class="st4" d="M51.9,392.9c-1.1,0-1.1,1.6,0,1.6C52.9,394.5,52.9,392.9,51.9,392.9z"/>
<path class="st4" d="M64.1,393.3c-1,0-1,1.6,0,1.6C65.2,395,65.2,393.3,64.1,393.3z"/>
<path class="st4" d="M75.6,393.3h-0.9c-0.4,0-0.8,0.4-0.8,0.8s0.4,0.8,0.8,0.8h0.9c0.4,0,0.8-0.4,0.8-0.8
	C76.4,393.7,76,393.3,75.6,393.3z"/>
<path class="st4" d="M85.8,393.3c-1.1,0-1.1,1.6,0,1.6C86.8,395,86.8,393.3,85.8,393.3z"/>
<path class="st4" d="M97.6,392.9c-1.1,0-1.1,1.6,0,1.6S98.7,392.9,97.6,392.9z"/>
<path class="st4" d="M108.6,392.9c-1.1,0-1.1,1.6,0,1.6S109.7,392.9,108.6,392.9z"/>
<path class="st4" d="M120.5,392.9c-1.1,0-1.1,1.6,0,1.6S121.6,392.9,120.5,392.9z"/>
<path class="st4" d="M133.2,393.3c-1,0-1,1.6,0,1.6C134.3,395,134.3,393.3,133.2,393.3z"/>
<path class="st4" d="M144.8,394c-0.1-0.1-0.3-0.3-0.4-0.4c-0.1-0.2-0.4-0.2-0.6-0.2c-0.2,0-0.4,0.1-0.6,0.2
	c-0.1,0.2-0.2,0.4-0.2,0.6s0.1,0.4,0.2,0.6c0.1,0.1,0.3,0.3,0.4,0.4c0.1,0.2,0.4,0.2,0.6,0.2c0.2,0,0.4-0.1,0.6-0.2
	c0.1-0.2,0.2-0.4,0.2-0.6C145.1,394.4,145,394.2,144.8,394z"/>
<path class="st4" d="M157.4,392.9c-1,0-1,1.6,0,1.6S158.4,392.9,157.4,392.9z"/>
<path class="st4" d="M172.2,392.1h-0.4c-0.2,0-0.4,0.1-0.6,0.2c-0.1,0.1-0.2,0.4-0.2,0.6c0,0.4,0.4,0.8,0.8,0.8h0.4
	c0.2,0,0.4-0.1,0.6-0.2c0.1-0.1,0.2-0.4,0.2-0.6C173,392.4,172.7,392.1,172.2,392.1z"/>
<path class="st4" d="M187.2,392.7c-0.1-0.1-0.4-0.2-0.6-0.2c-0.4,0-0.8,0.4-0.8,0.8v0.4c0,0.2,0.1,0.4,0.2,0.6
	c0.1,0.1,0.4,0.2,0.6,0.2c0.4,0,0.8-0.4,0.8-0.8v-0.4C187.4,393.1,187.4,392.9,187.2,392.7z"/>
<path class="st4" d="M201.5,392.1c-1,0-1,1.6,0,1.6S202.5,392.1,201.5,392.1z"/>
<path class="st4" d="M217.1,392.9c-1,0-1,1.6,0,1.6S218.2,392.9,217.1,392.9z"/>
<path class="st4" d="M229.9,392.9c-1,0-1,1.6,0,1.6S230.9,392.9,229.9,392.9z"/>
<path class="st4" d="M248.1,393.3c-1,0-1,1.6,0,1.6C249.1,395,249.1,393.3,248.1,393.3z"/>
<path class="st4" d="M261.2,393.3c-1,0-1,1.6,0,1.6C262.3,395,262.3,393.3,261.2,393.3z"/>
<path class="st4" d="M275.2,392.5c-1,0-1,1.6,0,1.6S276.3,392.5,275.2,392.5z"/>
<path class="st4" d="M288.8,392.9c-1,0-1,1.6,0,1.6S289.8,392.9,288.8,392.9z"/>
<path class="st4" d="M300.5,392.1c-1,0-1,1.6,0,1.6S301.6,392.1,300.5,392.1z"/>
<path class="st4" d="M300.5,383.1c-1,0-1,1.6,0,1.6C301.6,384.7,301.6,383.1,300.5,383.1z"/>
<path class="st4" d="M301.5,369.8c-0.1-0.1-0.4-0.2-0.6-0.2c-0.4,0-0.8,0.4-0.8,0.8v0.4c0,0.2,0.1,0.4,0.2,0.6
	c0.1,0.1,0.4,0.2,0.6,0.2c0.4,0,0.8-0.4,0.8-0.8v-0.4C301.8,370.1,301.7,369.9,301.5,369.8z"/>
<path class="st4" d="M300.5,354.7c-1,0-1,1.6,0,1.6S301.6,354.7,300.5,354.7z"/>
<path class="st4" d="M301.4,342.8c-1,0-1,1.6,0,1.6C302.4,344.5,302.4,342.8,301.4,342.8z"/>
<path class="st4" d="M300.5,329.3c-0.4,0-0.8,0.4-0.8,0.8v0.8c0,0.4,0.4,0.8,0.8,0.8s0.8-0.4,0.8-0.8v-0.8
	C301.4,329.7,301,329.3,300.5,329.3z"/>
<path class="st4" d="M298.8,314.4c-1,0-1,1.6,0,1.6C299.9,316.1,299.9,314.4,298.8,314.4z"/>
<path class="st4" d="M299.3,298.8c-1,0-1,1.6,0,1.6S300.3,298.8,299.3,298.8z"/>
<path class="st4" d="M299.7,285.2c-1,0-1,1.6,0,1.6S300.7,285.2,299.7,285.2z"/>
<path class="st4" d="M299.7,272.1c-1,0-1,1.6,0,1.6S300.7,272.1,299.7,272.1z"/>
<path class="st4" d="M299.3,259.4c-1,0-1,1.6,0,1.6S300.3,259.4,299.3,259.4z"/>
<path class="st4" d="M299.4,244.3c-0.1-0.1-0.4-0.2-0.6-0.2c-0.4,0-0.8,0.4-0.8,0.8v0.4c0,0.2,0.1,0.4,0.2,0.6
	c0.1,0.1,0.4,0.2,0.6,0.2c0.4,0,0.8-0.4,0.8-0.8v-0.4C299.7,244.7,299.6,244.5,299.4,244.3z"/>
<path class="st4" d="M299.4,231.6c-0.1-0.1-0.4-0.2-0.6-0.2c-0.4,0-0.8,0.4-0.8,0.8v0.4c0,0.2,0.1,0.4,0.2,0.6
	c0.1,0.1,0.4,0.2,0.6,0.2c0.4,0,0.8-0.4,0.8-0.8v-0.4C299.7,232,299.6,231.8,299.4,231.6z"/>
<path class="st4" d="M298.4,217.4c-1,0-1,1.6,0,1.6C299.5,219,299.5,217.4,298.4,217.4z"/>
<path class="st4" d="M298.4,203.8c-1,0-1,1.6,0,1.6C299.5,205.5,299.5,203.8,298.4,203.8z"/>
<path class="st4" d="M298.8,192.4c-1,0-1,1.6,0,1.6C299.9,194,299.9,192.4,298.8,192.4z"/>
<path class="st4" d="M298.8,179.7c-1,0-1,1.6,0,1.6C299.9,181.3,299.9,179.7,298.8,179.7z"/>
<path class="st4" d="M298.8,167c-1,0-1,1.6,0,1.6C299.9,168.6,299.9,167,298.8,167z"/>
<path class="st4" d="M298.4,152.1c-1,0-1,1.6,0,1.6C299.5,153.8,299.5,152.1,298.4,152.1z"/>
<path class="st4" d="M299.4,136.3c-0.1-0.1-0.4-0.2-0.6-0.2c-0.4,0-0.8,0.4-0.8,0.8v0.4c0,0.2,0.1,0.4,0.2,0.6
	c0.1,0.1,0.4,0.2,0.6,0.2c0.4,0,0.8-0.4,0.8-0.8v-0.4C299.7,136.6,299.6,136.4,299.4,136.3z"/>
<path class="st4" d="M298.4,121.6H298c-0.2,0-0.4,0.1-0.6,0.2c-0.1,0.1-0.2,0.4-0.2,0.6c0,0.4,0.4,0.8,0.8,0.8h0.4
	c0.2,0,0.4-0.1,0.6-0.2c0.1-0.1,0.2-0.4,0.2-0.6C299.2,122,298.9,121.6,298.4,121.6z"/>
<path class="st4" d="M298.8,109.7c-1,0-1,1.6,0,1.6C299.9,111.4,299.9,109.7,298.8,109.7z"/>
<path class="st4" d="M298.8,96.6c-1,0-1,1.6,0,1.6C299.9,98.2,299.9,96.6,298.8,96.6z"/>
<path class="st4" d="M297.6,82.6c-1,0-1,1.6,0,1.6C298.6,84.3,298.6,82.6,297.6,82.6z"/>
<path class="st4" d="M298.8,66.5c-1,0-1,1.6,0,1.6C299.9,68.1,299.9,66.5,298.8,66.5z"/>
<path class="st4" d="M298.4,56.7c-1,0-1,1.6,0,1.6C299.5,58.3,299.5,56.7,298.4,56.7z"/>
<path class="st4" d="M298.8,42.2c-1,0-1,1.6,0,1.6C299.9,43.8,299.9,42.2,298.8,42.2z"/>
<path class="st4" d="M298.2,28.9c-1,0-1,1.6,0,1.6S299.3,28.9,298.2,28.9z"/>
<path class="st4" d="M250.4,14.8c-0.1-0.1-0.4-0.2-0.6-0.2c-0.4,0-0.8,0.4-0.8,0.8v0.4c0,0.2,0.1,0.4,0.2,0.6
	c0.1,0.1,0.4,0.2,0.6,0.2c0.4,0,0.8-0.4,0.8-0.8v-0.4C250.6,15.2,250.5,15,250.4,14.8z"/>
<path class="st4" d="M236.2,14.4c-1,0-1,1.6,0,1.6S237.3,14.4,236.2,14.4z"/>
<path class="st4" d="M277.1,15.4c-0.1-0.1-0.4-0.2-0.6-0.2c-0.4,0-0.8,0.4-0.8,0.8v0.4c0,0.2,0.1,0.4,0.2,0.6
	c0.1,0.1,0.4,0.2,0.6,0.2c0.4,0,0.8-0.4,0.8-0.8V16C277.3,15.7,277.2,15.5,277.1,15.4z"/>
<path class="st4" d="M297.4,15.4c-0.1-0.1-0.4-0.2-0.6-0.2c-0.4,0-0.8,0.4-0.8,0.8v0.4c0,0.2,0.1,0.4,0.2,0.6
	c0.1,0.1,0.4,0.2,0.6,0.2c0.4,0,0.8-0.4,0.8-0.8V16C297.6,15.7,297.5,15.5,297.4,15.4z"/>
<path class="st4" d="M262.9,14.9c-1,0-1,1.6,0,1.6S264,14.9,262.9,14.9z"/>
<path class="st4" d="M223.1,14c-1,0-1,1.6,0,1.6S224.1,14,223.1,14z"/>
<path class="st4" d="M211.2,14.4c-1,0-1,1.6,0,1.6S212.3,14.4,211.2,14.4z"/>
<path class="st4" d="M198.9,14.4c-1,0-1,1.6,0,1.6C200,16,200,14.4,198.9,14.4z"/>
<path class="st4" d="M185.8,15.2c-1,0-1,1.6,0,1.6C186.8,16.9,186.8,15.2,185.8,15.2z"/>
<path class="st4" d="M171.4,14.4c-1,0-1,1.6,0,1.6S172.4,14.4,171.4,14.4z"/>
<path class="st4" d="M156.5,14.8c-1,0-1,1.6,0,1.6S157.6,14.8,156.5,14.8z"/>
<path class="st4" d="M143.8,14.4c-1,0-1,1.6,0,1.6C144.9,16,144.9,14.4,143.8,14.4z"/>
<path class="st4" d="M129.8,14.4c-1,0-1,1.6,0,1.6S130.9,14.4,129.8,14.4z"/>
<path class="st4" d="M115.4,14.4c-1.1,0-1.1,1.6,0,1.6S116.5,14.4,115.4,14.4z"/>
<path class="st4" d="M101.2,14.2c-0.1-0.1-0.4-0.2-0.6-0.2c-0.4,0-0.8,0.4-0.8,0.8v0.4c0,0.2,0.1,0.4,0.2,0.6
	c0.1,0.1,0.4,0.2,0.6,0.2c0.4,0,0.8-0.4,0.8-0.8v-0.4C101.4,14.6,101.3,14.4,101.2,14.2z"/>
<path class="st4" d="M83.2,14c-1.1,0-1.1,1.6,0,1.6C84.3,15.6,84.3,14,83.2,14z"/>
<path class="st4" d="M64.6,14.8c-1,0-1,1.6,0,1.6S65.6,14.8,64.6,14.8z"/>
<path class="st4" d="M48.6,14.6c-0.1-0.1-0.4-0.2-0.6-0.2c-0.4,0-0.8,0.4-0.8,0.8v0.4c0,0.2,0.1,0.4,0.2,0.6
	c0.1,0.1,0.4,0.2,0.6,0.2c0.4,0,0.8-0.4,0.8-0.8v-0.4C48.9,15,48.8,14.8,48.6,14.6z"/>
<path class="st4" d="M32.8,14.8h-0.4c-0.2,0-0.4,0.1-0.6,0.2c-0.1,0.1-0.2,0.4-0.2,0.6c0,0.4,0.4,0.8,0.8,0.8h0.4
	c0.2,0,0.4-0.1,0.6-0.2c0.1-0.1,0.2-0.4,0.2-0.6C33.6,15.2,33.2,14.8,32.8,14.8z"/>
<path class="st4" d="M20.5,15.7c-1.1,0-1.1,1.6,0,1.6C21.5,17.3,21.5,15.7,20.5,15.7z"/>
<path class="st4" d="M17.5,28.8c-1.1,0-1.1,1.6,0,1.6S18.6,28.8,17.5,28.8z"/>
<path class="st4" d="M17.1,50.4c-1.1,0-1.1,1.6,0,1.6S18.2,50.4,17.1,50.4z"/>
<path class="st4" d="M16.3,67.4c-1.1,0-1.1,1.6,0,1.6C17.3,69,17.3,67.4,16.3,67.4z"/>
<path class="st4" d="M15.8,85.2c-1.1,0-1.1,1.6,0,1.6S16.9,85.2,15.8,85.2z"/>
<path class="st4" d="M15.8,100.8c-1.1,0-1.1,1.6,0,1.6S16.9,100.8,15.8,100.8z"/>
<path class="st4" d="M15.8,117.8c-1.1,0-1.1,1.6,0,1.6S16.9,117.8,15.8,117.8z"/>
<path class="st4" d="M15.4,134.8c-1.1,0-1.1,1.6,0,1.6S16.5,134.8,15.4,134.8z"/>
<path class="st4" d="M15,153c-1.1,0-1.1,1.6,0,1.6S16,153,15,153z"/>
<path class="st4" d="M15,171.6c-1.1,0-1.1,1.6,0,1.6S16,171.6,15,171.6z"/>
<path class="st4" d="M13.7,192.8c-1.1,0-1.1,1.6,0,1.6C14.8,194.4,14.8,192.8,13.7,192.8z"/>
<path class="st4" d="M13.3,211c-1.1,0-1.1,1.6,0,1.6S14.3,211,13.3,211z"/>
<path class="st4" d="M13.7,233.5c-1.1,0-1.1,1.6,0,1.6S14.8,233.5,13.7,233.5z"/>
<path class="st4" d="M14.1,256.4c-0.4,0-0.8,0.4-0.8,0.8v0.9c0,0.4,0.4,0.8,0.8,0.8s0.8-0.4,0.8-0.8v-0.9
	C15,256.8,14.6,256.4,14.1,256.4z"/>
<path class="st4" d="M13.3,279.3h-0.4c-0.2,0-0.4,0.1-0.6,0.2c-0.1,0.1-0.2,0.4-0.2,0.6c0,0.4,0.4,0.8,0.8,0.8h0.4
	c0.2,0,0.4-0.1,0.6-0.2c0.1-0.1,0.2-0.4,0.2-0.6C14.1,279.6,13.8,279.3,13.3,279.3z"/>
<path class="st4" d="M13.3,297.9c-1.1,0-1.1,1.6,0,1.6S14.3,297.9,13.3,297.9z"/>
<path class="st4" d="M12.9,322.5c-1.1,0-1.1,1.6,0,1.6S13.9,322.5,12.9,322.5z"/>
<path class="st4" d="M12.9,343.7c-1.1,0-1.1,1.6,0,1.6S13.9,343.7,12.9,343.7z"/>
<path class="st4" d="M11.6,365.3c-1.1,0-1.1,1.6,0,1.6S12.6,365.3,11.6,365.3z"/>
<path class="st4" d="M12,385.2c-1.1,0-1.1,1.6,0,1.6C13.1,386.8,13.1,385.2,12,385.2z"/>
<path class="st4" d="M13.3,376.3c-1.1,0-1.1,1.6,0,1.6C14.3,377.9,14.3,376.3,13.3,376.3z"/>
</svg>
