<?xml version="1.0" encoding="UTF-8"?>
<svg id="Layer_1" data-name="Layer 1" xmlns="http://www.w3.org/2000/svg" viewBox="0 0 312.8 409.6">
  <defs>
    <style>
      .cls-1 {
        fill: #eae1c8;
      }

      .cls-2 {
        fill: #f47d51;
      }

      .cls-3 {
        fill: #f6b21a;
      }

      .cls-4 {
        fill: #ea7bb1;
      }

      .cls-5 {
        fill: #d44241;
      }

      .cls-6 {
        fill: #4193c7;
      }

      .cls-7 {
        fill: #873a96;
      }
    </style>
  </defs>
  <path class="cls-4" d="M304.7,396.3c.1-.4,0-.9,0-1.3,0-5.3,.1-10.7,.1-16,0-.6,.2-1.4-.1-1.9-.4-.8,.3-1.4,0-2-.6-1.2-.4-2.5-.4-3.7,0-6,.1-12.1,.1-18.2,0-.5,.1-1.2-.1-1.6-.5-1-.3-1.9-.3-2.9v-12.7c0-.6,.1-1.3-.1-1.9-.3-.7-.3-1.4-.3-2.1,0-5,.1-9.9,0-14.9,0-1.7,.2-3.4-.2-5,.1-.8,.1-1.7,.1-2.5v-.4c0-1-.1-1.9-.1-2.9v-11.3c.1-.2,.1-.3,.1-.6l-.1-4.5c0-.1,0-.2-.1-.3v-3.7c0-.1-.1-.2-.1-.3v-3.9h0v-.9l-.1-14.8h0l-1.5-255.8L14.1,8.1l-3.2,203.1c-.2,.5-.3,.9-.4,1.4-.1,.4-.3,.6-.6,.7l-.1,.1c.1,1.2,.3,2.4,.4,3.6h0c.1,.1,.2,.3,.2,.5v3.4c.1,2.5,.1,5,.1,7.5,0,.3-.1,.5-.2,.7-.1,10-.2,20-.3,30.1v.8c.1,.1,.1,.3,.2,.4l-.1,6.9c0,.3-.1,.7-.1,1v13.1c0,1.2,0,2.4-.1,3.5v11.5l-.5,7.6c-.1,4.7-.2,10.2-.2,12.5v1.6c-.1,.3-.3,.6-.4,.9v1.2c0,.5,.2,1,.4,1.5v.6c-.1,.4-.4,.8-.3,1.2,.1,.2,.1,.4,.1,.5,.1,.1,.1,.2,.2,.3v.8c-.1,.1-.1,.3-.2,.4,.3,.9-.5,2,.1,2.9v1.9c0,.1,0,.2-.1,.3-.3,1.1-.4,2.2,0,3.4v2c-.4,1.5-.4,2.9-.1,4.4,.1,.4-.2,.8-.1,1.3,0,.2,.1,.4,.1,.6l-.4,23.1h-.1c-.1,7.6-.2,15.2-.3,22.7l-.3,10.9h.2c0,1,.4,1.8,1.1,2.4,.5,.4,.9-.2,1.5-.2h3.2c.5,0,1.1,.1,1.6-.2,.9-.4,1.8-.3,2.7-.3,3.4,0,6.9,.1,10.3,.1,6.7,.1,13.4,.1,20.1,.2,.7,0,1.5,.1,2.1-.1,.7-.3,1.4-.3,2.1-.3h21.8c1-.7,2.1,.1,3.1,0,.4,0,.7,0,1.1-.1,.8-.2,1.5-.2,2.3-.3,.9-.1,1.8,0,2.7,0,10.8,.1,21.7,.2,32.5,.3,.9,0,1.8-.1,2.6-.3,1.3-.3,2.7-.3,4,.1,.2,.1,.6,.3,.8,.2,1.8-.8,3.8-.3,5.6-.3,9.1,0,18.3,.1,27.4,.2,.6,0,1.3,.1,1.9-.2,.8-.3,1.4,.5,2.1,.1,.8-.5,1.6-.4,2.4-.3,7.5,.1,15,.1,22.5,.2,2.7,0,5.4,.1,8.1,.1,.9,0,1.7-.2,2.6-.1,.9,.1,1.8,.1,2.7,0s1.9,.1,2.9,.2h.5c.4-.1,.7-.2,1.1-.3h3.4c.4,.1,.7,.2,1.1,.3,.2,0,.4,.1,.5,0,.2-.1,.4-.2,.6-.3l34.1,.2h.2c.5,0,1.1,.1,1.6,0,1.9-.7,3.9-.3,5.9-.3,12.3,.1,24.6,.3,36.9,.3,4.9,0,9.9,.5,14.8-.3,.8-.1,1.4-.3,1.7-1.1h0c.2-.4,.5-.8,.7-1.1,.3-.5-.3-.9-.2-1.5Z"/>
  <path class="cls-7" d="M141.8,367c-.1,0-.1,.1-.2,.1s-.1-.1-.2-.2c.1,0,.1-.2,.2-.1s.1,.2,.2,.2Z"/>
  <polygon class="cls-6" points="22.6 19.8 293.2 21.9 295.3 387.4 16.8 387.4 22.6 19.8"/>
  <path class="cls-2" d="M19.1,308.9l1.9-100.2s25.8-62.4,28.9-70c0,0,12.9-39.2,35.5-61.6,0,0,21.8-46.1,42-48.9,0,0,11.6-14.4,56.9,64l24.7,33.6,16.1,28.6,13.6,26.8,18.5,24.7s10.3,15.4,15.3,26.3,22.2,30.1,22.2,30.1l.7,125H16.8l2.3-78.4Z"/>
  <path class="cls-1" d="M293.6,282l-27-37.4c-12.6-12.6-22.2-3.2-22.2-3.2-9.2,1.9-20.8,29.6-20.8,29.6-4.8,3.6-25.5,50-25.5,50l37.8,65.8,59.5,.5-1.8-105.3Z"/>
  <path class="cls-5" d="M18.9,308.9l-2.3,78.5,221.3,1.3-6.5-5.5-53.6-98-47.1-87.2s-21.9-42.9-53.9,2c0,0-27.8,28.8-33.1,52.8l-24.8,56.1Z"/>
  <path class="cls-3" d="M62.8,83.9c-1.3,.5-2.6,1-3.9,1.6-1.7,.4-3.4,.2-5.1,.6,.2-1.3,.4-2.6,.5-3.9,.4-3.3,.8-6.6,.2-10-.1-.5-.8-.9-1.2-.7-.8,.3-1.3,.8-1.9,1.5-.7,.9-1.4,1.9-2.1,2.8l-.6,.8c-.5,.5-.9,1.1-1.2,1.7-.8,1.1-1.6,2.1-2.4,3.2q-.1,.1-.1,.2c-.2,0-.3,.1-.5,.1-.3,.1-.6,.1-.9,.2-1.4-.3-2.8-.9-3.8-1.4-1.8-.9-3.5-2.8-5.7-2.2-.2-.1-.4-.2-.6-.3-1.2-.5-2.2,1.2-1,1.8,2.3,1,4,2.8,5.7,4.6-.1,.2-.1,.5,.1,.8,.9,1.9,2,3.7,3.3,5.3-.5,.7-.9,1.4-1.2,2.2-.1,.1-.2,.2-.3,.3-1.4,1.9-2.3,4.2-3,6.5-.6,1-1.1,2-1.6,3.1-.3,.6-.6,1.3-.8,1.9-.1,.1-.1,.4-.2,.6-.5,.5-.9,1.1-1.3,1.7-.5,.8,.3,1.6,1.1,1.5,1.1-.2,1.6-1.1,1.9-2.1,.1-.1,.3-.3,.4-.4,.4,.3,.9,.4,1.4,0,.7-.7,1.4-1.4,2.1-2,.4,.2,.8,.1,1.1-.1,2-1.8,4-3.7,5.9-5.7,.1,1.4,.6,2.8,1.1,4,.1,.2,.1,.4,.2,.6,.3,.8,.5,1.5,.7,2.3,.4,1.7,.7,3.3,.8,5,.1,1.1,1.4,1.3,1.9,.5,.5,0,.9-.4,.9-1v-1c0-1.6,.3-3.3,.5-4.9,.3-2,.6-4,.9-6,.1-.5-.1-.9-.4-1.1,.1-.3,.2-.6,.4-.9h0c.1,0,.3-.1,.4-.3,1.5-1.8,3.1-3.5,4.8-5.1,1.6-1.6,3.4-2.9,4.7-4.8,.5-.8-.4-1.8-1.2-1.5Zm-11.4,12h0s0-.2-.1-.3v-.2h0c.1,.1,.1,.3,.1,.5Z"/>
  <path class="cls-3" d="M74.4,38c-.6,.2-1.2,.5-1.8,.9-.3-.4-.8-.7-1.4-.4-2.2,1.3-4.5,2.3-6.9,3.2-.3-.3-.8-.4-1.2-.1h-.1l.2-6.7c0-.3-.1-.6-.4-.8l.5-1.6c.1-.2,.1-.4,0-.6,.1-.2,.2-.3,.3-.5,.6-1.1-1.1-2.2-1.8-1-.1,.1-.1,.2-.1,.3-.3,0-.5,.1-.7,.3-.4,0-.8,.4-.8,1v.4c-.3,.5-.6,1-.9,1.5-.8,1.3-1.6,2.5-2.6,3.7-1.3-.1-2.5-.1-3.8,0-.5-.3-1-.6-1.6-.9-.9-.4-2.7-.7-3.8-.2-.2-.1-.4-.3-.6-.4-.2-.6-1.1-.9-1.7-.4l-.2,.2c-.5,.4-.3,1.3,.2,1.6s1,.6,1.5,.9c.2,1,1.2,1.5,2.3,1.9,.6,1.4,1.6,2.3,3,3.1,.3,.2,.6,.4,1,.5l1.1,1c-.1,0-.2,.1-.4,.2-1.6,1.5-3.2,3.1-4.6,4.9-.4,.4-.8,.9-1.1,1.4v.3l-.7,.7c-.8,.8-1.5,1.6-2.1,2.5-.2,.2-.3,.5-.5,.7-.6,.7-1.2,1.3-1.8,2.1-.7,.8,.2,2.3,1.2,1.6,.9-.6,1.6-1.5,2.2-2.4,.1-.1,.3-.3,.4-.5,.1,0,.2,.1,.3,.1,1.2,.2,2.1-.4,3.1-1,.7-.4,1.4-.8,2.1-1.2,.2,0,.4-.1,.6-.1,.4-.1,.6-.3,.7-.6,1.3-.8,2.7-1.7,4-2.6,.4,.3,.9,.6,1.3,.9,.2,.3,.4,.6,.6,.8l1.8,2.1c1.6,2.7,3.4,5.2,5.5,7.6,.5,.6,1.8,.2,1.7-.7-.1-.7-.2-1.4-.4-2.1v-.1c-.3-2.3-.5-4.6-.6-6.9v-1.3c0-.5,0-1.1-.1-1.6v-3c2.7-2.4,5.4-4.7,8.2-6.9,.7-.8-.2-2.2-1.1-1.8Z"/>
  <path class="cls-4" d="M256.2,338.5c1.6-9.5,6.6-18.1,8.3-27.6,.2-1-1.4-1.9-1.9-.8-.4,1-.9,2-1.3,3-.4,0-.9,.2-1,.7-.2,.5-.4,1.1-.6,1.7-.3,.2-.6,.5-.9,.7-.1-.4-.2-.8-.4-1.2-.1-.4-.5-.7-.8-.7,0-.7-.1-1.3-.1-2,0-.3-.2-.6-.4-.7,0-.3,0-.6,.1-.9,.4-.1,.6-.4,.6-.9-.1-.7-.2-1.3-.4-2-.4-1.1-1.9-.9-2,.3-.1,1.2-.1,2.3-.2,3.5,0,.1-.1,.3-.1,.4v.2c-.3,3.8-.8,7.6-1.3,11.3-.1,.5,.1,.8,.4,1-.1,.6-.2,1.2-.3,1.8-.1,.1-.2,.2-.3,.3,0,.1-.1,.2-.1,.2h0c-.2,.6-.5,1.2-.6,1.9v.2c-.1,.4-.2,.8-.4,1.3-.3,1-.5,1.7-.1,2.7,0,.1,.1,.2,.2,.3-.6,1.4-1.1,2.8-1.5,4.2-.8-.2-1.6-.3-2.4-.1-.1,0-.3,0-.4,.1,0-.2,.1-.5,.1-.7,.2-1.3-1.7-1.8-2-.5-.8,4.2-1.7,8.4-2.3,12.6-.2,.2-.3,.4-.3,.7,0,1-.1,2-.2,3.1-.2,1.7-.4,3.4-.5,5.2v.3c-.1,.6-.1,1.2-.2,1.7-.1,.1-.2,.2-.2,.4-.4,1.5-.5,3-.4,4.5,.1,1.1,1.6,1.4,2,.3,.1-.4,.3-.9,.5-1.3,.4,.1,.8,0,1-.5,1.7-2.9,4.5-4.7,7-7,1.1-1.1,2.2-2.2,3-3.6,.1-.1,.1-.2,.2-.4,1.5-1.4,2.8-2.9,4.1-4.5,.9-.9,1.7-1.9,2.5-2.8,.6-.7,.1-2-1-1.7-1.3,.4-2.5,1-3.7,1.6-.3-.2-.7-.3-1.1-.1-.4,.3-.9,.5-1.3,.7,.1-2.1,.2-4.2,.5-6.3,0-.2,.1-.3,.2-.6Zm-4.5,5.6c0-.1-.1-.2-.1-.4,.1,0,.1-.1,.2-.1-.1,.2-.1,.4-.1,.5Z"/>
  <path class="cls-4" d="M122.1,91.2c-.3-.1-.6-.2-1,0-3,1.4-5.9,2.9-8.7,4.6-.2,0-.5-.1-.7-.1-.3,0-.6-.1-.9-.1,0-.1,0-.2-.1-.4,1.2-4.4,2.4-8.9,3.6-13.3,.1-.2,.1-.4,0-.6,.8-1.7,1.6-3.4,2.4-5.1,.5-1-.8-2.2-1.6-1.2-.6,.7-1.2,1.4-1.8,2.1-.2,0-.4,.1-.6,.4-.6,.8-1.2,1.6-1.8,2.5-.6,.8-1.3,1.5-1.9,2.3-.2,.2-.3,.5-.2,.8-1.2,3.3-2.5,6.6-3.7,9.8v.1c-.3,.5-.5,1.1-.8,1.7-.6,.7-1.3,1.4-2,2.1-.1,0-.1,.1-.1,.1-.2-.1-.4-.3-.5-.6-.3-1.4-.6-2.7-1.1-4.1-.1-1-.3-2-.5-3.1-.1-.9-1.6-1-1.9-.2-.4,.1-.7,.4-.7,.9,0,.6,0,1.2-.1,1.9-.2,.1-.4,.3-.4,.6-.2,1.7-.6,3.4-1,5.1-.5,1.2-1.1,2.4-1.6,3.5-.4,.6-.7,1.3-1,1.9-2.3,3.4-4.4,6.9-6.4,10.5-.2,.4-.2,.7,0,1-.3,.5-.7,1-1,1.5-2,2.8-3.9,5.6-5,9-1,1.2-2,2.4-3.1,3.5-.9,.9,.5,2.4,1.4,1.4,.5-.5,.9-1,1.4-1.5,.2,0,.4,0,.6-.1,.5-.2,1-.5,1.4-.8,.2,.5,.8,.8,1.4,.5,1.7-.8,3.4-1.5,5.1-2,.5-.1,.7-.5,.7-.9,1.9-.4,3.8-1,5.7-1.6,1.1-.4,3.1-.8,4.1-1.8,2.6-.8,5-1.9,7.1-3.7,.6-.5,.1-1.8-.7-1.7-1.9,.2-3.7,.3-5.6,.3-.3,0-.6,.1-.7,.4h0c.1-.2,.1-.4,0-.6-.1-.5-.2-1-.3-1.5-.1-.5-.6-.8-1.1-.7,1.1-1.4,2.6-2.6,4.1-3.5,.6-.3,.6-.9,.4-1.3,2.5-2,4.8-4.1,7.2-6.2,2.6-1.9,5.3-3.8,7.9-5.8,.4-.3,.5-.8,.4-1.2,1.4-1.1,2.9-2.2,4.3-3.3,1.2-.4,.3-1.8-.6-1.5Z"/>
  <path class="cls-2" d="M216.8,141.1c.8,1.7,1.4,3.4,2.8,4.8,.4,1.4,1.7,2.3,1.9,3.8,0,.3,.3,.6,.4,.9,.1,.2,.2,.3,.3,.4,.8-.6,1.6-1.2,2.5-1.8-.4-.2-.6-.5-.8-1-1-2.2-2.4-4.2-3.8-6.2-.9-1.2-1.5-2.6-2.2-3.9-.4-.7-.8-1.4-1.2-2.1-1.1-.1-2.2,0-3.3,0,1.3,1.6,2.6,3.2,3.4,5.1Z"/>
  <path class="cls-2" d="M233.1,172.5c.4,.7,.7,1.5,1.1,2.3,.3,.6,.6,1.3,1,1.9,.1-1.4,.3-2.8,.4-4.1,0-.2,.1-.4,.2-.6-1-1.8-2.1-3.6-3.1-5.4-.8,.2-1.6,.5-2.4,.9,0,0,0,.1,.1,.1,.7,1.8,1.7,3.3,2.7,4.9Z"/>
  <path class="cls-5" d="M193.4,312.2c-.8-1.6-1.5-3-2.6-4.5-1.6-2.3-2.5-4.9-4-7.2-1.6-2.6-3-5.3-4.9-7.7-.1-.1-.2-.3-.3-.4-1.1-2.5-2.7-4.7-3.6-7.2-.6-1.6-1.6-3-2.4-4.5-.2-.4-.5-.9-.7-1.3-1.2-3-2.9-5.7-4.4-8.5-1-1.8-1.9-3.5-2.5-5.5-.3-1.1-.9-2.2-1.5-3.2-1.7-2.8-3.1-5.8-4.7-8.7-1.3-2.4-2.6-4.7-3.9-7.1-1-1.7-1.8-3.4-2.5-5.2-.6-1.5-1.3-2.9-2.1-4.3-1.5-2.5-2.7-5.2-4.1-7.9-1-1.9-1.9-3.8-3-5.6-1-1.6-1.7-3.3-2.3-5.1-.6-1.9-1.4-3.6-2.5-5.2-.6-1-1-2.1-1.4-3.2-1.2-4-1.5-4.5-3.8-8.2-.3-.4-.5-.9-.6-1.4-.6-1.5-1.4-2.9-2.5-4.1-1.2-1.2-2.3-2.5-3.3-3.9-1.3-1.8-2.8-3.4-4.6-4.7-.4-.3-.8-.7-1-1.1-.8-1.5-2.1-2.4-3.5-3.2-1.2-.7-2.3-1.4-3.4-2.2-.9-.6-1.7-1.1-2.8-1.1-.5,0-1-.2-1.4-.5-.9-.7-1.9-1.1-3-1.1-.4,0-.8-.3-1.2-.4-.7-.2-1.5-.6-2.2-.5-.7,.2-1.5,.2-2.2,.5-.5,.2-.9,.3-1.5,.4-2.4,.2-4.6,.8-6.8,1.9-2.1,1.1-4.2,2.1-6.1,3.5-1.5,1-2.9,2-4.2,3.2-1,1-2,2.1-3.3,2.8-.2,.1-.4,.3-.6,.5-1.9,2.4-4,4.6-6,6.9-1.1,1.3-1.9,2.8-3,4.1-.7,.9-1.4,1.7-2.2,2.5-1.4,1.5-2.6,3.1-3.8,4.7-.2,.3-.4,.6-.5,.9-1.4,2.7-3.2,5.2-5,7.6-.1,.2-.4,.4-.5,.6-1.4,2.7-3.7,4.8-5,7.6-1.5,1.5-2.3,3.5-3.6,5.2-.4,.5-.7,1-.9,1.5-1.5,3.1-3.3,6.1-5.1,9-.7,1.2-1.2,2.6-1.7,3.9-.6,1.3-1,2.7-1.6,4-1.1,2.3-2,4.6-2.8,7-.5,1.7-1.3,3.3-2,4.9-.6,1.3-1.1,2.6-1.5,4-.2,.7-.4,1.4-.7,2.1-.3,.9-.7,1.7-.9,2.6-.5,2.1-1.2,4.2-2.3,6.1-2.1,3.8-3.6,8-5.8,11.8-1,1.8-1.5,3.7-2.3,5.6-.7,1.7-1.6,3.3-2.2,5.1-.4,1.3-1,2.6-1.5,3.9-.2,1.6-.9,3.2-1.4,4.6v-.1c0-.5-1.3,1.7-2,3.3v1.4c-.1,.3-.3,.6-.4,.9v1.1c0,.5,.2,1,.3,1.5,.2,.7-.5,1.1-.3,1.7,0,.2,0,.3,.1,.5,.3,.5,.2,1-.1,1.4,.3,.9-.5,2,.3,2.9-.1,.7-.1,1.4-.2,2-.3,1.1-.4,2.1,0,3.2,.2,.5,.2,1,.1,1.5-.5,1.5-.5,3-.2,4.5,.1,.4-.2,.8-.1,1.2,0,.4,.3,.8,.3,1.2,0,.6-.2,1.1-.1,1.7,0,.1,.1,.3,.1,.4,.7,0,1.4,.1,2.1,.2,.1-7.7,.2-15.3,.2-23v-2.5c0-.7,.2-1.3,.5-1.9,.9-2.1,1.8-4.2,2.6-6.3,.9-2.1,1.7-4.2,2.6-6.3,.8-1.9,1.4-3.8,2.2-5.6,.7-1.7,1.6-3.3,2.4-5,.9-1.7,1.6-3.5,2.3-5.3,.6-1.7,1.6-3.3,2.6-4.9,.5-.8,.9-1.6,1.1-2.5,.2-1.4,.7-2.8,1.1-4.1,.1-.2,.1-.5,.3-.7,1.3-2.3,1.9-4.9,2.9-7.2,0-.1,0-.2,.1-.2,1.2-2.3,2-4.8,2.7-7.3,.1-.4,.3-.8,.5-1.1,1.1-2,2-4.1,2.6-6.3,.4-1.3,1.1-2.5,1.7-3.6,1.4-2.8,2.8-5.6,4.3-8.3,.6-1.2,1.3-2.4,2.1-3.4,1.3-1.6,2.4-3.3,3.3-5.1,.5-.9,1-1.7,1.7-2.5s1.3-1.8,1.9-2.7c.8-1.3,1.6-2.5,2.6-3.7,.9-1.2,1.8-2.5,2.6-3.8,1.9-3.1,4-6.1,6.5-8.7,1.4-1.4,2.6-3.1,3.8-4.8,1.1-1.6,2.4-3,3.6-4.5,1.9-2.3,4.1-4.3,6.1-6.4,1.3-1.3,2.7-2.3,4.3-3.1,1.3-.8,2.6-1.6,3.9-2.3,1.6-.9,3.3-1.7,5.2-1.9,.9-.1,1.9-.2,2.7-.5,1.5-.6,3-.3,4.5-.4,1.6-.1,2.9,.6,4.4,1.1,2.5,.9,4.8,2,6.9,3.6,.5,.4,1,.6,1.6,.8,.6,.3,1,.8,1.5,1.3,1,1.2,2.1,2.4,3.4,3.5,1,.8,1.9,1.7,2.6,2.7,1,1.4,2.2,2.7,3.3,4.1h-.2s0-.1-.1-.1c-.6-.9-2.3-.3-1.9,.8,0,.1,.1,.2,.1,.2h0c1,2.4,2.7,4.4,4.4,6.4,1.4,2.1,2.6,4.3,3.4,6.6,.2,.7,.9,.8,1.4,.6v.1c.1,.3,.3,.5,.5,.6,.3,.7,.7,1.4,1.1,2,.6,1,1.1,2.1,1.5,3.2,1.1,3.4,2.7,6.5,4.5,9.6,.2,.4,.5,.9,.7,1.3,2.7,5.6,5.8,11,8.4,16.7,.7,1.6,1.7,3.1,2.5,4.6,.4,.7,.9,1.5,1.2,2.2,1.7,3.3,3.4,6.6,5.1,9.9,1.7,3.3,3.2,6.7,4.9,10,.7,1.4,1.5,2.8,2.3,4.2,.9,1.5,1.5,3.2,2.3,4.8,1,1.9,1.8,3.8,3,5.6,.8,1.2,1,2.7,2,3.8,1,2.3,2.7,4.3,4,6.4,1.6,2.7,3.3,5.3,4.9,8,1.1,1.8,2.3,3.5,3.4,5.3,.9,1.5,1.8,3,2.7,4.6s2.9,5.2,3.8,6.8c.4-.8,.5-.9,.6-1,0,0-.9-2.6-1.4-3.7-.5-2.1-1.7-3.8-2.5-5.5Z"/>
  <path class="cls-2" d="M206.5,120.5c-.2-.3-.4-.8-.7-1.1-2.2-2.2-4.1-4.7-5.8-7.4-.6-1-1.5-1.8-2.2-2.8s-1.4-1.9-1.8-3c-.7-1.6-1.6-3.1-2.7-4.5-.8-.9-1.4-2-2-3-1.3-2.3-2.8-4.4-4-6.7-.8-1.6-1.7-3.1-2.6-4.6-1.4-2.4-2.9-4.8-4.3-7.1-.7-1.2-1.4-2.5-2.5-3.5-1.3-1.2-2.3-2.7-3.2-4.2-2.2-3.7-4.9-7.1-7.3-10.6-.7-1-1.7-1.6-2.3-2.7-1.9-1.8-3-4.2-4.8-6.2-1.2-1.4-2.2-3-3.1-4.6-1.9-3.3-3.8-6.6-6.5-9.3-.6-.6-1.1-1.5-1.7-2.2-.8-.8-1.3-1.9-2.4-2.6-.9-.6-1.6-1.5-2.4-2.3-.8-.8-1.9-1.1-2.9-1.6-.2-.1-.5-.1-.7-.2-.9-.4-1.8-.6-2.5-1.1s-1.2-1.2-1.8-1.8c-.6-.6-1.2-1.1-2.2-1.1-.7-.1-1.5-.4-2.1-.7-.7-.4-1.6-.4-2.2-.2-.8,.3-1.7,.2-2.5,.4s-1.6,.4-2.4,.7c-2.3,1-4.5,2.3-6.6,3.8-4.6,3.1-8.4,7.1-12.2,11.1-1.9,2-3.5,4.3-5.1,6.6-1.4,2-2.7,4-4.2,6-1.2,1.6-2.2,3.4-3,5.2-1.3,3-2.7,5.8-4.7,8.3-.4,.5-.7,1.1-1,1.7-1.3,2.5-2.8,4.8-4.6,6.9-2.3,2.7-4.4,5.6-6.2,8.6-.6,1-1.3,1.9-2,2.9-2.5,3.4-5,6.7-6.9,10.6-.6,1.3-1.5,2.4-2.4,3.6-1.2,1.6-2.4,3.2-3.3,5-1,2-2.1,3.9-2.8,5.9-.4,.9-1,1.8-1.6,2.6-1.7,2.3-3,4.8-4.1,7.5-1.6,3.8-3.2,7.5-4.6,11.5-.2,.5-.4,.9-.7,1.4-.9,1.5-1.5,3.2-2,4.9-.6,1.8-1.3,3.5-2,5.1-1,2.3-1.7,4.7-2.5,7.1-.2,.7-.3,1.5-.6,2.2-1.3,2.9-2.2,6-3.1,9-.5,1.8-1,3.5-1.7,5.3-.6,1.7-1.4,3.4-2.1,5.1-.2,.4-.4,.8-.5,1.1-1.2,2.5-2.5,5-3.6,7.5-2,4.6-4.1,9.2-5.8,13.9-.4,1.3-1,2.5-1.6,3.7-.6,1.3-.9,2.7-1.3,4.1,0,.1,0,.2-.1,.4-.8,2.4-2.3,4.4-2.8,6.9-.1,.4-.3,.6-.6,.7l-.1,.1c.1,1.1,.2,2.3,.3,3.4h0c.1,.1,.2,.3,.2,.4v3.2c.1,2.4,.1,4.7,.1,7.1,0,.3-.1,.5-.2,.7-.1,9.4-.2,18.9-.3,28.3v.8c.1,.1,.2,.3,.2,.6,0,2.4,.2,4.9-.3,7.3v12.4c0,1.1,0,2.2-.1,3.3v10.5c0,.7-.2,15.1-.3,19.2,.4-1,1.6-2.7,1.4-3.3l.9-6.8c0-.3,.1-7.4,.1-11,.1-6.7,.1-13.4,.2-20.1,0-3.4,.1-6.8,.1-10.2h0c.2-14.4,.3-28.9,.4-43.3,0-2.4,.7-4.5,1.6-6.5,.7-1.5,1.4-2.9,1.6-4.5,.2-1,.6-1.9,1.1-2.8,.9-1.8,1.6-3.7,2.1-5.7,.1-.3,.2-.6,.4-.9,1.7-3.5,3-7.1,4.8-10.5,.2-.4,.4-.9,.6-1.4,.4-1.3,.9-2.5,1.6-3.7,1.8-3.2,3.1-6.7,4.2-10.2,.4-1.2,.8-2.4,1.4-3.5,.4-.7,.6-1.5,.8-2.4,.2-1.7,.9-3.2,1.6-4.8,1-2.1,1.9-4.1,2.1-6.4,.1-.7,.5-1.4,.8-2.1,.9-2.1,1.9-4.1,2.6-6.3,.7-2.1,1.5-4.1,2.4-6.1,.3-.8,.7-1.5,1.1-2.3,.9-1.7,1.3-3.5,2-5.3,.5-1.3,1.3-2.5,1.7-3.9,.5-1.3,1-2.7,1.5-4,.4-.9,.8-1.9,1.4-2.6,2.3-2.8,4-6,5.3-9.4,.7-1.8,1.7-3.5,2.9-5,1-1.4,1.9-2.8,2.8-4.2,1.5-2.2,2.8-4.6,4.1-6.9,1-1.6,1.9-3.2,3.2-4.5,1.1-1.2,2-2.5,2.9-3.9,1.1-1.8,2.2-3.6,3.7-5.1,.8-.9,1.4-1.9,2.2-2.8,.4-.5,.8-1.1,1.3-1.5,1.2-1.1,2.1-2.4,2.8-3.9,.8-1.7,1.7-3.3,2.8-4.8,1-1.4,1.8-2.8,2.7-4.2q.1-.1,.1-.2c.3-2.2,1.8-4,2.8-5.9,.5-.9,.9-1.8,1.6-2.6,1.6-1.8,2.7-3.9,4.1-5.8,.5-.7,1-1.3,1.6-2,.3-.3,.6-.6,.8-1,.6-1.5,1.7-2.5,2.8-3.6,1.6-1.6,3.2-3.3,5-4.8,1.9-1.6,3.8-3,5.8-4.5,1.6-1.2,3.4-2.2,5.2-3,1.1-.4,2.1-.9,3.4-1,.4,0,.8-.2,1.2-.3,.4,0,.8-.1,1.2,.1,1,.3,2,.8,3.1,.9,.4,0,.8,.4,1,.7,1.1,1.2,2.5,1.9,4.1,2.4,1.5,.5,2.9,1.4,4.1,2.4,1.5,1.4,3.1,2.7,4.1,4.5,.2,.4,.6,.8,1,1.1,1.8,1.8,3.3,3.8,4.6,6,1.2,1.9,2.4,3.9,3.5,5.8,.7,1.2,1.6,2.2,2.5,3.2,.6,.7,1.2,1.4,1.7,2.2,1.2,1.9,2.8,3.4,4.1,5.2,.8,1.2,1.7,2.3,2.6,3.4,2.3,2.9,4.2,6.1,6.2,9.2,.7,1.1,1.6,2,2.4,3,1.1,1.4,2.2,2.8,3,4.4,.9,1.7,2,3.3,3,5,.9,1.5,1.9,3,2.6,4.5,1.3,2.8,3.2,5.4,4.8,8,1.5,2.5,3.3,4.9,4.6,7.5,.8,1.6,1.9,3.2,3.1,4.6,1.2,1.4,2.2,3,3.3,4.5,.2,.3,.4,.8,.7,1,1.9,2,3.4,4.2,5,6.5,.6-.8,1.5-1.4,2.3-1.8-.7-.9-1.2-1.6-1.8-2.3Z"/>
  <path class="cls-5" d="M231.9,387.1c-.1-.2-.2-.3-.2-.5h-2.7c-4.8,0-9.5-.1-14.3-.1-1.2,0-2.4-.2-3.5,.3-1.3-.6-2.6,.1-3.9,.1-8-.2-16-.2-24-.2-.9,0-1.9-.1-2.7,.3-.2,.1-.5,.1-.8,0-.9-.3-1.7-.3-2.7-.1-.9,.2-1.9,0-2.8,0h-8.1c-11.5-.1-22.9-.2-34.4-.3-1.1,0-2.2-.2-3.2,.3-.3,.2-.8,0-1.3,0-8.3-.1-16.6-.1-25-.2-3.7,0-7.5-.1-11.2-.1-.7,0-1.3,0-2,.2-.6,.2-1.3-.2-1.9-.2-.3,0-.7-.1-1,0-1.1,.6-2.3,.3-3.5,.3-7.3,0-14.6-.1-21.9-.1-.8,0-1.5-.2-2.2,.2-.2,.1-.5,.1-.7,0-.7-.4-1.5-.3-2.2-.3-2.4,0-4.8-.1-7.1-.1-.8,0-1.5-.1-2.2,.3-.3,.2-.8,.1-1.2,.1-8-.1-16-.2-24-.2-.3,0-.7,0-1-.1-.2,0-.4-.2-.5-.4-.1-.3-.1-.7-.1-1,.1-10.3,.2-20.7,.3-31-.7,.6-1.6,1.1-2.5,1.4-.1,9.9-.2,19.9-.3,29.8,0,.6-.1,1.2-.1,1.8,0,.9,.4,1.7,1,2.2,.5,.4,.9-.2,1.4-.2h3.1c.5,0,1.1,.1,1.5-.1,.8-.4,1.7-.3,2.5-.3,3.2,0,6.5,.1,9.7,.1,6.3,.1,12.6,.1,18.9,.2,.7,0,1.4,.1,2-.1,.7-.2,1.3-.3,2-.3h20.8c1-.7,1.9,.1,2.9,0,.3,0,.7,0,1-.1,.7-.2,1.4-.2,2.1-.3,.8-.1,1.7,0,2.6,0,10.2,.1,20.4,.2,30.6,.3,.8,0,1.6-.1,2.5-.3,1.2-.3,2.5-.3,3.8,.1,.2,.1,.5,.2,.7,.2,1.7-.7,3.5-.3,5.3-.3,8.6,0,17.2,.1,25.8,.2,.6,0,1.2,.1,1.8-.1,.7-.3,1.3,.5,1.9,.1,.7-.4,1.5-.3,2.2-.3,7,0,14.1,.1,21.2,.2,2.5,0,5.1,.1,7.6,0,.8,0,1.6-.2,2.4-.1,.8,.1,1.7,.1,2.5,0,.9-.1,1.8,.1,2.7,.2h.5c1.7-.6,3.5-.5,5.2,0,.1,0,.4,.1,.5,0,1.1-.6,2.3-.3,3.5-.3,8.2,0,16.5,.1,24.7,.2-1-.3-1.5-.8-2-1.4Z"/>
  <path class="cls-2" d="M251.1,199.4c1.3,2.1,2.9,4.1,4.6,6,.6,.7,1.2,1.4,1.6,2.3,.5,1.1,1.1,2.1,1.9,3,.6,.7,1.2,1.4,1.6,2.3,.7,1.5,1.6,2.9,2.6,4.3,.5,.7,1.2,1.3,1.1,2.2,1,1.8,1.6,3.7,2.9,5.4,1.2,1.6,1.8,3.4,2.5,5.2,.8,2.2,1.9,4.3,3,6.4,.2,.4,.5,.7,.6,1.1,.4,1.3,1.2,2.2,2,3.2,.7,.8,1.3,1.8,1.9,2.7,1.9,2.9,3.9,5.7,6.2,8.3,1.8,2.1,3.6,4.2,5,6.6,.6,1,1.4,1.9,2.2,2.8,.4,.4,.8,.9,1.1,1.3q1,1.5,1,3.3c0,3.1-.1,6.1-.1,9.2v1.4c.3-.2,.8-.2,1.1,.2,.2,.3,.5,.5,.7,.8,.1-.6-.2-1.2-.2-1.9,0-3.2,0-6.5,.1-9.7v-2.8c-.7-1.4-1.3-2.8-2.1-4.2-.6-.9-1.3-1.9-1.9-2.8-.3-.5-.6-1-1.1-1.4-1.9-1.8-3.5-3.9-5.2-5.9-.7-.8-1.2-1.6-1.9-2.4-.6-.7-1.1-1.5-1.5-2.3-.1-.1-.1-.3-.3-.4-1.3-1.3-2.1-2.9-3.2-4.3-.8-.9-1.3-2-1.8-3-.7-1.3-1.2-2.6-2.1-3.8-.5-.8-.8-1.7-1.1-2.5-.6-1.7-1.5-3.4-2.4-5-1-1.8-2-3.5-2.6-5.4-.6-1.7-1.5-3.2-2.6-4.6-.4-.5-.8-1.1-1.1-1.7-.6-1-1.2-2-1.8-3.1-.5-1-1-1.9-1.7-2.8-.7-1-1.4-1.9-2.1-2.8-1.3-1.7-2.7-3.2-4.1-4.8-.8-.9-1.3-1.9-1.9-3-.4-.7-.7-1.4-1.4-1.7,0,1.2,.3,2.5,.5,3.7,.3,.1,.2,.4,0,.6Z"/>
  <path class="cls-1" d="M295.9,384.9c.1-.4,0-.8,0-1.3,0-5,.1-10,.1-15,0-.6,.2-1.3,0-1.8-.4-.7,.3-1.3,0-1.9-.5-1.2-.4-2.3-.3-3.5,0-5.7,.1-11.4,.1-17.1,0-.5,.1-1.1-.1-1.5-.5-.9-.3-1.8-.3-2.7v-12c0-.6,.1-1.2-.1-1.8-.3-.7-.3-1.3-.3-2,0-4.7,.1-9.3,0-14,0-1.6,.2-3.2-.2-4.7,.1-.8,.1-1.6,.1-2.3v-.3c0-1.2-.1-2.4-.2-3.6v-9.6c.1-.1,.1-.3,.1-.5v-8c-.5-.9-1-1.8-1.7-2.6h0c-.1-.1-.2-.2-.2-.3-.1-.1-.2-.3-.3-.4-.2-.2-.3-.5-.3-.7-.6-1.2-1.3-2.4-2-3.5-.8-1.3-1.8-2.5-2.8-3.6s-1.8-2.3-2.4-3.5c-1.7-3.2-3.8-6.1-5.9-9.1-1.1-1.5-2.4-2.9-3.7-4.2-.9-1-1.9-1.9-2.6-3.1-.6-.9-1.5-1.6-2.2-2.4-1.7-1.8-3.3-3.7-5.1-5.4-1.3-1.2-2.8-2.4-4.5-3.2-2.5-1.2-4.9-1.7-7.6-1.5-1.5,.1-3.1,0-4.6-.1-.7,0-1.3,.1-2,.4-1.3,.6-2.6,1.1-4,1.6-1,.4-1.7,1-2.5,1.7-.5,.5-1,.8-1.6,1.3-.4,.3-.8,.6-1.1,1-.7,.9-1.4,1.9-2.1,2.9-.8,1.2-1.6,2.4-2.6,3.4-1,1.1-1.7,2.3-2.3,3.6-.7,1.5-1.7,2.9-2.5,4.4-.5,1-.9,2.2-1.5,3.2-.6,.9-1.3,1.8-1.4,2.9-1.4,1.6-1.9,3.8-3.2,5.4-.9,1.2-1.4,2.7-2.3,3.9-1.2,2.9-3.2,5.3-4.3,8.3-.6,1.5-1.7,2.9-2.6,4.3-1.4,2.2-2.9,4.4-3.6,6.9,0,.2-.2,.3-.2,.5-1.4,2.6-2.4,5.3-3.4,8.1-.2,.5-.4,.9-.7,1.4-.6,1.1-1.3,2.1-1.7,3.3-.4,1.2-1,2.3-1.5,3.5-.4,1-.9,2-1.2,3-.5,1.4-.9,2.7-1.6,4-.4,.8-.4,1.6-.8,2.4h0q-.3,1.2-.9,2.3c1,1.7,1.5,4.4,2.6,5.9,.6,.9,1.3,1.8,1.7,2.8,.5,1.3,1.4,2.5,2,3.8,1,2.3,2.2,4.5,3.4,6.7,1.5,2.8,2.8,5.8,4.3,8.6,1.6,3,3.2,6.1,4.9,9.1,1.3,2.3,2.6,4.5,3.9,6.8,.5,1,1.1,1.9,1.7,2.8,.4,.6,.8,1.1,1.1,1.7,1,2.1,2.2,3.9,3.6,5.8,1.2,1.6,2.1,3.4,3.1,5.2,.6,1,1.4,1.9,1.9,3,.4,.8,.9,1.5,1.5,2.1,.1,.1,.2,.1,.3,.2,.9,1.1,1.9,2,2.8,3.1h1.9c.5,0,1.1,.1,1.5,0,1.8-.6,3.7-.3,5.5-.3,11.6,.1,23.1,.3,34.7,.3,4.6,0,9.3,.5,14-.3,.7-.1,1.3-.3,1.6-1,.2-.4,.5-.7,.7-1.1,.4-.7-.2-1.2-.1-1.7Zm-2.4-19.2c0,5.1-.1,10.2-.1,15.3,0,.7,.4,1.5,.2,2.2-.2,.8-.2,1.7-.3,2.5,0,.5-.3,.7-.9,.7-1.8,0-3.6-.1-5.4,0-1.1,0-2.2-.2-3.3,.3-.3,.1-.8-.4-1.2-.3-2.4,.8-4.9,.2-7.3,.3-2.5,.1-5.1,0-7.6,0h-7.4c-.9,0-1.8-.2-2.8,.2-.6,.2-1.2-.5-1.9-.1-.7,.4-1.5,.2-2.2,.2h-2c-4.4,0-8.8-.1-13.3-.1-.8,0-1.2-.2-1.6-.9-.8-1.8-1.8-3.4-3.1-4.8-.3-.4-.6-.8-.8-1.3-1.7-2.7-2.2-5.8-4.2-8.3-.7-.9-.8-2-1.4-3-.4-.8-12.5-19.4-13.1-20.4-1.2-2-2.1-4.2-3.1-6.4-1-2.2-2.4-4.3-3.5-6.4-.2-.5-.6-.8-.8-1.3-1.6-4-3.9-7.6-6.4-11.1-.4-.5-.4-1-.2-1.7,.7-2.3,1.6-4.6,2.5-6.8,.6-1.5,1.2-2.9,1.8-4.4,.4-1,.8-2,1.3-3,.8-1.4,1.2-3,2.1-4.3,.2-.3,.4-.8,.5-1.2,1.8-5,4-9.8,6.6-14.5,.6-1.1,1.2-2.2,1.9-3.3,1-1.5,1.8-3.2,2.7-4.8,1-1.7,2.1-3.3,2.9-5,.7-1.4,1.4-2.7,2.2-4,2-3.1,3.5-6.4,5.2-9.6,1.3-2.4,2.6-4.9,4-7.2,.9-1.4,1.9-2.8,2.9-4.1,1.4-1.8,2.8-3.6,4.4-5.2,1-1,2.3-1.6,3.5-2.4,.6-.4,1.2-.6,1.8-.9,.8-.4,1.6-.6,2.4-.5h2.3c.3,0,.7,.1,1,0,1.8-.8,3.5-.3,5.1,.4,.8,.3,1.6,.5,2.4,.8,2.5,.9,4.2,2.8,5.9,4.7,.4,.4,.8,.9,1.2,1.3,1.4,1.4,2.9,2.6,4,4.3,1,1.5,2.1,2.8,3.4,4.1,2.5,2.4,4.4,5.3,6.3,8.2,1.1,1.6,2,3.3,3,5,.8,1.2,1.6,2.4,2.5,3.5q2.5,3.3,4.7,7.7c.5,1,1.1,2.1,2.1,2.8h0c.1,0,.2,.1,.3,.2,.1,.1,.2,.2,.2,.3-.3,.1-.6,.4-.6,.9v.1c-.1,.2-.2,.4-.1,.6,.1,.8,.2,1.7,.2,2.5,0,.3,.1,.6,.3,.7v1.2c0,.3,.1,.6,.3,.7v.5c-.5,0-1,.3-1,1-.1,3.1,.4,6.1,.6,9.2-.3,.1-.6,.4-.6,.9,.1,1.7,.3,3.5,.4,5.2,0,.3,.1,.5,.3,.7v5.4c0,1.3-.2,2.5,.3,3.8,.2,.4,.1,1,0,1.5,0,4-.1,8-.1,12,0,.9-.4,1.7-.1,2.7,.3,.9,.1,1.8,.1,2.8v11.2c0,.2-.1,.5,0,.8,.6,1.6,.3,3.3,.3,5,.4,4,.3,8.4,.3,12.9h0Z"/>
  <path class="cls-2" d="M209.1,123.3c-.5-.4-1-.8-1.5-1.3-.5-.4-1-.3-1.4,0-.2,0-.3,.1-.4,.2-.1,.1-.2,.2-.2,.3-.4,.3-.6,.8-.2,1.3,.4,.7,.9,1.8,1.7,2,.5,.1,1-.1,1.2-.5,.1,0,.3-.1,.4-.2,.1-.1,.2-.2,.2-.2,.1,0,.1-.1,.2-.1,.3-.4,.4-1.1,0-1.5Z"/>
  <path class="cls-2" d="M216.9,137c-.3-1.1-.8-2.1-1.6-3-.1-.1-.2-.2-.4-.3-.1-.2-.2-.4-.3-.5-.4-.6-1.1-.6-1.5-.2-.7,.1-1.3,.8-.9,1.5s.9,1.4,1.4,2.1c.2,.4,.6,.5,1,.5,.1,.3,.3,.5,.5,.8,.6,.8,2.1,.2,1.8-.9Z"/>
  <path class="cls-2" d="M225.9,151.3c-.3-.8-.7-1.6-1.4-2.1-.3-.3-.7-.4-1-.2-.5-.1-1.1,.2-1.2,.7-.2,.3-.3,.7-.1,1.1,.3,.6,.7,1.1,1,1.7,.3,.5,.8,.6,1.2,.4,.2,.1,.5,.1,.8,0s.6-.4,.6-.8c.1-.3,.1-.5,.1-.8Z"/>
  <path class="cls-2" d="M232.6,166.9c-.2-.7-.5-1.3-1-1.8-.1-.2-.3-.3-.5-.3-.3-.3-.8-.3-1.2-.1-.2,.1-.4,.4-.5,.6-.2,.3-.2,.7,0,1,.2,.5,.5,1,.9,1.5,.3,.4,.9,.7,1.4,.4h0c.1,0,.3-.1,.4-.1,.4-.2,.7-.7,.5-1.2Z"/>
  <path class="cls-2" d="M238.3,176.3c-1-1.2-1.8-2.6-2.5-4-.1-.2-.2-.5-.4-.7-.6-1.2-2.3-.1-1.8,1,.1,.2,.2,.5,.4,.7,.1,.2,.2,.5,.3,.7-.3,.3-.5,.7-.2,1.2,.6,1.1,1.3,2.2,2.2,3.1,.1,.1,.3,.2,.4,.2h0c.9,.6,1.7-.5,1.4-1.3,.5-.1,.5-.5,.2-.9Z"/>
  <path class="cls-2" d="M252.8,198.7c-.1-.1-.2-.3-.2-.5,.1-.2,.1-.5,0-.9-.6-1.2-1.5-2.3-2.2-3.4-.4-.7-.7-1.4-1.1-2-.5-1-2.3-.3-1.9,.8,.2,.6,.5,1.2,.9,1.7h0c-.1,.2-.1,.4,0,.6,.2,.8,.9,1.5,1.3,2.2,.5,.8,1,1.7,1.5,2.5,.6,1.1,2.3,.1,1.7-1Z"/>
  <path class="cls-1" d="M280.6,142.8c-.3-.9-.6-1.7-.9-2.6-.5-1.4-1.8-3.5-2.7-4.5-1.2-1.3-2.5-2.5-3.8-3.8-1.1-1.1-2.4-2-4-2.6-1.2-.5-2.4-1.1-3.7-1.6-.8-.3-1.5-.4-2.2-.2-2,.6-4.1,1-5.9,2.1-.8,.4-1.7,.7-2.6,1-.4,.1-.5,0-.5-.5,0-1.1,.9-6.2,1.3-7.7,.4-1.5,1-2.9,1.4-4.3,.9-3.4,2.8-6.3,4.6-9.2,1.1-1.8,2.8-3.1,4.4-4.5,.4-.3,.8-.6,1.1-1,.6-.6,.1-1.9-.7-2h-.5c-1.7,0-3.4,0-5.1-.1-1,0-5.8,2.1-7.2,3.3-2.6,2.2-5.2,4.4-7.5,6.9-.6,.6-1.1,1.2-1.5,2-.7,1.3-1.7,2.5-2.3,3.9-.4,1-1.1,1.9-1.2,3,0,.3-.3,.6-.4,.9-.9,2-1.9,3.9-2.3,6.1-.1,.3-.3,.6-.4,.9-.1,.2-.2,.2-.4,0-.4-.5-.7-.9-1.1-1.4-1.2-1.6-2.5-3.2-4.2-4.4-1.8-1.2-3.6-2.5-5.8-3-.4-.1-.8-.3-1.2-.3h-6.6c-1.3,.5-2.8,.3-4.1,1-1.3,.6-2.6,1.2-3.6,2.3-.3,.3-.8,.5-1.2,.8,0,.4-.1,.8-.5,.9-1,.5-2,1.4-2.5,2.5-.1,.2-.3,.4-.6,.5-.1,.1-.2,.2-.3,.3-.2,.2-.5,.5-.7,.8-1.4,2.5-3,4.9-3.9,7.6-.1,.2-.1,.5-.1,.8,0,.6,1,1.3,1.6,1,.5-.2,.9-.5,1.3-.8,.8-.5,1.5-1.2,2.2-1.6,1-.6,2.1-.9,3.3-1.1,.1-.1,.3-.1,.5-.1h1.4c2,0,3.9-.1,5.8,0,.3,0,.5,0,.8,.1h.4c.3,0,.5,.1,.6,.3,1,.4,2.1,.8,3.1,1.2,.2,.1,.3,.1,.5,.2,2.7,1.9,5.6,3.5,7.5,6.3,.9,1.2,1.4,2.7,2,4,.2,.5,0,1-.5,1.3-.8,.4-1.6,.9-2.3,1.5-.6,.5-1.4,.8-2.1,1.2-.1,.2-.2,.4-.5,.5-1.3,.5-2.3,1.5-3.5,2.3-.3,.6-1,1.2-1.4,1.8-.8,1-1.6,2-2.4,3-.3,.4-.9,.7-1,1.1-.3,1.2-1.3,2-1.6,3.1-.5,2.2-1.6,4.2-2.2,6.4-.2,.9-.7,3.2-.8,3.4-1.1,2.2-.9,4.6-.9,7,0,1,.3,2,.6,3,.1,.4,.6,.8,1,1.1,.1,.1,.5,.2,.7,.1,.7-.4,1.3-.8,1.3-1.7,0-2.7,1.5-4.8,3-6.8,.5-.7,1-1.4,1.6-2,.9-.9,1.7-1.9,2.7-2.7s1.7-1.9,2.9-2.4c.5-.2,1-.6,1.5-.9,.1,0,.2-.1,.3-.1,1.1-.7,2.4-1.3,3.7-1.6,.1,0,.2-.1,.3-.1,.9-.3,1.8-.7,2.6-.7,3.4,0,3-.6,3,2.8v.2h0c-.1,.9,0,1.9-.2,2.8-.2,.8,.1,1.6-.2,2.4q0,.1-.1,.2v.3c0,.6-.1,1.1-.1,1.7v.5c-.2,1.6-.3,3.3-.4,4.9,0,.2,0,.3-.1,.5,0,.3-.1,.7-.2,1-.1,.1-1,4.1-.9,6,.1,1.5-.9,6.3-1.1,7.2-.2,.9-.5,1.8-.5,2.7-.1,.8-.4,1.6-.5,2.5-.1,.8,0,1.7-.4,2.5-.2,.5-.1,1.2-.2,1.8,0,.8-.1,1.5-.3,2.2-.3,1-.2,2.2-.2,3.3,0,.7,.8,1.2,1.4,.9,.7-.4,1.5,.3,2.1-.2,.6,.1,1.2-.8,1.9-.1,2.9-.7,5.9-.3,8.8-.4,.6,0,1.3-.1,1.7,.2,.9,.6,1.4,.1,2-.4,.3-.3,.4-.7,.4-1.1,0-1.2-.4-2.3-.7-3.4-.1-.6-.2-1.1-.3-1.7,0-.8-.1-1.5-.3-2.2-.1-.4-.1-.8-.1-1.1,0-.1-.1-.2-.1-.3-.4-2.2-.8-4.5-.3-6.8,0-.2,.1-.4,.2-.5,0-.3,.1-.6,.1-.9,0-3.5,.1-7,.1-10.5-.7-2.9-.3-5.9-.4-8.8,0-.5-.2-1-.4-1.5-.1-.5,0-1,.5-1.4,.9-.7,1.8-1.3,3-1.2,1.6,.1,3.2-.1,4.8,.4,1.2,.4,2.5,0,3.7,.6,2.2,0,4,1.2,5.7,2.4,.8,.5,1.5,1.1,2.2,1.7,.7,.5,1.2,1.2,1.6,1.9,.6,1,1.5,1,2.3,.1,.4-.4,.6-.8,.3-1.5-.3-.7-.2-1.7-.2-2.5,.1-1.9-.3-3.7-.9-5.4-.6-1.8-1.2-3.7-1.7-5.5-.4-1.6-1.4-2.7-2.6-3.6-.3-.2-.6-.3-.9-.5-1.5-1.4-3.2-2.1-5.3-1.8-.9,.1-1.8-.4-2.7-.2-1.4-.6-2.8-.3-4.1,.4-.4,.2-.6,0-.5-.4,.1-.7,.5-1.5,.5-2.2,0-.8,.5-1.2,.8-1.8,.5-.9,1-1.9,1.7-2.8,1.5-1.9,3.8-3.3,6.1-3.6,.3,0,.7-.1,1-.2,1.6-.4,3.2-.9,5-.8,.2,0,2.4-.6,3.2-.4,1.3,.4,2.6,.6,3.8,1.3,.8,.5,1.7,.8,2.5,1.3,.6,.4,1.1,.3,1.6-.1,.3-.7,.5-1.4,.3-2.1Zm-16.9,16.5c-.5-.1-1-.1-1.6-.1,.2-.1,.3-.3,.3-.5,.3,0,.6,.1,.9,.2,.1,.1,.3,.2,.4,.3t0,.1Zm-41,.3c-.1,.2-.2,.3-.3,.5l-.7,.7c0-.1,.1-.2,.1-.3,.2-.3,.5-.6,.9-.9Zm33.8-52.1c.1-.1,.2-.2,.3-.2,.1-.1,.2-.1,.3-.2,0,0,.1,0,.1,.1-.1,.2-.3,.4-.4,.6-.1-.2-.2-.2-.3-.3Zm-12,52.5v.4s-.1,0-.1,.1c-.1-.2,0-.4,.1-.5Zm-.2,23.3s0,.1-.1,.2v-.7c0,.1,.1,.3,.1,.5Zm-.1,1v2c0-.2-.1-.3-.2-.4,.1-.5,.1-1,.2-1.6Zm-.7-21.4c0,.2,0,.5-.1,.7v-.7q.1-.1,.1,0Zm3.3-18.4c0-.1,.1-.2,.2-.3,0-.1,.1-.1,.1-.2,.1,.1,.1,.2,.2,.4h0c-.2,0-.4,.1-.5,.1Zm-9.2,14.3c0,.1,0,.3,.1,.4h-.8c.2-.1,.4-.2,.7-.4Zm-3.6-20.2s.1-.1,0,0c.1,0,.1,.1,.1,.1,0,0,0-.1-.1-.1Zm-12.7-14.1h-.1c0-.1-.1-.3-.2-.4,.3,.1,.6,.2,1,.3-.3,0-.5,.1-.7,.1Zm-7.5,3.9c-.1,.2-.2,.4-.2,.5h-.4c.2-.1,.4-.3,.6-.5q0,.1,0,0Zm11.3,26.1h0l.1-.1s-.1,.1-.1,.1Zm11.5,7.1v.1h-.6c.2,0,.4-.1,.6-.1Zm2.1,20.1v.1h0v-.1Zm-2,24.3v.2h-.2v-.3c.1,0,.2,0,.2,.1Zm1.7-72.9s0,.1,0,0c-.1,.2,0,.4,0,.5-.1-.1-.1-.3-.2-.4q.1,0,.2-.1Zm-21.6,35.5c-.1,.5-.2,1-.4,1.4-.1,.1-.1,.3-.2,.4,.3-.6,.5-1.2,.6-1.8Zm6.6-1.8c.1-.1,.3-.3,.5-.4l1.1-.7c-.6,.4-1.1,.8-1.6,1.1Zm29.4-1.3c.8,0,1.5-.1,2.3-.2,.3,.1,.7,.1,1,.2h-3.3Z"/>
  <path class="cls-5" d="M148.6,77.7c-.4-.4-.9-.5-1.4-.3-1.5,.7-3.2,1.1-4.8,1.3-1.8,.2-3.5,.7-5.3,.5-.3-.1-.7,.1-1,.2-1.8,.4-3.4,.9-5.1,1.5-.1,.1-.4,0-.4,0-.1-.2-.1-.4,0-.5,1-1.2,2-2.3,3-3.4,.5-.6,1.2-1,1.7-1.5,1.7-1.7,3.6-3,5.5-4.5,.7-.6,1.4-1.2,2-1.9,1.4-1.7,2.8-3.4,4.2-5.1,.5-.7,1-1.4,1.5-2,.4-.5,.4-.8,0-1.3-.7-.9-.9-1-1.9-.5-1.2,.5-2.4,1.2-3.8,1.1-.2,0-.3,.2-.5,.2-2.4,.6-4.7,1.2-7.2,1.3-.4,0-.8,.3-1.2,.3-1.4,.1-4.1,.9-4.2,1.3-.3-.3,.7-1.8,1-2.4,.5-.9,.8-2,1.2-3,.2-.8,.4-1.6,.6-2.4,.4-1.3,1.1-2.5,1.1-3.9,0-.3,.2-.6,.3-.9,.8-1.4,1.5-2.8,2.3-4.2,.5-.7,.6-1.5,.9-2.3,.3-.8-.4-1.3-.9-1.7-.4-.4-.8,0-1.1,.2-.7,.4-1.2,1-1.8,1.4-1.6,1-3.1,2.3-4.5,3.6-1.1,1-2,2.2-3.3,2.8-1.8,1.8-3.7,3.6-5.6,5.5-.4,.9-1.1,1.5-1.8,2.1-2.9,2.9-5.9,5.8-8.9,8.7-1.9,1.9-3.9,3.8-5.2,6.2-.1,.3-.4,.5-.6,.8l-.4,.4c0-.2-.1-.3-.1-.5,0-2.1,.5-3.9,1.9-6.4,.6-1.1,.9-2.2,.7-3.4-.1-.5-.5-.7-.9-.5-2.8,1.9-5.4,3.9-7.8,6.1-.6,.5-1.2,1.2-1.6,1.9-1.6,2.9-2.9,5.9-4.2,8.9-.8,1.6-1,3.5-2,5.1-.2,1.4-1.1,2.6-1.1,4.1,0,1.6-.6,3-1.1,4.4-.2,.7-.7,1.4-.8,2.1-.5,2.2-1.2,4.3-1.8,6.5-.4,1.7-.9,3.3-1.8,4.9-.8,1.5-1.5,3.2-2.4,4.7-1.3,2.2-2.3,4.5-4.2,6.3-.2,.1-.3,.4-.4,.6-.4,1-1.2,1.8-1.9,2.6-.8,.9-1.4,1.9-2.3,2.7-.3,.2-.5,.5-.8,.7-2.2,1.2-3.7,3.3-5.8,4.8-1.5,1.1-2.8,2.6-4.2,4-1.2,1.3-2.1,2.9-2.8,4.5-.2,.5-.3,1.2,.1,1.7,.7,1,1.5,1.9,2.9,1.7,.3,0,.7,.1,1,0,1-.5,2-.4,3-.4,.6,0,1.1-.2,1.7-.3,1.1-.2,2.2-.8,3.4-.7,1.5,.1,2.8-.4,4.2-.8,1.6-.5,3.2-1,4.8-1.6,1.6-.6,3.4-.9,5-1.5,1.3-.5,2.6-1.2,3.9-1.7,.9-.3,1.7-.6,2.5-1.2,1.7-1.2,3.5-2.3,5.3-3.4,3-1.8,6.2-3.2,9.3-4.6,.7-.3,1.5-.8,2.3-.9,1.5-.2,2.7-.9,4-1.5,.9-.4,1.8-.8,2.8-1,1.6-.2,3.1-.8,4.5-1.5,.7-.3,1.4-.4,1.9-.8,.6-.4,1.3-.6,2-.9,2.2-1.1,4.5-2.3,6.7-3.5,1.2-1.3,2.7-2.2,3.9-3.3,2.8-2.6,6-4.8,8.8-7.5,.4-.3,.9-.5,1.3-.8,.4-.2,.7-.4,1.1-.6,.5-.4,.6-1.1,.3-1.6-.4-.6-1.1-.9-1.7-.5-.3,.3-.6,.6-1,.8-1.6,.7-3.3,1.4-4.9,2-.2,.1-.3,.1-.5,.2-.2-.1-.5-.2-.8-.2l-1.4,.3h-.4c-.2,0-.5,.1-.7,.1-.4-.1-.9-.2-1.4-.3-.4-.1-.8-.1-1.2,0-1.1,.2-2.1,.5-3.2,.7,0,0-.1-.1-.2-.1v-.2c.2-.3,.5-.6,.7-.8,1.4-1.4,2.9-2.7,4.1-4.2,1.3-1.7,2.6-3.3,4-4.9,1.4-1.7,2.9-3.3,4-5.2,1.2-1.9,2.5-3.8,3.7-5.7,.9-1.5,2-2.8,3.3-3.9,.6-.5,1.3-.8,1.9-1.3,.6-.5,.5-1.3,0-1.8Zm-10.1,5.7c-.1,.1-.2,.2-.3,.3q0-.1-.1-.2c.2,0,.3,0,.4-.1Zm-9.5,26.6s0-.1,.1-.1c0,0,.1,0,.2-.1-.1,.1-.2,.2-.3,.2Zm-10.9-10.3c-1,.6-2,1.2-2.9,1.9-2.4,1.6-4.8,3.3-7.2,4.9-.4,.2-.5,.6-.4,1-2,1.5-4,3.1-5.9,4.9-.2,.2-.2,.4-.3,.5-.3,.2-.6,.5-.9,.7-.9,.7,.1,1.9,1,1.7,.2,0,.4-.1,.5-.1,.2,.2,.4,.3,.8,.3,1.1,0,2.2-.1,3.2-.1,1.4,.4,2.8,.7,4.3,.6-.5,.5-1,.9-1.5,1.5-.1,.2-.2,.3-.2,.5-.2,.2-.5,.4-.7,.6-2,1.1-4,2.3-5.9,3.5-.2,.1-.3,.3-.4,.4-2.6,.9-5.2,1.9-7.7,3h-.4c-1.7,.3-3.4,.7-5,1.2-.2,0-.4,0-.6,.1l-.8,.3c-2.7,.9-5.3,2-7.8,3.4-.3,.1-.4,.4-.5,.6-1.4,.7-2.8,1.5-4.2,2.3-.1,0-.1,.1-.1,.1-.1-.3-.3-.7-.4-1.1,.1-.1,.2-.1,.2-.3,.4-.5,.7-1.1,1-1.6,.4,.2,1,.1,1.3-.4,3.4-6,6.7-11.9,10.1-17.9,.4,.1,.9,.1,1.2-.4,2.2-3.7,4.1-7.7,5.5-11.8,1.2-2,2.1-4.2,1.9-6.6,.2-.6,.5-1.2,.7-1.8,.4-1.1,.9-2.2,1.3-3.3,.5-.9,1-1.9,1.4-2.8,.2-.4,.4-.8,.5-1.2,0,.4-.1,.8-.1,1.1-.1,.9,1.3,1.4,1.8,.6,.1,1.9,.4,3.9,.9,5.7,.1,.2,.2,.4,.4,.5l-.1,.2c-.2,.5,0,.8,.3,1,.4,.7,1.6,.8,1.9-.2,.8-2.4,1.6-4.9,2.4-7.3,.2-.5,.5-1.1,.7-1.6,1.4-2.3,2.7-4.6,3.8-7,.8-.6,1.5-1.2,2.3-1.8,1.8-1.1,3.5-2.4,5.2-3.8,.1,.4,.2,.8,.3,1.1,.1,.4,.2,.9,.2,1.3-.1,.1-.1,.3-.2,.5-.2,.1-.3,.2-.4,.4-.5,1.1-.8,2.2-1.1,3.3-.4-.1-.9,.1-1.1,.7l-1.9,6.2c-.1,.3-.1,.5,0,.7-.4,1.2-.7,2.5-.9,3.8-.4,.9-.6,1.8-.7,2.7-.1,.9,1,1.9,1.7,1,.4-.6,1-1,1.5-1.5,.2,.2,.5,.2,.8,.1,1.9-.6,3.7-1.4,5.4-2.2,.9-.3,1.7-.6,2.6-.9h.2c1,.3,2,.2,2.9,0-.3,.5-.1,1,.3,1.2,0,.1-.1,.3-.1,.4v.1c-.1,.1-.2,.2-.3,.2-.4-.1-.8-.1-1.1,.2-.5,.6-1.1,1.2-1.7,1.8h-.1c-2.7,1.9-5,4.2-6.9,6.9Zm-21.6,27.5c.6-.3,1.2-.6,1.8-.9,.5-.2,1.1-.5,1.6-.7h0c-1.1,.5-2.3,1.1-3.4,1.6,0,.1,0,0,0,0Zm12-4.9c-.4,.2-.9,.3-1.3,.5,0-.1,.1-.2,.1-.3,.3-.1,.6-.2,.9-.3,.1,0,.2,0,.3,.1Zm-22-19c-.2,.3-.3,.7-.5,1,.1-.4,.2-.8,.4-1.2,0,.1,.1,.2,.1,.2Zm29.4-13.5c-.1,0-.1,.1-.2,.1,0-.1,.1-.2,.1-.3,0,.1,.1,.2,.1,.2Zm28.1-25.7h0Zm-16.3,4.6h0Zm.6-7.1q0-.1,0,0c0-.1,.1-.2,.1-.3,.1-.2,.2-.5,.3-.7,.3-.5,.5-1,.7-1.5-.3,.8-.7,1.7-1.1,2.5Zm12,6.8c-.5,.4-1,.8-1.5,1.2l1.1-1c.1-.1,.2-.3,.3-.5l1.6-1.5c.3-.1,.5-.3,.6-.6,.1-.1,.2-.2,.3-.3,.1-.1,.1-.2,.2-.2h0c-.8,1-1.6,2.1-2.6,2.9Zm-18.9-10.2c-.1,.1-.1,.2-.2,.2h0c.1-.1,.1-.2,.2-.2Zm-20.4,10.7c.1,.1,.1,.3,.1,.5-.1,0-.1,.1-.2,.1-.3,.3-.6,.5-.9,.8-.3,0-.5,.2-.7,.5l-.1,.1q-.1,0-.2-.1c.4-.5,.8-.9,1.3-1.3,.1-.1,.6-.5,.7-.6Zm-10.7,20.4c.1-.4,.2-.9,.3-1.3-.1,.9-.3,1.7-.3,2.6,0,.1-.1,.1-.1,.2l-.1,.1v.1c-.4,1.1-.8,2.2-1.2,3.3,.6-1.6,1-3.3,1.4-5Zm-12.3,30.5h0Zm35.4,.6c-.2,0-.4,.1-.7,.2,.4-.2,1.1-.3,.7-.2Zm3.7-1.2s-.1,0,0,0c-.9,.4-.8,.3,0,0Zm17.1-10.7c0-.1-.1-.1-.1-.1,.3-.2,.6-.5,.9-.7-.2,.3-.5,.6-.8,.8Zm4.6-21.5c.1-.2,1.1-1.7,1.5-2.1-.2,.4-2.8,4-1.5,2.1Z"/>
  <path class="cls-1" d="M101.6,319.4c-.5-1-.4-2-.4-3,0-.8,.1-1.7,0-2.5-.5-2.3-.8-4.6-1.7-6.8-.3-.8-.6-1.6-.7-2.4-.1-1.1-.7-1.9-1.3-2.7-1.4-1.6-3.3-2.3-5-3.4-.1-.1-.3-.1-.5-.1-1.9,0-3.9-.3-5.8,.3-.1,0-.4,0-.4-.1-.1-.1-.1-.3-.1-.5,1.8-3.3,3.3-6.8,5.1-10.1,1.4-2.5,3.1-4.8,5.2-6.8,1.3-1.2,2.7-2.3,4.3-3,.2-.1,.5-.2,.7-.3,.4-.2,.7-.9,.5-1.3-.2-.5-.5-1-1-1-1.9,.1-3.7-.3-5.5-.6-.8-.1-1.6-.1-2.5-.4-.8-.3-1.8-.1-2.7,.1-2.2,.5-4.3,1.3-6.5,1.9-.9,.2-1.7,.6-2.4,1.2-2.1,1.8-4.5,3.3-6.4,5.3-.2,.2-.7,0-.8-.3-.2-.8-.3-1.5,0-2.2,.3-.8,.3-1.5,.3-2.2,0-1.4,.1-2.7,.1-4.1,0-.5-.1-1.1,.1-1.5,.7-1.6,.2-3.4,1-4.9-.1-1.4,.4-2.6,.9-3.9,.1-.2,.2-.5,.2-.7,.1-2.4,1-4.6,1.6-6.8,.4-1.6,1.1-3.2,1.3-4.8,.1-.7-.1-1.1-.7-1.2-.7-.1-1.3,.1-1.9,.5-1.9,1.2-3.7,2.6-5.2,4.4-1.1,1.3-2,2.7-3.1,3.9-1.4,1.7-2.5,3.6-3.5,5.6s-1.2,4.4-2.1,6.4c-.1,.2-.1,.5-.1,.8,.1,1.1-.3,2.1-.5,3.2-.2,1-.7,2.1-.6,3.2,0,.2,0,.5-.1,.7-.5,.9-.1,2.1-.5,3-.4,1-.4,2-.4,3-.1,1.4,0,2.9,0,4.3,0,.6,0,1.2-.1,1.8,0,.2-.2,.3-.4,.2-1.4-1.1-2.8-2.2-4.2-3.2-1.1-.8-2.3-1.4-3.6-1.8-1.6-.5-3.3-.8-4.9-1.2-2.5-.7-4.6-.1-6.7,1.2-1.1,.7-1.7,1.9-2.7,2.7-.7,.5-1.1,1.3-1.2,2.1-.1,.7,.2,1.5,.8,1.8,.9,.5,1.8,.5,2.7,.5s1.6,.1,2.4,.7c.8,.6,1.8,1,2.7,1.2,3.2,1,5.8,3,8.3,5.1,1.4,1.2,2.6,2.6,3.9,4,.8,.9,.8,1.2-.4,1.5-.3,.1-.7,.2-1,.2-.9-.1-1.7,.3-2.4,.6-1.3,.6-2.5,1.4-3.5,2.4-1,.9-1.9,1.9-3.1,2.6-.3,.2-.6,.4-.7,.7-1.8,3.3-3.7,7-2.4,11.8,.1,.3,.1,.7-.1,1-.3,.5,0,.8,.2,1.1,.2,.2,.4,.3,.6,.5,.5,.3,1.2,.2,1.6-.3,.1-.2,.3-.4,.3-.7,.4-1.7,1.4-3,2.6-4.2,1.3-1.2,2.4-2.6,4.2-3.1,.8-.2,1.6-.8,2.4-.6,.8,.2,1.6-.6,2.4,0,1.4,.1,2.9,.1,4.2,.6,1.5-.2,2.6,.6,3.8,1.2,.5,.2,.7,.7,.8,1.2,.1,.7,.4,1.5,.4,2.2-.1,4.5-.1,9-.1,13.5,0,.4,.1,.9-.1,1.3-.6,1.3-.4,2.7-.5,4,0,.4,.1,.9-.1,1.2-.5,.9-.3,1.8-.4,2.7-.1,.9,.1,1.9-.2,2.8-.4,1.2-.4,2.3-.4,3.5,0,.4,.1,.9-.1,1.2-.5,.9-.4,1.8-.4,2.7-.1,1.4,0,2.9-.1,4.3s0,2.9-.1,4.3c0,.6,0,1.2,.1,1.8,.1,.3,.4,.6,.6,.8,.3,.2,.7,.1,.9-.2,.7-.9,1.6-1.6,2.8-1.6,1.6,0,3-.7,4.5-.5,.3,0,.7,0,1-.1,3-.6,4.5-.5,6.9,.3,1.2,.4,1.6,.3,2.4-.7,.3-.4,.4-.8,.2-1.2-.7-1.1-.9-2.3-1.2-3.6-.5-2-1-3.9-1.1-5.9-.1-1.7-.6-3.3-.6-5,0-.9-.5-1.8-.4-2.7,.1-1-.4-2-.4-3-.1-1.3-.2-2.7-.4-4-.2-1.1-.5-2.1-.5-3.2s-.4-2.1-.6-3.2c-.1-.6-.4-1.1-.4-1.7-.2-2.9-1.2-5.7-1.6-8.6-.5-.7-.2-1.2,.4-1.7,.9-.8,1.7-1.7,2.6-2.5,1.6-1.4,3.4-2.5,5.4-3.2,1.4-.5,2.8-.5,4.2,0,1.2,.5,2.4,.7,3.6,1.2,1,.4,1.9,1.1,2.9,1.6,1.1,.6,2,1.6,2.9,2.5,.6,.6,1.3,.8,2.1,.4,.3-.3,.7-1,.4-1.5Zm-21.4,37.8s-.1,0,0,0q-.1,0,0,0c-.1-.1-.1-.2-.2-.2h.1q.1,.1,.1,.2Zm-9.7-60.8c.1-.1,.1-.2,.2-.3v.2q-.1,0-.2,.1Zm.1,56.3h0c-.1,.1-.2,.3-.3,.6,0,.3-.1,.5-.1,.8h0c.1-.6,.2-1.2,.2-1.7,.1,.1,.2,.2,.2,.3Zm-.4-60.3c0,.1-.1,.2-.1,.3,0-.2,.1-.3,.1-.5v.2Zm-.8,44.4h0Zm3.7-16.6h0c-.1-.1-.1-.3-.1-.4,.1,0,.1,.1,.2,.1,0,.1,0,.2-.1,.3Zm-14.6-12.4h.2q-.1,.1-.2,.2v-.2Zm7.1-2c-.1,0-.1,.1-.1,.2,0-.1-.1-.1-.1-.2h.2Zm-20.1-15h.9c.1,.1,.2,.2,.3,.3-.4-.1-.8-.2-1.2-.3Zm30.5,36.9v.4c0-.2-.1-.4-.1-.6,.1,.1,.1,.2,.1,.2Zm22.5-14.3c0-.1,.1-.2,.1-.3,.1,.3,.1,.7,.1,1-.1-.3-.1-.5-.2-.7Zm-21.4,21c0,.7,.3,1.5,.4,2.2,.2,.9,.4,1.8,.5,2.7v.1c-.3-1.5-.7-3-1-4.6v-.1c-.1-1.7-.4-3.5-.7-5.2,.1,.5,.2,.9,.3,1.4,.2,1.2,.5,2.3,.5,3.5Z"/>
  <path class="cls-3" d="M286.2,71.7c-1.7-.6-3.1-1.7-4.7-2.5-1.8-.8-3.5-1.5-5.4-1.9-1-.2-1.9-.6-3-.6-.6,0-1-.6-1-1.3,0-.3,0-.5,.1-.8,1-2.8,2-5.7,3.2-8.4,.8-1.6,1.5-3.2,2.2-4.8,.4-.9,.6-1.9,.9-2.8-.1-.4-.2-.8-.4-1.1-.2-.2-.6-.6-.8-.5-.6,.1-1.4,.2-1.6,1-.4,1.7-1.5,3-2.7,4.2-1.9,2-3.9,3.8-6.1,5.4-.5,.4-1.1,.4-1.6,.1-1.4-.8-2.9-1.3-4.4-1.9-1.3-.5-2.8-.9-3.9-1.7-2.7-1.9-5.6-3.4-8.4-5.2-.2-.1-.5-.1-.7,0-1.3,.5-1.4,.7-.8,2,.3,.9,.6,1.7,.9,2.6,.5,1.5,.7,3.1,1.6,4.5,.9,1.4,1.5,3,2.2,4.5,.5,1.1,1,2.1,1.9,3,.5,.5,.8,1.1,1.1,1.7,.6,1,1.1,2-.1,2.9-.1,0-.1,.1-.1,.2-.5,1.9-1.6,3.5-2.2,5.3-.2,.6-.4,1.1-.6,1.6-.8,1.7-1.5,3.4-2.3,5.1-.1,.3-.2,.6-.3,1-.6,1.6-.5,3.5-1.5,5-.4,1.8-1.2,3.3-2,4.9-.3,.6,0,1.5,.6,1.7,.6,.3,1.5,.1,1.8-.3,1.5-1.8,2.9-3.7,4.4-5.5,.2-.2,.4-.4,.6-.5,.8-.3,1.3-1,2-1.6,1.8-1.6,3.6-3.1,5.4-4.7,.1-.1,.3-.2,.4-.3,.6-.3,1.5-.1,1.8,.4,.9,1.3,1.8,2.7,2.3,4.2,1,2.9,2.3,5.6,4,8.1,.8,1.2,1.2,2.6,2.1,3.7,.4,.6,1.6,.6,2,0s.6-1.1,.6-1.9c0-1.4,.1-2.7,.1-4.1,.5-.8,.4-1.8,.5-2.7,0-1.8,.1-3.6,.1-5.4,0-1.3,0-2.7-.4-4-.3-.8,0-1.2,.8-1.6,1-.5,2-.8,3-1.4,1.5-.9,3.3-1.2,4.9-1.9,1.1,.1,1.9-.6,2.8-1,.6-.2,.8-.7,1-1.1,.7-.5,.5-1.3-.3-1.6Zm-15.2,14c-.1-.5-.2-1.1-.3-1.6h.2c.1,.5,.1,1,.1,1.6Zm-.8-21.2v-.3c.1-.1,.1-.2,.2-.4-.1,.3-.2,.5-.2,.7Z"/>
  <path class="cls-3" d="M56.4,72.4c-.1,.8,.1,1.8-.4,2.6-.1,.1-.1,.3-.1,.5-.1,2.9-.1,5.8-.1,8.7,0,.5,.3,.7,.9,.5,2.5-.7,5-1.3,7.5-1.8,.6-.1,1.3-.4,1.9-.5s1,.2,1.3,.7,.1,1.5-.3,1.9c-.7,.5-1.3,1.1-2,1.5-1.1,.6-1.9,1.4-2.6,2.4-1.3,1.8-2.9,3.3-4.5,4.8-1,1-1.9,2-1.8,3.5-.8,1.8-.9,3.7-1.4,5.6-.3,1.2-.4,2.5-.7,3.7-.3,1.4-.6,2.8-.9,4.2-.2,1-.2,2-.2,3,0,.8-.3,1.5-.6,2.1-.5,.9-1.2,.9-1.8,.2-.4-.4-.7-.8-.6-1.3,.1-.9-.3-1.6-.5-2.5-.4-1.5-1-3-1.3-4.6-.3-1.5-1.1-2.8-1.2-4.4,0-.3-.3-.6-.4-.9-.3-.7-.9-.9-1.4-.5-1.2,1-2.6,1.9-3.9,2.8-2.1,1.5-4.3,3-6.4,4.5-.6,.4-1.2,.9-1.8,1.3-.5,.4-1.1,.4-1.7,.1-.6-.2-.8-1-.5-1.5,1.4-1.8,2.4-3.9,3.1-6,.6-1.8,1.5-3.5,2.3-5.3,.9-2.1,1.8-4.4,2.9-6.4,.3-.6,.4-1.1,0-1.7-1-1.9-2-3.7-3.6-5.2s-3-3.2-4.8-4.5c-1-.7-1.8-1.8-2.7-2.7-.4-.4-.3-1.1,.1-1.6,.2-.2,.4-.4,.6-.5,.3-.2,.6-.4,.9-.2,1,.7,2.2,.7,3.4,1,2.1,.4,4.1,1,5.8,2.3,1.4,1.1,2.8,1.4,4.5,1.4h1.5c.2,0,.6-.1,.7-.3,.7-1.4,2.2-2.1,2.9-3.5,1.8-2,3-4.4,4.5-6.7,.3-.4,.6-.9,.9-1.2,.8-.8,1.8-.4,2.1,.4,.3,.9,.8,1.9,.6,2.9-.3,.4-.2,.8-.2,1.2Zm4.3,13.4c-1.4,.5-2.9,.9-4.3,1.4-.7,.2-1.3,.3-2,.3-.6,0-1.2-.6-1.2-1.1,0-.8,0-1.5,.2-2.3,.2-.6,.3-1.1,.3-1.7,.1-2.9,.1-5.8,.2-8.7v-1c0-.1-.1-.3-.2-.4-.1,.1-.3,.2-.4,.3-1.1,2.1-2.6,3.9-4.2,5.6-.5,1.3-2,1.8-2.1,3.4,0,.4-.5,.6-1,.7-1.9,.1-3.9,.1-5.7-.7-1.1-.5-2.2-.9-3.1-1.7-1.3-1-4.2-1.8-4.6-1.6,.1,.1,2,2.1,3,2.9,1.1,.9,2.2,1.9,2.9,3.1,.6,1,1.3,2,1.9,3,.4,.6,.8,1.3,1.6,1.6,.6,.3,.6,.9,.5,1.3-.2,.6-.5,1.2-.9,1.8-.3,.4-.7,.7-1,1.2-.5,.8-.9,1.6-1.2,2.5-.3,1-1.2,1.6-1.5,2.6-.8,2.5-1.9,4.8-3.1,7.1-.2,.4-.4,.9-.5,1.4l.1,.2c.4-.3,.8-.7,1.2-1,1.2-.8,2.4-1.6,3.6-2.4,2.3-1.4,4.6-2.9,6.4-5,.2-.2,.4-.4,.6-.5,.6-.4,1.6-.1,1.9,.6,.9,2.5,1.4,5,2,7.5,.2,1,.4,2.1,.8,3.1,.1,.1,.3,.2,.4,.3,0,0,.1-.1,.1-.2,0-1.1,.5-2.1,.6-3.2,.1-.8,.1-1.6,.4-2.5,.3-.7,0-1.7,.5-2.4,.1-1.7,.9-3.3,.7-5-.1-.8,.3-1.5,.7-2.1s1-1.2,1.6-1.6c.9-.4,1.5-1.1,2.1-1.8,1.6-1.7,3.2-3.5,4.8-5.2,.1,0,.6-.2,.3-.6-.1,.2-1.7,.5-2.4,.8Z"/>
  <path class="cls-3" d="M208.3,33.7c-.4-.3-1-.4-1.4-.1-2,1.2-4.2,1.6-6.3,2.4-2.4,.9-4.9,1.3-7,2.6-.3,.2-.5,0-.5-.3,0-1.4-.2-2.8,.1-4.1,.4-1.4,.2-2.9,.4-3.9,0-1.4,0-2.4,.1-3.4,0-.8-.6-1.3-1.2-1.4-.5,0-1.1,.4-1.3,1s-.3,1.1-.5,1.7c-.1,.3-.2,.7-.4,.9-.9,1.1-1.4,2.5-2.4,3.6-1,1-1.7,2.3-2.6,3.4-.4,.5-.6,1.2-1.1,1.3-.4,.2-1.1-.2-1.6-.3-.2,0-.3-.1-.5-.1-3.1-.9-6.3-1.8-9.4-2.8-1-.3-2-.3-3-.3-.7,0-1.1,.9-.8,1.5,.2,.4,.4,.8,.7,1,1.1,.5,1.6,1.5,2,2.5,.6,1.3,1.3,2.6,2.2,3.6,1.7,1.9,2.9,4.1,4.4,6.1,.2,.3,.4,.8,.4,1.2,0,.8,0,1.5-.4,2.2-.4,.9-.6,2-1,2.8-.7,1.4-.6,2.9-1.1,4.4-.2,.6-.1,1.3-.2,2-.1,1.3,0,2.7-.5,4-.2,.6-.2,1.3-.3,2-.1,.6,.2,1.2,1,1.5,.6,.2,.7,.2,1.3-.3l.7-.7c1.4-2.1,3.3-3.6,5-5.3,.9-.9,1.9-1.6,2.7-2.6,1.4-1.8,1.6-1.4,3.4-.4,.1,.1,.3,.2,.4,.3,2,2.1,4.4,3.8,6.3,5.9,1,1.1,2.1,2.2,3.2,3.3,.6,.6,1.3,1,2,1.5,.4,.3,1,0,1.3-.5,.4-.6,.7-1.2,.1-1.8-.3-1.8-1.1-3.5-1.9-5.2-.8-1.7-1.5-3.4-2.2-5.1-.6-1.3-1.1-2.7-2.1-3.7-.6-.6-.5-1.4-.1-2.1,1.2-2.1,2.4-4.2,3.9-6.2,.6-.8,1.3-1.6,1.8-2.4,1.6-2.7,3.5-5.2,5.9-7.2,.7-.6,.6-1.4,.9-2,0,0-.2-.4-.4-.5Zm-15.9,19.5h0Zm.6-.8c.1-.2,.3-.4,.4-.6h.2c-.1,.2-.4,.4-.6,.6Zm3.5-9.9c0-.1,0-.2-.1-.3,.2-.1,.4-.3,.6-.4-.1,.3-.3,.5-.5,.7Zm-19.4-3.3h0l-.1,.1s0-.1-.1-.1h.2Zm-2.6-2c.2,0,.5,0,.8,.1-.1,0-.2,.1-.3,.2-.2,0-.3,0-.5,.1v-.4h0Z"/>
  <path class="cls-3" d="M243.2,81.2c-.3,0-.7-.1-1,.1-1,.5-2.1,.4-3.2,.5-.3,0-.7,.1-1,.2-1.8,.7-3.8,.8-5.5,1.6-.4,.2-.8-.2-.7-.7,.8-2.7,1-5.4,1.6-8.1,.2-1,.6-1.9,.5-2.7v-1.8c0-.8-.4-1.2-1.1-1.5-.8-.3-.8-.4-1.3,.2-.4,.5-.7,1.1-1.2,1.6-2,2.2-4,4.4-6.1,6.4-2.9,2.8-2.8,2.6-6.5,.7-.2-.1-.4-.3-.6-.5-1.7-1.1-3.4-2.2-5.1-3.2-.9-.5-1.3-.4-2,.3-.5,.5-.9,1.1-.6,1.8,.1,.5,.5,1,.9,1.2,1.6,.9,2.4,2.3,3.2,3.8,1.2,2,2.5,4,3.7,6,.4,.6,.3,1.4-.1,1.9-.9,1.3-1.9,2.6-2.9,3.9-.5,.7-1,1.3-1.4,2.1-1.5,2.6-2,5.5-3.2,8.2v.2c-.1,.4,.3,1,.7,1.3,.3,.2,.6,0,.9-.1,.3-.2,.7-.3,.8-.5,.6-1.2,1.9-1.7,2.9-2.3,2.3-1.2,4.6-2.5,6.8-3.9,1.1-.7,2.2-1.3,3.3-1.9,.4-.2,.9-.1,1.1,.2,.3,.6,.7,1.2,.8,1.8,.1,1.9,.9,3.6,1.7,5.2,1.1,2.2,2.5,4.2,3.4,6.5,.3,.7,.8,1.3,1.2,1.9,.3,.4,1,.7,1.4,.5,.7-.3,1.3-.9,1.4-1.6,.1-.7,.3-1.5,0-2-.5-1.1-.3-2.2-.4-3.2-.1-.9-.3-1.8-.4-2.7-.1-1,0-2,0-3,0-.3-.1-.7-.2-1-.5-1.3-.6-2.8-1.2-4.1-.1-.2,0-.7,.1-.9,.9-1.2,1.9-2.4,2.9-3.5,1.2-1.3,2.5-2.5,3.8-3.7,.9-.8,1.6-1.8,2.7-2.3,.5-.2,.6-.8,.8-1.2,.3-.7-.2-1.7-.9-1.7Z"/>
  <path class="cls-3" d="M65.5,30.9c0,1,.1,2-.4,3-.1,.3-.1,.7-.1,1-.1,.8-.1,1.7-.4,2.5-.2,.5-.1,1.2-.1,1.8,0,.2,.2,.5,.5,.4,.3,0,.7-.1,1-.2,2.8-.9,5.6-1.6,8.4-2.6,.8-.3,1.7-.2,2.3-.9,.3-.3,1.3,0,1.8,.4,.2,.2,.3,1.2,.1,1.5-.1,.2-.3,.5-.4,.6-1.2,1.2-2.3,2.4-3.8,3.4-1.4,1-2.6,2.1-3.9,3.2-1.1,.9-1.5,2-1.6,3.3-.1,2-.1,3.9-.1,5.9,0,.2-.1,.5,0,.8,.5,1.2,.4,2.5,.4,3.8v5.1c0,.6-.1,1.1-.5,1.7-.5,.8-1.3,.9-1.8,.2-.1-.2-.3-.4-.4-.6-.4-1-1.1-1.7-1.7-2.5-1.7-2.4-4-4.4-5.7-6.7-.6-.9-1.4-1.7-2.5-2.1-.3-.1-.6-.1-.9,0-2.2,.7-4.2,1.7-6.1,3-1.6,1.1-3.4,2.1-5.1,3.2-.7,.5-1.4,1-2.1,1.4-.6,.4-1.1,.7-1.8,1-.4,.2-1,0-1.3-.5-.3-.4-.4-1-.1-1.4,.1-.2,.3-.4,.5-.6,1.9-1.8,3.3-4,5-6.1s3.1-4.4,5.1-6.3c.4-.4,.6-.8,.9-1.2,.9-1.2,1-1.4-.1-2.2-1.3-.9-2.3-2-3.4-3.1-1-1-2.1-1.9-3.4-2.6-1.7-1-3.2-2.2-5-3-.5-.2-.6-.6-.7-1-.1-.2-.1-.5,0-.7,.4-.7,1-1.1,1.9-1,1.2,.2,2.5,.5,3.7,.8,1.3,.3,2.5,.9,3.9,.9,.2,0,.5,.1,.7,.2,1.2,.5,2.5,.9,3.9,.9,.6,0,1.1,.4,1.7,.5,1.2,.2,2-.2,2.9-1.1,1.5-1.8,3.1-3.5,4.4-5.5,.4-.7,.9-1.4,1.3-2.1,.3-.4,.7-.8,1.2-.7,.6,.1,1,.4,1.2,1.1v.2c.7,.7,.6,1.8,.6,2.9Zm-20.3,5.2c.1,.1,1.6,1.1,2.1,1.6,.4,.5,1.1,.8,1.6,1.3s.9,1,1.4,1.4c1.2,1.1,2.5,2.2,4,3.1,.4,.2,.5,.7,.7,1,.3,.5-.2,.7-.5,1-.8,.9-1.7,1.7-2.5,2.5-.7,.7-1.5,1.4-2.1,2.2-1,1.2-1.8,2.4-2.8,3.6-.7,.9-1.5,1.8-2.2,2.7-.2,.3-.5,.6-.7,1,.6,.3,.9-.3,1.3-.5,2-1.1,4-2.2,6-3.2,1.6-.8,3.2-1.5,4.6-2.6,.9-.7,2.1-.6,2.9,.4,1.4,1.7,2.7,3.5,4.3,5,.2,.2,.4,.4,.5,.6,.8,1.6,2.5,2.5,3.3,4.1,0,0,.1,.1,.2,0,.1,0,.1-.1,.1-.2,0-1,.4-1.9,.1-2.9-.2-.6-.1-1.4-.1-2,0-.5,0-1-.1-1.5-.5-1.5-.3-3-.1-4.5,0-.4,.1-.8,0-1.2-.2-.7-.3-1.5-.3-2.2,0-1,1.1-1.2,1.7-1.8,.9-.9,1.8-1.9,2.8-2.6,1.2-.8,2.1-1.8,3-2.7,.1-.1,.2-.3,.2-.4-.2-.1-.5-.2-.7-.2-.6,.1-1.1,.3-1.7,.5-2.9,1-5.9,1.8-8.7,3.2-.6,.3-1.5-.1-1.5-.8,0-.8-.1-1.6,.2-2.2,.3-.8,.3-1.7,.4-2.5,.2-.9,.4-1.8,.5-2.7,.1-.8,.1-1.7,.1-2.5,0-.5,.7-.9,.1-1.4-.2-.2-.3-.1-1.1,.9-1.6,2-3.1,4-4.7,6-.4,.6-.9,1-1.7,.9-.4,0-.9,.1-1.3-.1-1.5-.7-3.2-1-4.8-1.3-1.5-.3-4.2-1.3-4.5-1Z"/>
  <path class="cls-3" d="M249.5,41.3c-.2-.6-.9-.9-1.5-.7-.5,.1-1,.4-1.4,.4-1.5,.1-3,0-4.5,.5-.8,.2-1.6,0-2.5,.4-.8,.4-1.9,0-2.7,.5-.1,0-.3,0-.4-.2-.1-.1-.1-.3,0-.5,1.6-3.1,3-6.2,5-9.1,.9-1.2,1.6-2.6,2.4-3.9,.2-.3,.3-.6,.1-.9-.2-.4-.4-.8-.6-1.1-.3-.3-1.4-.1-1.7,.1-.3,.3-.6,.6-.9,.9-1,1-2.2,1.8-3.5,2.5-2.6,1.4-5.4,2.5-7.8,4.1-.3,.2-.6,.4-.9,.1-.5-.3-1.1-.3-1.7-.3s-1.1-.1-1.7-.3c-2.4-.8-4.5-2.2-6.5-3.8-.6-.5-1.1-.7-1.9-.6-.5,.1-1.1,.6-1.1,.9s.2,.6,.4,.9,.5,.5,.7,.7c.7,.6,1.2,1.4,1.6,2.2,.5,1,.9,2,1.5,2.9,1.2,1.8,2,3.7,2.9,5.6,.2,.4,.2,.8,.4,1.2-.1,.4-.2,.7-.3,1-.7,1.2-1.3,2.6-2.2,3.7-1.9,2.3-3.6,4.7-5.2,7.1-.5,.8-1,1.7-1.5,2.6-.4,.8,.3,1.7,1.2,1.8,1,0,1.8-.3,2.5-1,.9-1,2.1-1.8,3.4-2.2,1.2-.4,2.1-1.1,3.1-1.6,.4-.2,.7-.5,1.1-.6,.8-.4,1.5-1.1,2.5-1,.5,.7,1,1.4,1.4,2,.2,.3,.4,.6,.6,.8,.9,.9,1.2,2,1.4,3.2,.4,2.9,2.3,4.8,4.2,6.7,.1,.1,.3,.1,.5,.1,.8-.4,1.3-1,1.8-1.7-.7-.9,.4-1.7,.2-2.7-.1-.7-.1-1.4,.1-2,.5-1.5,.4-3,.5-4.5,0-.3,0-.7,.1-1,.6-1.4,.5-2.8,.2-4.2-.1-.5,.1-.8,.4-1,1.8-1.1,3.5-2.3,5.4-3.2,1.6-.9,3.2-1.9,4.7-2.9,.3-.5,.5-1.2,.2-1.9Zm-16.4-2.7s-.1,0,0,0q-.1-.1-.1-.2h.3c-.1,.1-.2,.1-.2,.2Zm-6-.4q-.1,0-.2,.1v-.1q.1-.1,.2,0Zm8.7,10.6h0s0-.1,0,0h0Zm-14.6-13.9h0Z"/>
  <path class="cls-5" d="M284.7,296c0-.5-.5-1.1-1.1-1.2-.7-.2-1.2,0-1.5,.6-.4,.6-.7,1.2-1,1.8-.9,1.9-2.3,3.4-4.1,4.4-1.1,.6-2.4,1.1-3.6,1.7-.1,.1-.4-.1-.4-.2-.1-.6-.1-1.2-.1-1.8,.8-.7,0-1.6,.3-2.4,.3-.7,.1-1.7,.1-2.5,.1-1.7,.1-3.5,.1-5.3,0-1.6,.1-3.2,0-5.2,0-1.1,.2-2.3-.1-3.3-.4-1.1-.3-2.1-.4-3.2,0-.2,0-.4-.1-.5-.8-1.9-.8-4.1-1.2-6.1-.3-1.7-.8-3.3-1.5-4.8-.5-.9-.9-1.8-1.2-2.8-.4-1.3-1.2-2.6-2.1-3.7-.1-.2-.7-.3-.9-.2-.8,.3-1.3,.9-1.4,1.9-.1,.8,0,1.7-.3,2.5-.9,2.4-1.2,4.9-1.9,7.3-.4,1.5-.6,3.1-1.1,4.6-.5,1.3-1,2.6-1.1,4.1-.1,1.1-.7,2.2-1.5,3.1-.2,.2-.3,.2-.4,0-.7-1.7-1.3-3.5-1.5-5.3-.1-1.3-.2-2.7-.4-4-.2-1.6-.9-2.8-1.9-3.8-.7-.7-1.5-.7-2.2,.1-.3,.4-.6,.8-.7,1.3-.4,2-1.2,3.8-1.1,5.9-.6,1-.2,2.2-.6,3.2-.5,1.1-.3,2.3-.4,3.5-.1,.5,.1,1-.1,1.3-.6,1.3-.4,2.8-.5,4.2-.1,.6,.1,1.3-.1,1.8-.6,1.6-.4,3.2-.5,4.8-.1,.6,0,1.3-.2,1.8-.3,.7-.3,1.3-.3,2,0,2.2-.1,4.3-.1,6.4,0,.5,.1,1.1-.1,1.5-.6,1.3-.4,2.6-.5,3.8-.1,.3,.1,.7-.1,1-.6,1-.3,2-.4,3-.1,.6-.1,1.3-.1,2-.1,.9-1,4.3-1.4,5.1-.2,.3-.6,.4-.8,.1-1-1.3-2-2.7-3-4-.8-1.2-1.8-2.3-3.2-2.8-.7-.3-1.7,.3-1.7,1,0,1,0,1.9,.2,2.8,.1,.5,.2,1.1,.2,1.7v4.1c0,.8-.2,1.7,.1,2.5,.5,1.5,.4,2.9,.4,4.3,.1,1.2,.1,2.4,0,3.6-.1,1.1,.5,2.1,.5,3.2v5.6c0,2,0,3.9-.5,5.8-.3,1-.4,2-.6,3-.2,1.1,0,2.3-.2,3.3-.3,1.3-.4,2.7-.5,4,0,.2-.2,.3-.2,.5-.1,.5-.2,1-.2,1.5,0,1.9-.1,3.7-1,5.4-.1,.3-.1,.8,0,1,.3,.4,.4,.9,.5,1.4,.1,.3,.5,.7,.8,.9,1.1,.6,2.3,.7,3.4,1,.7,.2,1.3-.6,1.9-.7,.7-.1,1.3-.2,2-.2,1.2,0,2.2-.4,3-1.2,.5-.5,1-1,1.6-1.3,1.9-1,3.4-2.5,4.9-4,.9-.9,1.8-1.9,2.8-2.7,.7-.6,1.3-1.3,1.9-2,1-1.3,1.8-2.8,3.2-3.8,.7-1.6,2.5-2.2,3.4-3.6,1.6-1,2.6-2.5,4.1-3.6,.4-.3,.7-.8,1-1.2,1.8-2.1,3.2-4.5,5.3-6.4,.4-.3,.7-.8,.9-1.2,1.7-3.1,3.5-6.2,4.5-9.6,.1-.5,.2-1,.2-1.5-.1-.8-1.3-1.3-2-.8l-.9,.9c-1.1,1-2.3,1.8-3.6,2.3-1.9,.8-3.8,1.4-5.7,2-.2,.1-.4,0-.5-.1,0,0,.1-.1,.1-.2,.8-1.3,1.4-2.7,2.3-3.9,.7-.9,1.2-2,1.8-3,1.1-1.8,2.1-3.8,3.5-5.5,1.2-1.5,2.4-3.1,3.2-4.8,.9-1.7,2-3.3,2.7-5.1,0-.1,.1-.1,.1-.2,.5-1.5,1.1-3,1.5-4.5s.7-2.9,1.1-4.4c.5-1.6,.7-3.2,1.1-4.7,.2-1.1,.1-2.2,.1-3.3Zm-13.9,8.5c.1,.1,.1,.3,.2,.4q-.1,0-.2-.1v-.3Zm1.6,6.4c.1-.5,.2-.8,.2-1.2h.2c-.1,.4-.3,.8-.4,1.2Zm.6,5.3v.5c0,.1-.1,.2-.1,.3h-.2c.1-.3,.2-.5,.3-.8Zm-7-41.4v-.4c0-.1,0-.2,.1-.3l-.1,.7Zm-1.9,9.4h-.3s0-.1,.1-.2c0-.1,.1-.3,.1-.4,0,.2,0,.4,.1,.6Zm-3.4,5.8c-.1,.1-.1,.2-.2,.3h-.5c.2-.1,.5-.2,.7-.3Zm-1,13.9c0,.1-.1,.1-.1,.1l.1-.1q-.1,0,0,0Zm-10.6,8.7c0,.8-.1,1.7-.1,2.5v-.5c0-.7-.1-1.4,.1-2Zm-.5,16v.4c-.1-.2-.2-.3-.3-.4h.3Zm-6.3,21.1c.1-.1,.1-.2,.1-.3,.7-2.5,2-13.6,2-14.1,.2-.5,.4-1,.6-1.5h.5c.3,.7,1.4,.8,1.8,.2,.2,.2,.4,.3,.6,.4,.4,.3,.8,.6,1.1,.9,.6,.4,1.5,.4,1.7-.5,.7-2.7,1-5.4,1.1-8.2,0-.1,0-.3-.1-.4,0-.2,.1-.5,.1-.7,.3-.2,.5-.5,.6-.8,.2-3,.5-6.1,1-9.1,.5-2.2,.9-4.3,1.2-6.5,.1-.4-.1-.7-.3-.9,.4-.6,.7-1.2,.9-2v-.6c0-.1,.1-.2,.2-.3,.1-.2,.2-.5,.1-.7,.1-.1,.2-.2,.2-.3,.3-.5,.5-1,.7-1.6,.6,3,1.3,6,1.9,9,.2,.8,1.5,1,1.9,.2,.9-1.6,1.6-3.3,2.2-5,.5-1.2,1-2.4,1.5-3.6,.4,.1,1,0,1.2-.5,0,.4,0,.8,.1,1.2,0,.3,.2,.6,.4,.7,.3,.7,.3,1,.2,1.4-.1,1.3-.2,2.6-.2,3.9-1.1,3.7-2.1,7.5-3,11.3-.2,.5-.3,1.1-.5,1.6-.2,.1-.4,.3-.5,.5-1.4,3.9-2.6,7.8-3.7,11.7-.4,1.2-.7,2.5-1,3.8-.1,.5-.3,1.1-.4,1.7v.6c-.1,.6-.2,1.2-.2,1.7-.1,.7,.7,1.1,1.3,1,2.4-.5,4.7-1.4,6.8-2.6,0,.1,.1,.2,.1,.2,.5,.6-.7,2.6-1,3.1-.5,1.1-1.2,2.2-1.9,3.2-.2,.3-.2,.6-.1,.9,0,0,0,.1-.1,.1l-.3,.3c-.3-.2-.8-.2-1.2,.1-2.5,2.1-4.7,4.4-6.7,6.9q-.1,.1-.2,.2c-.1,.1-.2,.3-.3,.4-.3,.3-.5,.7-.8,1-.1,.2-.2,.3-.2,.5-2.3,1.8-4.6,3.7-6.5,5.9-1.3,.8-2.4,1.8-3.3,3.1-.2,.2-.5,.4-.8,.6,.2-2,.2-4-.1-6.1,0-.2-.1-2.5-.1-2.5,.4,0,1.4-6.5,1.4-9.5Zm4.8-24.9c.1-.2,.1-.3,.2-.5,0,.2,0,.4-.2,.5,.1,.1,0,0,0,0Zm20,23.5h0c-.1,.2-.2,.3-.3,.5,.1-.2,.2-.3,.3-.5Zm-2.3-10.6q-.1,0-.2-.1v-.1q.1,.1,.2,.2Zm3-68.4c.1,.1,.1,.3,.2,.4l-.1-.1s0-.2-.1-.3Zm13.1,30.9h0Zm1-.7s.1,.1,.1,.2v.1c-.2-.1-.3-.1-.5-.1l.2-.2h.2Zm-5.2,4.8c-1,.4-3.3,1.2-3.5,1.2,0,0,3.5-1.3,3.5-1.2Zm-35.3,20c-.2-.1-.3-.1-.5-.2,0-.2,0-.3-.1-.5,.2,.2,.4,.4,.6,.7Zm-2.5-3c-.1,.1-.1,.2-.2,.3,.1-.1,.1-.2,.2-.3h0Z"/>
  <path class="cls-4" d="M105.9,115h1.8c1.2,0,2.1,.5,2.9,1.3,.2,.2,.4,.5,.1,.9-1,1.1-2.1,2.2-3.5,2.9-1.4,.8-2.9,1.4-4.1,2.5-.3,.3-.7,.4-1.1,.5-1,.5-2,1-3,1.3-1,.4-2.2,.4-3.1,.9-1.4,.6-2.9,.9-4.3,1.3-.2,0-.3,.1-.5,.2-1,.3-2,.9-3,1.2s-2.1,.5-3.1,.8c-1.7,.5-3.2,1.5-4.6,2.5-1.7,1.1-3.5,2-5.5,2.4-.9,.2-1.5-.5-1.3-1.4s.4-1.5,1.3-2c.8-.4,1.4-1.1,1.9-2,1.8-2.8,3.6-5.5,5.5-8.2,.2-.4,.5-.7,.6-1.1,.8-2.8,2.6-5.1,4.2-7.5,.2-.3,.4-.5,.6-.8,1.9-3.4,3.7-6.8,5.6-10.2,.9-1.7,1.4-3.6,1.8-5.5,.3-1.6,.8-3.1,1.4-4.6,.6-1.6,1.4-3.2,1.9-4.9,.3-.9,1.4-1.2,2.3-.3,.6,.6,.9,1.4,1.2,2.2,.2,.5,.3,1.1,.6,1.6,.6,1,1,2.1,1,3.4,0,.1,.2,.4,.3,.4,.2-.1,.4-.2,.6-.3,.1,0,0-.2,.1-.2,.3-1,.6-1.9,.8-2.9,.6-2.2,1.6-4.2,2.5-6.3,.4-1,.9-2,1.6-2.8,1.4-1.6,2.4-3.6,4.4-4.8,.8-1.6,2.6-2.1,3.7-3.4,.3-.3,.7-.4,1.1-.6h.4c.9,.6,1.2,1.3,.8,2.1-1.9,4-3.2,8.3-4.6,12.5-.4,1.4-.6,2.8-1,4.1-.2,.9-.4,1.8-.5,2.7-.1,.5,.3,.7,.8,.5,.3-.1,.6-.2,.9-.4,2.5-1.8,5.4-2.7,8.3-3.5,.2-.1,.5-.3,.7-.3,1.2,0,2.3-.3,3.4-.9,.7-.4,2,.5,2.1,1.3,0,.1,0,.4-.1,.5-.3,.4-.7,.9-1.1,1-1.6,.4-2.5,1.6-3.8,2.4-.9,.5-1.6,1.2-2.4,1.9-.7,.6-1.1,1.5-1.9,1.9-.3,.2-.6,.6-.8,.9-.6,.6-1,1.4-1.7,1.8-1,.6-1.8,1.5-2.7,2.3-1.9,1.7-3.9,3.2-6.1,4.4-.4,.2-.8,.4-1.1,.7-2.1,2-4.1,4-6.2,6.1q-.1,.1-.1,.2c0,.2,.1,.6,.2,.6,.7,.2,1.4,.5,2.2,.6,.2,.1,.9,0,1.6,.1h0Zm-25.9,13.9c1.7-1.4,3.7-2.3,5.9-2.6,.1,0,.1-.1,.2-.1,1.1-.1,2-.8,3.1-1.1,1.4-.5,2.9-.8,4.4-1.2,2.8-.8,5.6-1.9,8.2-3.1,1.8-.8,3.3-2,4.8-3.2,.1-.1,.1-.2,.1-.4,0,0-.1-.1-.2-.1-2.2,0-4.4-.1-6.6-.1-1.2,0-1.6-.5-1.7-1.7,0-.7,.2-1.3,.8-1.8,.6-.6,1.2-1.2,1.7-1.9,1.8-2.2,5.3-5.7,7.4-6.8,2.7-1.4,5-3.5,7.3-5.5,2.5-2.2,4.9-4.7,7.3-7.1,.2-.2,.2-.3,0-.4h-.2c-1.2,.5-2.6,.8-3.7,1.5s-2.4,1.2-3.5,1.9c-.9,.5-1.8,1-2.7,1.4-.8,.4-1.8-.2-1.8-1.2,0-.5-.1-1.1,.1-1.5,.4-.8,.4-1.6,.5-2.5,0-.4,.1-.8,.2-1.2,.7-2.5,1.3-5,2.2-7.4,.8-2,1.4-4.1,2.1-6.2,0,0-.1-.1-.1-.2s-.2-.1-.2,0c-.2,.1-.4,.2-.6,.4-2.1,1.5-3,4.1-4.8,5.8-.1,0-.1,.1-.1,.2-.8,2.5-2.1,4.8-3,7.2-.6,1.5-.9,3-1.7,4.4-.1,1.2-.9,1.8-1.7,2.4-.7,.6-2,.1-1.9-.8,0-1.1-.4-2.1-.6-3.2-.2-1.2-.6-2.5-1.3-3.5-.1-.1-.3-.2-.4-.3-.1,.1-.2,.2-.3,.4-.3,.8-.7,1.5-.9,2.3-.9,3.4-2,6.7-3.3,10-.1,.3-.2,.6-.4,.9-1.3,2.3-2.7,4.6-4,7-1.2,2.1-2.5,4.2-3.8,6.2-.5,.9-1.1,1.7-1.5,2.6-.2,.4-.2,.8-.4,1.2-1.7,2.7-3.1,5.6-5.1,8.1-.3,.4-.9,1.1-.7,1.5,0,0,.7-.2,.9-.3Z"/>
  <path class="cls-4" d="M266.7,304.8c-.2,1.4-.3,2.9-.8,4.4-.5,1.7-.7,3.4-1.2,5.1-.6,1.6-.9,3.2-1.2,4.9-.1,.3-.1,.7-.2,1-.9,2.7-1.8,5.4-2.6,8.1-.2,.7-.4,1.4-.6,2.2-.6,2.4-1.6,4.7-2.2,7.2-.4,1.7-.9,3.4-.8,5.2,0,.5,.2,.7,.5,.5,1.1-.6,2.3-1.1,3.3-1.9,1.2-1,2.5-.9,3.8-.8,.2,0,.4,.3,.5,.5,.3,.6,.5,1.1,.1,1.9-1,1.9-2,3.7-3.5,5.2-.4,.3-.6,.8-.9,1.2-.3,.4-.7,.8-1.1,1.1-2,1.5-3.9,3.3-5.4,5.3-1,1.3-2.2,2.4-3.4,3.4-1.8,1.6-3.3,3.4-5.2,4.8-1,1.7-2.8,2.7-3.8,4.4-.1,.3-.5,.5-.7,.7-.4,.3-1.3,0-1.4-.6,0-.2-.1-.4,0-.5,.7-1.2,.3-2.5,.5-3.7s.5-2.5,.8-3.7c.1-.3,.2-.6,.2-1,.2-1.4,0-2.8,.4-4.3,.4-1.4,.2-2.9,.3-4.3,0-1.2,.2-2.3,.5-3.5,.2-1,0-2.2,.5-3.2,.1-1.8,.9-3.4,.7-5.2-.2-1.6,.3-3.2,.9-4.7,.2-.5,0-1.1,.6-1.3,.7-.2,1.5-.2,2.2,.3s1.3,1,2,1.5c.4,.3,.8,.1,.9-.4,.2-1.3,.6-2.6,.7-4,0-1,.5-1.9,.5-3-.1-.9,.2-1.8,.5-2.7,.2-.5,.1-1.2,.1-1.8,0-.8-.1-1.7,.4-2.5,.2-.3,.1-.8,.1-1.2,.1-1.2-.1-2.4,.5-3.5,.1-.1,0-.3,0-.5-.1-2,.7-4,.6-6,0-.7,.4-1.5,.5-2.2s0-1.5,.4-2.2c.2-.3,.2-.8,.2-1.2,0-.7,.3-1.1,.6-1.7,.3-.5,.6-.5,1-.3,1.4,1,1.9,2.4,2,3.9,.1,1.7,.8,3.3,.6,5,0,.4,.3,.8,.4,1.2,0,.1,.3,.1,.3,.1,.8-1.5,1.5-3,2.2-4.5,.7-1.6,1.4-3.2,2.1-4.8,.1-.2,.2-.4,.4-.6,.3-.3,.8-.5,1.1-.3,.4,.2,.8,.5,.9,.8,.2,.7,.1,1.4,.2,2.2Zm-22.8,58.4c.9-1.3,1.7-2.2,2.8-2.9,1.4-1,2.6-2.2,3.8-3.4,1.1-1.2,2.2-2.3,3.3-3.5,1.3-1.5,2.7-3.1,4.5-4.1,.4-.2,.7-.5,.9-.9,.6-1,1.4-1.7,2.1-2.5,.5-.6,.9-1.2,1.2-1.9,.1-.1,0-.3-.1-.4h-.2c-.7,.3-1.4,.4-2.1,.9-1,.9-2.3,1.5-3.6,1.8-1.3,.3-2.2-.3-2.1-1.7,0-1.1-.2-2.2,.5-3.2-.1-1.9,.6-3.6,1.1-5.4,.3-1.2,.7-2.4,1-3.6,.6-2.1,1.5-4.1,2.2-6.2,.8-2.2,1.3-4.5,2.2-6.7,.5-1.3,.4-2.8,1-4.1,.5-1,.5-2.1,.5-3.2,0-.1-.2-.2-.3-.3l-.2,.1c-.4,.7-.7,1.3-1.1,2-.5,.9-1.1,1.7-1.7,2.5-.1,.2-.7,.3-.9,.2-.8-.3-1.4-.8-1.4-1.7,0-1.7-.7-3.3-.5-5v-.4l-.3-.3c-.1-.1-.5,.1-.6,.4-.3,1.8,.1,3.7-.6,5.5,0,1-.3,2-.5,3-.2,1.1-.1,2.2-.1,3.3,0,.2,0,.5-.1,.7-.5,.7-.3,1.5-.4,2.2,0,.5,.1,1.1-.1,1.5-.7,1.7-.4,3.5-.9,5.2-.4,1.3-.4,2.7-.7,4s-.8,2.6-2,3.4c-.5,.3-1.2,.3-1.6-.1-.4-.4-.7-.7-1-1.2s-.7-.5-1-.7-.5,0-.5,.2c.1,1-.5,2-.5,3-.1,1.1-.2,2.2-.5,3.2-.2,.9-.5,1.8-.6,2.7-.2,2.1-.8,4.2-.6,6.3,0,.6,.1,1.2-.1,1.8-.6,1.8-.4,3.7-.5,5.5,0,.6,0,1.2-.2,1.8-.4,.9-.9,2.8-.6,3.2,.1-.5,1-.9,1.1-1Z"/>
  <path class="cls-1" d="M15.4,393.8c-1.1,0-1.1,1.6,0,1.6s1.1-1.6,0-1.6Z"/>
  <path class="cls-1" d="M26.4,392.9h-.4c-.2,0-.4,.1-.6,.2-.1,.1-.2,.4-.2,.6,0,.4,.4,.8,.8,.8h.4c.2,0,.4-.1,.6-.2,.1-.1,.2-.4,.2-.6,0-.4-.3-.8-.8-.8Z"/>
  <path class="cls-1" d="M38.3,393.8c-1.1,0-1.1,1.6,0,1.6s1-1.6,0-1.6Z"/>
  <path class="cls-1" d="M51.9,392.9c-1.1,0-1.1,1.6,0,1.6,1,0,1-1.6,0-1.6Z"/>
  <path class="cls-1" d="M64.1,393.3c-1,0-1,1.6,0,1.6,1.1,.1,1.1-1.6,0-1.6Z"/>
  <path class="cls-1" d="M75.6,393.3h-.9c-.4,0-.8,.4-.8,.8s.4,.8,.8,.8h.9c.4,0,.8-.4,.8-.8s-.4-.8-.8-.8Z"/>
  <path class="cls-1" d="M85.8,393.3c-1.1,0-1.1,1.6,0,1.6,1,.1,1-1.6,0-1.6Z"/>
  <path class="cls-1" d="M97.6,392.9c-1.1,0-1.1,1.6,0,1.6s1.1-1.6,0-1.6Z"/>
  <path class="cls-1" d="M108.6,392.9c-1.1,0-1.1,1.6,0,1.6s1.1-1.6,0-1.6Z"/>
  <path class="cls-1" d="M120.5,392.9c-1.1,0-1.1,1.6,0,1.6s1.1-1.6,0-1.6Z"/>
  <path class="cls-1" d="M133.2,393.3c-1,0-1,1.6,0,1.6,1.1,.1,1.1-1.6,0-1.6Z"/>
  <path class="cls-1" d="M144.8,394c-.1-.1-.3-.3-.4-.4-.1-.2-.4-.2-.6-.2s-.4,.1-.6,.2c-.1,.2-.2,.4-.2,.6s.1,.4,.2,.6c.1,.1,.3,.3,.4,.4,.1,.2,.4,.2,.6,.2s.4-.1,.6-.2c.1-.2,.2-.4,.2-.6,.1-.2,0-.4-.2-.6Z"/>
  <path class="cls-1" d="M157.4,392.9c-1,0-1,1.6,0,1.6s1-1.6,0-1.6Z"/>
  <path class="cls-1" d="M172.2,392.1h-.4c-.2,0-.4,.1-.6,.2-.1,.1-.2,.4-.2,.6,0,.4,.4,.8,.8,.8h.4c.2,0,.4-.1,.6-.2,.1-.1,.2-.4,.2-.6,0-.5-.3-.8-.8-.8Z"/>
  <path class="cls-1" d="M187.2,392.7c-.1-.1-.4-.2-.6-.2-.4,0-.8,.4-.8,.8v.4c0,.2,.1,.4,.2,.6,.1,.1,.4,.2,.6,.2,.4,0,.8-.4,.8-.8v-.4c0-.2,0-.4-.2-.6Z"/>
  <path class="cls-1" d="M201.5,392.1c-1,0-1,1.6,0,1.6s1-1.6,0-1.6Z"/>
  <path class="cls-1" d="M217.1,392.9c-1,0-1,1.6,0,1.6s1.1-1.6,0-1.6Z"/>
  <path class="cls-1" d="M229.9,392.9c-1,0-1,1.6,0,1.6s1-1.6,0-1.6Z"/>
  <path class="cls-1" d="M248.1,393.3c-1,0-1,1.6,0,1.6,1,.1,1-1.6,0-1.6Z"/>
  <path class="cls-1" d="M261.2,393.3c-1,0-1,1.6,0,1.6,1.1,.1,1.1-1.6,0-1.6Z"/>
  <path class="cls-1" d="M275.2,392.5c-1,0-1,1.6,0,1.6s1.1-1.6,0-1.6Z"/>
  <path class="cls-1" d="M288.8,392.9c-1,0-1,1.6,0,1.6s1-1.6,0-1.6Z"/>
  <path class="cls-1" d="M300.5,392.1c-1,0-1,1.6,0,1.6s1.1-1.6,0-1.6Z"/>
  <path class="cls-1" d="M300.5,383.1c-1,0-1,1.6,0,1.6,1.1,0,1.1-1.6,0-1.6Z"/>
  <path class="cls-1" d="M301.5,369.8c-.1-.1-.4-.2-.6-.2-.4,0-.8,.4-.8,.8v.4c0,.2,.1,.4,.2,.6,.1,.1,.4,.2,.6,.2,.4,0,.8-.4,.8-.8v-.4c.1-.3,0-.5-.2-.6Z"/>
  <path class="cls-1" d="M300.5,354.7c-1,0-1,1.6,0,1.6s1.1-1.6,0-1.6Z"/>
  <path class="cls-1" d="M301.4,342.8c-1,0-1,1.6,0,1.6,1,.1,1-1.6,0-1.6Z"/>
  <path class="cls-1" d="M300.5,329.3c-.4,0-.8,.4-.8,.8v.8c0,.4,.4,.8,.8,.8s.8-.4,.8-.8v-.8c.1-.4-.3-.8-.8-.8Z"/>
  <path class="cls-1" d="M298.8,314.4c-1,0-1,1.6,0,1.6,1.1,.1,1.1-1.6,0-1.6Z"/>
  <path class="cls-1" d="M299.3,298.8c-1,0-1,1.6,0,1.6s1-1.6,0-1.6Z"/>
  <path class="cls-1" d="M299.7,285.2c-1,0-1,1.6,0,1.6s1-1.6,0-1.6Z"/>
  <path class="cls-1" d="M299.7,272.1c-1,0-1,1.6,0,1.6s1-1.6,0-1.6Z"/>
  <path class="cls-1" d="M299.3,259.4c-1,0-1,1.6,0,1.6s1-1.6,0-1.6Z"/>
  <path class="cls-1" d="M299.4,244.3c-.1-.1-.4-.2-.6-.2-.4,0-.8,.4-.8,.8v.4c0,.2,.1,.4,.2,.6,.1,.1,.4,.2,.6,.2,.4,0,.8-.4,.8-.8v-.4c.1-.2,0-.4-.2-.6Z"/>
  <path class="cls-1" d="M299.4,231.6c-.1-.1-.4-.2-.6-.2-.4,0-.8,.4-.8,.8v.4c0,.2,.1,.4,.2,.6,.1,.1,.4,.2,.6,.2,.4,0,.8-.4,.8-.8v-.4c.1-.2,0-.4-.2-.6Z"/>
  <path class="cls-1" d="M298.4,217.4c-1,0-1,1.6,0,1.6,1.1,0,1.1-1.6,0-1.6Z"/>
  <path class="cls-1" d="M298.4,203.8c-1,0-1,1.6,0,1.6,1.1,.1,1.1-1.6,0-1.6Z"/>
  <path class="cls-1" d="M298.8,192.4c-1,0-1,1.6,0,1.6,1.1,0,1.1-1.6,0-1.6Z"/>
  <path class="cls-1" d="M298.8,179.7c-1,0-1,1.6,0,1.6,1.1,0,1.1-1.6,0-1.6Z"/>
  <path class="cls-1" d="M298.8,167c-1,0-1,1.6,0,1.6,1.1,0,1.1-1.6,0-1.6Z"/>
  <path class="cls-1" d="M298.4,152.1c-1,0-1,1.6,0,1.6,1.1,.1,1.1-1.6,0-1.6Z"/>
  <path class="cls-1" d="M299.4,136.3c-.1-.1-.4-.2-.6-.2-.4,0-.8,.4-.8,.8v.4c0,.2,.1,.4,.2,.6,.1,.1,.4,.2,.6,.2,.4,0,.8-.4,.8-.8v-.4c.1-.3,0-.5-.2-.6Z"/>
  <path class="cls-1" d="M298.4,121.6h-.4c-.2,0-.4,.1-.6,.2-.1,.1-.2,.4-.2,.6,0,.4,.4,.8,.8,.8h.4c.2,0,.4-.1,.6-.2,.1-.1,.2-.4,.2-.6,0-.4-.3-.8-.8-.8Z"/>
  <path class="cls-1" d="M298.8,109.7c-1,0-1,1.6,0,1.6,1.1,.1,1.1-1.6,0-1.6Z"/>
  <path class="cls-1" d="M298.8,96.6c-1,0-1,1.6,0,1.6,1.1,0,1.1-1.6,0-1.6Z"/>
  <path class="cls-1" d="M297.6,82.6c-1,0-1,1.6,0,1.6,1,.1,1-1.6,0-1.6Z"/>
  <path class="cls-1" d="M298.8,66.5c-1,0-1,1.6,0,1.6,1.1,0,1.1-1.6,0-1.6Z"/>
  <path class="cls-1" d="M298.4,56.7c-1,0-1,1.6,0,1.6,1.1,0,1.1-1.6,0-1.6Z"/>
  <path class="cls-1" d="M298.8,42.2c-1,0-1,1.6,0,1.6,1.1,0,1.1-1.6,0-1.6Z"/>
  <path class="cls-1" d="M298.2,28.9c-1,0-1,1.6,0,1.6s1.1-1.6,0-1.6Z"/>
  <path class="cls-1" d="M250.4,14.8c-.1-.1-.4-.2-.6-.2-.4,0-.8,.4-.8,.8v.4c0,.2,.1,.4,.2,.6,.1,.1,.4,.2,.6,.2,.4,0,.8-.4,.8-.8v-.4c0-.2-.1-.4-.2-.6Z"/>
  <path class="cls-1" d="M236.2,14.4c-1,0-1,1.6,0,1.6s1.1-1.6,0-1.6Z"/>
  <path class="cls-1" d="M277.1,15.4c-.1-.1-.4-.2-.6-.2-.4,0-.8,.4-.8,.8v.4c0,.2,.1,.4,.2,.6,.1,.1,.4,.2,.6,.2,.4,0,.8-.4,.8-.8v-.4c0-.3-.1-.5-.2-.6Z"/>
  <path class="cls-1" d="M297.4,15.4c-.1-.1-.4-.2-.6-.2-.4,0-.8,.4-.8,.8v.4c0,.2,.1,.4,.2,.6,.1,.1,.4,.2,.6,.2,.4,0,.8-.4,.8-.8v-.4c0-.3-.1-.5-.2-.6Z"/>
  <path class="cls-1" d="M262.9,14.9c-1,0-1,1.6,0,1.6s1.1-1.6,0-1.6Z"/>
  <path class="cls-1" d="M223.1,14c-1,0-1,1.6,0,1.6s1-1.6,0-1.6Z"/>
  <path class="cls-1" d="M211.2,14.4c-1,0-1,1.6,0,1.6s1.1-1.6,0-1.6Z"/>
  <path class="cls-1" d="M198.9,14.4c-1,0-1,1.6,0,1.6,1.1,0,1.1-1.6,0-1.6Z"/>
  <path class="cls-1" d="M185.8,15.2c-1,0-1,1.6,0,1.6,1,.1,1-1.6,0-1.6Z"/>
  <path class="cls-1" d="M171.4,14.4c-1,0-1,1.6,0,1.6s1-1.6,0-1.6Z"/>
  <path class="cls-1" d="M156.5,14.8c-1,0-1,1.6,0,1.6s1.1-1.6,0-1.6Z"/>
  <path class="cls-1" d="M143.8,14.4c-1,0-1,1.6,0,1.6,1.1,0,1.1-1.6,0-1.6Z"/>
  <path class="cls-1" d="M129.8,14.4c-1,0-1,1.6,0,1.6s1.1-1.6,0-1.6Z"/>
  <path class="cls-1" d="M115.4,14.4c-1.1,0-1.1,1.6,0,1.6s1.1-1.6,0-1.6Z"/>
  <path class="cls-1" d="M101.2,14.2c-.1-.1-.4-.2-.6-.2-.4,0-.8,.4-.8,.8v.4c0,.2,.1,.4,.2,.6,.1,.1,.4,.2,.6,.2,.4,0,.8-.4,.8-.8v-.4c0-.2-.1-.4-.2-.6Z"/>
  <path class="cls-1" d="M83.2,14c-1.1,0-1.1,1.6,0,1.6s1.1-1.6,0-1.6Z"/>
  <path class="cls-1" d="M64.6,14.8c-1,0-1,1.6,0,1.6s1-1.6,0-1.6Z"/>
  <path class="cls-1" d="M48.6,14.6c-.1-.1-.4-.2-.6-.2-.4,0-.8,.4-.8,.8v.4c0,.2,.1,.4,.2,.6,.1,.1,.4,.2,.6,.2,.4,0,.8-.4,.8-.8v-.4c.1-.2,0-.4-.2-.6Z"/>
  <path class="cls-1" d="M32.8,14.8h-.4c-.2,0-.4,.1-.6,.2-.1,.1-.2,.4-.2,.6,0,.4,.4,.8,.8,.8h.4c.2,0,.4-.1,.6-.2,.1-.1,.2-.4,.2-.6,0-.4-.4-.8-.8-.8Z"/>
  <path class="cls-1" d="M20.5,15.7c-1.1,0-1.1,1.6,0,1.6,1,0,1-1.6,0-1.6Z"/>
  <path class="cls-1" d="M17.5,28.8c-1.1,0-1.1,1.6,0,1.6s1.1-1.6,0-1.6Z"/>
  <path class="cls-1" d="M17.1,50.4c-1.1,0-1.1,1.6,0,1.6s1.1-1.6,0-1.6Z"/>
  <path class="cls-1" d="M16.3,67.4c-1.1,0-1.1,1.6,0,1.6,1,0,1-1.6,0-1.6Z"/>
  <path class="cls-1" d="M15.8,85.2c-1.1,0-1.1,1.6,0,1.6s1.1-1.6,0-1.6Z"/>
  <path class="cls-1" d="M15.8,100.8c-1.1,0-1.1,1.6,0,1.6s1.1-1.6,0-1.6Z"/>
  <path class="cls-1" d="M15.8,117.8c-1.1,0-1.1,1.6,0,1.6s1.1-1.6,0-1.6Z"/>
  <path class="cls-1" d="M15.4,134.8c-1.1,0-1.1,1.6,0,1.6s1.1-1.6,0-1.6Z"/>
  <path class="cls-1" d="M15,153c-1.1,0-1.1,1.6,0,1.6s1-1.6,0-1.6Z"/>
  <path class="cls-1" d="M15,171.6c-1.1,0-1.1,1.6,0,1.6s1-1.6,0-1.6Z"/>
  <path class="cls-1" d="M13.7,192.8c-1.1,0-1.1,1.6,0,1.6,1.1,0,1.1-1.6,0-1.6Z"/>
  <path class="cls-1" d="M13.3,211c-1.1,0-1.1,1.6,0,1.6s1-1.6,0-1.6Z"/>
  <path class="cls-1" d="M13.7,233.5c-1.1,0-1.1,1.6,0,1.6s1.1-1.6,0-1.6Z"/>
  <path class="cls-1" d="M14.1,256.4c-.4,0-.8,.4-.8,.8v.9c0,.4,.4,.8,.8,.8s.8-.4,.8-.8v-.9c.1-.4-.3-.8-.8-.8Z"/>
  <path class="cls-1" d="M13.3,279.3h-.4c-.2,0-.4,.1-.6,.2-.1,.1-.2,.4-.2,.6,0,.4,.4,.8,.8,.8h.4c.2,0,.4-.1,.6-.2,.1-.1,.2-.4,.2-.6,0-.5-.3-.8-.8-.8Z"/>
  <path class="cls-1" d="M13.3,297.9c-1.1,0-1.1,1.6,0,1.6s1-1.6,0-1.6Z"/>
  <path class="cls-1" d="M12.9,322.5c-1.1,0-1.1,1.6,0,1.6s1-1.6,0-1.6Z"/>
  <path class="cls-1" d="M12.9,343.7c-1.1,0-1.1,1.6,0,1.6s1-1.6,0-1.6Z"/>
  <path class="cls-1" d="M11.6,365.3c-1.1,0-1.1,1.6,0,1.6s1-1.6,0-1.6Z"/>
  <path class="cls-1" d="M12,385.2c-1.1,0-1.1,1.6,0,1.6,1.1,0,1.1-1.6,0-1.6Z"/>
  <path class="cls-1" d="M13.3,376.3c-1.1,0-1.1,1.6,0,1.6,1,0,1-1.6,0-1.6Z"/>
</svg>