<?xml version="1.0" encoding="UTF-8"?>
<svg id="layer" xmlns="http://www.w3.org/2000/svg" viewBox="0 0 652 100.09">
  <path id="diamond" d="M112.05,77.19H25.95L66.15,3.09h86.1l-40.2,74.1"/>
  <path id="b" d="M177.85,31.39c-9.7,0-14.6,7.6-14.6,19,0,10.8,5.3,18.9,14.6,18.9,10.5,0,14.4-9.6,14.4-18.9,0-9.7-5-19-14.4-19M152.15,2.99h11.5V30.49h.2c3.1-5.2,9.7-8.4,15.5-8.4,16.4,0,24.4,12.9,24.4,28.6,0,14.5-7,28.1-22.5,28.1-7,0-14.6-1.8-18-8.8h-.2v7.4h-10.9V2.99h0"/>
  <path id="a1" d="M265.35,69.29c-6.5,.1-7.2,.1-7.7,.1-2.1,0-2.7-1.1-2.7-4.1v-27.7c0-11.3-10.7-15.6-20.8-15.6-11.5,0-22.9,4.1-23.7,17.9h11.5c.5-5.8,5-8.5,11.5-8.5,4.6,0,10.8,1.1,10.8,7.3,0,7-7.3,6-15.6,7.6-9.7,1.1-20,3.3-20,16.8,0,10.5,8.5,15.7,17.8,15.7,6.1,0,13.5-2,18-6.5,.9,4.9,4.2,6.5,8.9,6.5l12.7-.8-.7-8.7Zm-21.9-10.1c0,7.5-7.9,10.2-12.9,10.2-4,0-10.6-1.6-10.6-6.9,0-6.2,4.4-8.1,9.4-9s10.6-.8,14.1-3.2v8.9Z"/>
  <path id="n" d="M292.55,22.09c-6.8,0-12.8,3.6-16.2,9.6l-.2-.2v-7.9h-10.9l-.1,45.8,.5,8.7,11-.7v-31.7c0-7.9,4.9-14.2,12.6-14.2,6.7,0,10,3.6,10.2,12.1v33.8h11.5V40.49c.1-12.2-7.1-18.4-18.4-18.4"/>
  <path id="d" d="M344.45,69.39c10.3,0,14.6-9.7,14.6-19,0-11.9-5.5-18.9-14.4-18.9-10.8,0-14.6,9.9-14.6,19.6,0,9.1,4.4,18.3,14.4,18.3m25.7,7.9h-10.9v-7.3h-.2c-3,6.1-9.6,8.7-16.1,8.7-16.4,0-24.4-12.6-24.4-28.7,0-19.5,11.2-28,22.6-28,6.5,0,13.8,2.5,17.3,8.4h.2V2.89h11.5V77.29h0"/>
  <path id="c" d="M415.75,41.49c-.9-6.6-5.5-10.1-11.9-10.1-5.9,0-14.3,3.2-14.3,19.6,0,9,3.8,18.4,13.8,18.4,6.6,0,11.3-4.6,12.4-12.3h11.5c-2.1,13.9-10.5,21.6-23.9,21.6-16.3,0-25.3-12-25.3-27.8s8.6-28.9,25.7-28.9c12.1,0,22.4,6.2,23.5,19.5h-11.5"/>
  <path id="a2" d="M488.55,69.29c-6.5,.1-7.2,.1-7.7,.1-2.1,0-2.7-1.1-2.7-4.1v-27.7c0-11.3-10.7-15.6-20.8-15.6-11.5,0-22.9,4.1-23.7,17.9h11.5c.5-5.8,5-8.5,11.5-8.5,4.6,0,10.8,1.1,10.8,7.3,0,7-7.3,6-15.6,7.6-9.7,1.1-20,3.3-20,16.8,0,10.5,8.5,15.7,17.8,15.7,6.1,0,13.5-2,18-6.5,.9,4.9,4.2,6.5,8.9,6.5l12.7-.8-.7-8.7Zm-21.9-10.1c0,7.5-7.9,10.2-12.9,10.2-4,0-10.6-1.6-10.6-6.9,0-6.2,4.4-8.1,9.4-9s10.6-.8,14.1-3.2v8.9Z"/>
  <path id="m" d="M546.65,22.09c-7.6,0-12.5,3.4-16.3,9-2.3-6.1-8.3-9-14.6-9-8.3,0-12.6,3.6-16,9h-.3v-7.5h-10.9v45.8l.5,8.7,11-.7v-31.9c0-8.9,5.4-13.9,11.4-13.9,6.9,0,9.2,4,9.2,11.3v34.5h11.5v-31.5c0-9.1,3.3-14.4,11.1-14.4,9,0,9.5,5.9,9.5,14.5v31.4h11.5V40.29c-.2-13.2-6.7-18.2-17.6-18.2"/>
  <path id="p" d="M600.05,31.39c-9.7,0-14.6,7.6-14.6,19,0,10.8,5.3,18.9,14.6,18.9,10.5,0,14.4-9.6,14.4-18.9s-4.9-19-14.4-19m-25.6-7.9h10.9v7.3h.2c3.2-6.1,9.5-8.7,16.1-8.7,16.4,0,24.4,12.9,24.4,28.6,0,14.5-7,28.1-22.4,28.1-6.6,0-13.8-2.5-17.4-8.4h-.2v26.8h-11.6V23.49h0"/>
</svg>