<svg width="48" height="48" viewBox="0 0 48 48" fill="none" xmlns="http://www.w3.org/2000/svg">
<g clip-path="url(#clip0_2_204)">
<path d="M28.6607 31.5536L36.8571 16.4464H19.3393L11.1429 31.5536H28.6607ZM48 24C48 27.25 47.3661 30.3571 46.0982 33.3214C44.8304 36.2857 43.125 38.8393 40.9821 40.9821C38.8393 43.125 36.2857 44.8304 33.3214 46.0982C30.3571 47.3661 27.25 48 24 48C20.75 48 17.6429 47.3661 14.6786 46.0982C11.7143 44.8304 9.16071 43.125 7.01786 40.9821C4.875 38.8393 3.16964 36.2857 1.90179 33.3214C0.633929 30.3571 0 27.25 0 24C0 20.75 0.633929 17.6429 1.90179 14.6786C3.16964 11.7143 4.875 9.16071 7.01786 7.01786C9.16071 4.875 11.7143 3.16964 14.6786 1.90179C17.6429 0.633929 20.75 0 24 0C27.25 0 30.3571 0.633929 33.3214 1.90179C36.2857 3.16964 38.8393 4.875 40.9821 7.01786C43.125 9.16071 44.8304 11.7143 46.0982 14.6786C47.3661 17.6429 48 20.75 48 24Z" fill="#F47D51"/>
</g>
<defs>
<clipPath id="clip0_2_204">
<rect width="48" height="48" fill="white"/>
</clipPath>
</defs>
</svg>
