<?xml version="1.0" encoding="UTF-8"?>
<svg id="Layer_1" data-name="Layer 1" xmlns="http://www.w3.org/2000/svg" viewBox="0 0 210.5 49.61">
  <defs>
    <style>
      .cls-1 {
        fill: #eae1c8;
      }

      .cls-2 {
        fill: #ea7bb1;
      }

      .cls-3 {
        fill: #873a96;
      }
    </style>
  </defs>
  <path class="cls-2" d="M209.66,44.44c.05-.44,0-.9,.01-1.35,.02-5.33,.04-10.66,.06-15.99,0-.63,.14-1.37-.04-1.87-.29-.78,.24-1.43,.04-2.05-.4-1.22-.26-2.48-.25-3.72,0-3.23,2.56-17.21-.44-17.78C201.72,.28,79.11,.19,52.05,.07c-.48,0-.91,.11-1.28,.31C46.2,.15,41.62,.03,37.05,0c-7.58-.04-15.15,.13-22.73,.35C10.79,.46,2.58-.49,.71,4.94h-.13v.46c-.3,1.12-.34,2.48-.05,4.14l-.04,3.9s-.05,.03-.08,.04c-.06,7.57-.12,15.15-.18,22.72l-.23,10.89H.11c0,.95,.28,1.76,.76,2.37,.35,.44,.67-.25,1.05-.23,.76,.05,1.53,.05,2.29,.04,.37-.01,.8,.06,1.12-.15,.62-.41,1.24-.33,1.88-.33,2.42,.02,4.85,.06,7.27,.1,4.72,.07,9.44,.14,14.16,.2,.51,.01,1.06,.12,1.51-.12,.5-.27,.99-.3,1.49-.3,.76,0,1.53,.02,2.29,.03,.7,.01,1.41,.01,2.1,.02,.76,.01,1.53,.02,2.29,.03,.7,.01,1.41,.04,2.1,.05,.76,.01,1.53-.01,2.29-.01s1.53,.01,2.29,.02c.7,.01,1.41,.01,2.1,.01,.73-.72,1.45,.14,2.18,.05,.25-.03,.52,.01,.75-.1,.53-.25,1.08-.16,1.61-.28,.62-.14,1.27-.03,1.91-.02,7.65,.09,15.32,.19,22.97,.28,.63,.01,1.24-.07,1.87-.28,.91-.3,1.89-.28,2.83,.09,.18,.07,.4,.27,.53,.19,1.3-.77,2.65-.32,3.97-.31,6.45,.02,12.89,.13,19.33,.2,.44,0,.93,.07,1.31-.15,.54-.3,.98,.53,1.45,.12,.53-.47,1.1-.36,1.67-.35l15.89,.18c1.91,.02,3.83,.06,5.74,.06,.61,0,1.23-.25,1.82-.13,.63,.13,1.26,.14,1.89,.03,.66-.12,1.36,.11,2.03,.18,.13,.01,.26,.02,.38-.03,.26-.12,.52-.22,.79-.29l2.37,.02c.25,.07,.5,.16,.76,.28,.11,.05,.28,.08,.37,.01,.15-.12,.3-.21,.46-.27l24.08,.2h.11c.38,0,.8,.14,1.14-.03,1.37-.67,2.78-.35,4.16-.33,8.68,.09,17.36,.28,26.04,.33,3.49,.02,6.99,.51,10.47-.32,.55-.13,.96-.3,1.19-1.07,.12-.4,.34-.75,.51-1.12,.25-.54-.16-.99-.1-1.52Z"/>
  <path class="cls-3" d="M134,15.13c-.06,.05-.12,.14-.18,.14s-.11-.1-.16-.16c.06-.05,.12-.15,.18-.14,.06,0,.11,.1,.16,.16Z"/>
  <path class="cls-1" d="M7.62,41.88c-1.05,0-1.05,1.63,0,1.63s1.05-1.63,0-1.63Z"/>
  <path class="cls-1" d="M30.5,43.88c-1.05,0-1.05,1.63,0,1.63s1.05-1.63,0-1.63Z"/>
  <path class="cls-1" d="M44.06,43.03c-1.05,0-1.05,1.63,0,1.63s1.05-1.63,0-1.63Z"/>
  <path class="cls-1" d="M56.35,43.46c-1.05,0-1.05,1.63,0,1.63,1.05-.01,1.05-1.63,0-1.63Z"/>
  <path class="cls-1" d="M67.16,43.46c-1.05,0-1.05,1.63,0,1.63,1.05-.01,1.05-1.63,0-1.63Z"/>
  <path class="cls-1" d="M17.64,43.88c-1.05,0-1.05,1.63,0,1.63,1.05-.01,1.05-1.63,0-1.63Z"/>
  <path class="cls-1" d="M77.97,43.46c-1.05,0-1.05,1.63,0,1.63,1.05-.01,1.05-1.63,0-1.63Z"/>
  <path class="cls-1" d="M89.84,43.03c-1.05,0-1.05,1.63,0,1.63s1.05-1.63,0-1.63Z"/>
  <path class="cls-1" d="M100.85,43.03c-1.05,0-1.05,1.63,0,1.63s1.05-1.63,0-1.63Z"/>
  <path class="cls-1" d="M112.72,43.03c-1.05,0-1.05,1.63,0,1.63s1.05-1.63,0-1.63Z"/>
  <path class="cls-1" d="M125.43,43.46c-1.05,0-1.05,1.63,0,1.63,1.05-.01,1.05-1.63,0-1.63Z"/>
  <path class="cls-1" d="M137.51,43.03c-1.05,0-1.05,1.63,0,1.63,1.05-.01,1.05-1.63,0-1.63Z"/>
  <path class="cls-1" d="M149.59,43.03c-1.05,0-1.05,1.63,0,1.63s1.05-1.63,0-1.63Z"/>
  <path class="cls-1" d="M164.42,42.18h-.42c-.21,0-.43,.09-.58,.24-.14,.14-.25,.37-.24,.58,.02,.44,.36,.81,.81,.81h.42c.21,0,.43-.09,.58-.24,.14-.14,.25-.37,.24-.58-.01-.43-.35-.81-.81-.81Z"/>
  <path class="cls-1" d="M179.41,42.85c-.14-.14-.37-.25-.58-.24-.44,.02-.81,.36-.81,.81v.42c0,.21,.09,.43,.24,.58,.14,.14,.37,.25,.58,.24,.44-.02,.81-.36,.81-.81v-.42c0-.22-.09-.44-.24-.58Z"/>
  <path class="cls-1" d="M193.67,42.18c-1.05,0-1.05,1.63,0,1.63s1.05-1.63,0-1.63Z"/>
  <path class="cls-1" d="M41.61,3.67c-1.05,0-1.05,1.63,0,1.63s1.05-1.63,0-1.63Z"/>
  <path class="cls-1" d="M55.17,2.82c-1.05,0-1.05,1.63,0,1.63s1.05-1.63,0-1.63Z"/>
  <path class="cls-1" d="M67.46,3.25c-1.05,0-1.05,1.63,0,1.63,1.05-.01,1.05-1.63,0-1.63Z"/>
  <path class="cls-1" d="M78.27,3.25c-1.05,0-1.05,1.63,0,1.63,1.05-.01,1.05-1.63,0-1.63Z"/>
  <path class="cls-1" d="M28.75,3.67c-1.05,0-1.05,1.63,0,1.63,1.05-.01,1.05-1.63,0-1.63Z"/>
  <path class="cls-1" d="M89.08,3.25c-1.05,0-1.05,1.63,0,1.63,1.05-.01,1.05-1.63,0-1.63Z"/>
  <path class="cls-1" d="M100.95,2.82c-1.05,0-1.05,1.63,0,1.63s1.05-1.63,0-1.63Z"/>
  <path class="cls-1" d="M111.96,2.82c-1.05,0-1.05,1.63,0,1.63s1.05-1.63,0-1.63Z"/>
  <path class="cls-1" d="M123.83,2.82c-1.05,0-1.05,1.63,0,1.63s1.05-1.63,0-1.63Z"/>
  <path class="cls-1" d="M136.54,3.25c-1.05,0-1.05,1.63,0,1.63,1.05-.01,1.05-1.63,0-1.63Z"/>
  <path class="cls-1" d="M149.41,3.63c-1.05,0-1.05,1.63,0,1.63,1.05-.01,1.05-1.63,0-1.63Z"/>
  <path class="cls-1" d="M162.7,3.63c-1.05,0-1.05,1.63,0,1.63s1.05-1.63,0-1.63Z"/>
  <path class="cls-1" d="M190,3.63c-1.05,0-1.05,1.63,0,1.63s1.05-1.63,0-1.63Z"/>
  <path class="cls-1" d="M177.23,3.63c-1.05,0-1.05,1.63,0,1.63s1.05-1.63,0-1.63Z"/>
  <path class="cls-1" d="M201.8,3.63c-1.05,0-1.05,1.63,0,1.63s1.05-1.63,0-1.63Z"/>
  <path class="cls-1" d="M204.77,41.42c-1.05,0-1.05,1.63,0,1.63s1.05-1.63,0-1.63Z"/>
  <path class="cls-1" d="M205.56,32.03c-1.05,0-1.05,1.63,0,1.63s1.05-1.63,0-1.63Z"/>
  <path class="cls-1" d="M206.35,20.51c-1.05,0-1.05,1.63,0,1.63s1.05-1.63,0-1.63Z"/>
  <path class="cls-1" d="M3.8,13.42c-1.05,0-1.05,1.63,0,1.63s1.05-1.63,0-1.63Z"/>
  <path class="cls-1" d="M8.41,3.63c-1.05,0-1.05,1.63,0,1.63s1.05-1.63,0-1.63Z"/>
  <path class="cls-1" d="M18.42,2.82c-1.05,0-1.05,1.63,0,1.63s1.05-1.63,0-1.63Z"/>
  <path class="cls-1" d="M206.35,9.21c-1.05,0-1.05,1.63,0,1.63s1.05-1.63,0-1.63Z"/>
  <path class="cls-1" d="M4.23,33.33c-1.05,0-1.05,1.63,0,1.63s1.05-1.63,0-1.63Z"/>
  <path class="cls-1" d="M3.5,24.44c-1.05,0-1.05,1.63,0,1.63,1.05-.01,1.05-1.63,0-1.63Z"/>
</svg>