<?xml version="1.0" encoding="UTF-8"?>
<svg id="Layer_1" data-name="Layer 1" xmlns="http://www.w3.org/2000/svg" viewBox="0 0 353.83 394.42">
  <defs>
    <style>
      .cls-1 {
        fill: #eae1c8;
      }

      .cls-2 {
        fill: #FBC334;
      }
    </style>
  </defs>
  <path class="cls-2" d="M348.78,178.64c-.27-9.02-1.41-17.76-3.42-26.27-3.68-25.44-12.63-50.32-28.13-70.91-4.95-6.58-10.02-13.03-15.86-18.84-5.81-5.78-12.26-10.86-18.86-15.7-11.66-8.55-25.26-14.97-39.13-18.99-16.64-4.84-60.88-16.03-86.1-12.08-37.19,5.83-55.92,23.58-67.41,32.14-12.11,9.03-22.82,18.97-32.1,30.91-9.71,12.49-18.16,25.5-24.97,39.81-.98,2.06-1.93,4.13-2.86,6.22-7.69,13.67-13.26,28.58-16.52,44.03-2.83,10.25-4.33,20.84-3.71,31.52,.08,1.43,.21,2.85,.36,4.27,0,.24,0,.47,0,.71-.14,3.15-.19,6.31-.17,9.47,.22,30.64,8.14,61.15,23.59,87.67,14.49,24.88,35.99,46.97,61.75,60.18,13.93,7.14,28.8,12.28,44.3,14.48,8.93,1.27,17.8,2.27,26.84,2.12,9-.15,18-1.29,26.87-2.73,33.73-5.48,64.36-22.4,88.99-45.86,6.55-6.03,12.65-12.53,18.24-19.47,19.66-24.42,34.62-52.24,42.27-82.8,4.04-16.14,6.52-33.23,6.03-49.89h0Z"/>
  <g>
    <rect class="cls-1" x="80.54" y="177.71" width="197.35" height="39" transform="translate(-86.96 184.49) rotate(-45)"/>
    <rect class="cls-1" x="159.72" y="98.53" width="39" height="197.35" transform="translate(-86.96 184.49) rotate(-45)"/>
  </g>
</svg>