<?xml version="1.0" encoding="UTF-8"?>
<svg id="Layer_1" data-name="Layer 1" xmlns="http://www.w3.org/2000/svg" viewBox="0 0 266.85 65.63">
  <defs>
    <style>
      .cls-1 {
        fill: #b19ecc;
      }
    </style>
  </defs>
  <path class="cls-1" d="M253.64,44.98l-.1-.99c-.06-.57-.11-1.1-.15-1.54v-.49c.04-3.76,.07-6.48-.35-9.22-.06-.41-.06-.85-.06-1.32v-.31c0-.46,0-.93-.06-1.4-.33-2.64-.36-5.36-.39-7.76v-.21c0-.89-.09-1.89-.24-3.11-.08-.65-.19-1.29-.29-1.94l-.06-.38c-.23-1.41-.48-2.88-.52-4.29-.06-2.16-.84-4.12-1.53-5.83l-.48-1.24c-.22-.58-.69-.99-1.25-1.11-.65-.14-1.35,.1-1.86,.64-.62,.64-1.05,1.43-1.39,2.56-.88,2.93-1.6,5.37-2.32,7.94-.2,.7-.38,1.42-.57,2.12l-.19,.71c-.37,1.48-.74,2.91-1.17,4.28-.55,1.76-.96,3.53-1.24,5.39-.12,.71-.22,1.42-.32,2.17-.25,1.68-.52,3.43-.81,5.13-.24,1.41-.46,2.83-.66,4.33-.17,1.28-.45,2.59-.72,3.79-.03-.08-.06-.17-.09-.24-.29-.79-.52-1.64-.72-2.4-.08-.29-.16-.59-.23-.87-.07-.24-.12-.5-.18-.76-.12-.55-.23-1.12-.51-1.66-.68-1.32-1.07-2.78-1.42-4.07l-.05-.18c-.07-.26-.15-.52-.22-.77l-.75-2.64c-1.06-3.72-2.11-7.43-3.18-11.15-.46-1.6-.98-3.3-1.57-5.02-.21-.57-.44-1.13-.7-1.74-.27-.63-.58-1.35-.8-2.06-.43-1.46-1.32-2.41-2.13-3.15-.94-.85-1.74-.9-2.8-.16-.64,.46-.9,1.06-1.08,1.59-.46,1.37-.7,2.82-.8,4.68-.03,.69-.11,1.4-.19,2.08l-.12,1.01c-.04,.38-.09,.76-.14,1.14-.11,.82-.22,1.63-.25,2.45-.04,.68-.04,1.37-.04,2.05v1.68c-.02,.71-.08,1.45-.14,2.17l-.03,.32c-.12,1.4-.25,2.86-.07,4.33,0,0,0,.05-.04,.23-.02,.09-.04,.2-.04,.29l-.19,2.84c-.12,1.78-.24,3.62-.33,5.42-.04,.75-.06,1.54-.07,2.27-.02,1.11-.04,2.24-.15,3.35-.21,2.07-.23,4.14-.24,6.16-.02,1.7-.09,3.43-.16,5.12l-.11,2.48c-.02,.44-.04,.87-.07,1.31l-.03,.57c-.04,.82-.09,1.66-.09,2.49,0,.68,.21,1.31,.42,1.92,.17,.48,.69,.8,1.11,.93,.09,.02,.18,.02,.24,.02,.46,0,.92-.34,1.1-.67l.07-.13c.33-.62,.68-1.24,.92-1.94l.45-1.27c.87-2.48,1.78-5.04,2.31-7.72,.45-2.2,.84-4.36,.73-6.62-.04-.89-.04-1.58,.1-2.22,.42-2.08,.4-4.17,.38-6.18v-1.34c0-.95-.03-1.7-.09-2.45-.12-1.39-.23-2.77-.37-4.16l-.09-.96c.2,.47,.39,.95,.6,1.42,.53,1.22,.97,2.47,1.33,3.8,.8,2.93,1.56,5.36,2.63,7.7,.93,2.04,1.99,4.41,2.79,6.77l.2,.57c.66,1.95,1.34,3.95,1.59,5.99,.18,1.44,.57,2.84,.95,4.23l.06,.22c.18,.65,.36,1.3,.51,1.97,.11,.43,.55,.72,.92,.76,.37,.05,.85-.15,1.05-.52,.22-.39,.33-.71,.37-1.02,.43-2.77,1.22-5.53,2.34-8.19,.14-.32,.23-.64,.3-.95l.06-.23c.03-.12,.06-.23,.1-.35l.4-1.36c.26-.93,.57-1.98,.91-2.97l.26-.75c1.1-3.17,2.34-6.76,2.82-10.46,.12-.92,.28-1.85,.44-2.76,.17-.93,.33-1.87,.46-2.83l.03,.37c.08,1.06,.18,2.1,.28,3.15,.14,1.42,.28,2.94,.37,4.42,.04,.64,.11,1.29,.18,1.91v.1c.13,1.16,.24,2.36,.18,3.54-.11,1.75,.05,3.7,.46,5.77,.3,1.55,.73,3.05,1.21,4.73,.22,.75,.43,1.51,.64,2.26,.12,.45,.23,.89,.32,1.35l.11,.44c.08,.32,.15,.64,.23,.95,.17,.63,.36,1.3,.65,1.96,.48,1.07,1.7,1.76,2.58,1.45,.82-.29,1.11-1.04,1.26-1.48,.04-.08,.07-.17,.1-.24,.12-.26,.12-.53,.12-.71v-2.6c0-2.02,0-4.09-.12-6.15-.13-2.29-.36-4.63-.55-6.5h.03Z"/>
  <path class="cls-1" d="M37.73,28.47c-.35-.28-.83-.48-1.27-.51-.44-.04-.87-.09-1.3-.13-1.25-.14-2.67-.29-4.1-.17-2.01,.17-4.36,.37-6.67,.67-1.3,.17-2.69,.42-4.12,.76-.84,.21-1.66,.47-2.44,.71l-.18,.06c-.4,.13-.79,.25-1.18,.37l-.17,.05c-.89,.26-1.81,.55-2.71,.55,.03-.08,.07-.16,.12-.23l.26-.44c.2-.33,.4-.67,.61-1.01,1.75-2.94,3.56-5.97,5.73-8.66,.24-.3,.44-.63,.64-.94l.18-.28c.25-.42,.5-.85,.74-1.27l.48-.82c.73-1.26,1.49-2.56,2.32-3.75,1.54-2.18,2.72-4.66,3.73-7.77,.19-.58,.29-1.04,.33-1.48,.05-.46,.15-1.41-.75-1.91-.77-.42-1.48-.07-1.94,.17-.3,.14-.51,.37-.68,.57-.03,.03-.05,.07-.09,.11-2.1,2.16-4.22,4.66-6.66,7.87-1.96,2.56-3.74,5.29-5.5,7.99-.64,.98-1.27,1.96-1.93,2.94-.54,.82-1.09,1.63-1.63,2.44-.72,1.09-1.46,2.17-2.18,3.27l-.43,.66c-1.09,1.63-2.23,3.37-3.34,5.12-.35,.55-.53,1.18-.69,1.85-.12,.49,.19,1.15,.64,1.41,.69,.37,1.62,.87,2.78,.83,.42-.03,.84-.03,1.28-.03,.81,.02,1.64,0,2.51-.11,.58-.08,1.17-.12,1.76-.17l.43-.03c1.74-.14,3.55-.27,5.31-.88,.54-.19,1.14-.3,1.73-.43l.2-.04c.62-.12,1.26-.24,1.88-.46,1.23-.41,2.58-.61,3.8-.78l-.06,.06c-.3,.32-.63,.66-.9,1.03-.72,.96-1.6,1.93-2.69,2.97-2.78,2.68-5.22,5.88-7.36,8.7l-.78,1.03c-.51,.68-.86,1.17-1.16,1.67l-3.03,5c-.88,1.46-1.78,2.95-2.69,4.4-.63,1.03-.93,2.07-.89,3v.59c0,.06,0,.12,.02,.18h-.03l.03,.04c.09,.38,.33,.7,.68,.85,.15,.07,.3,.1,.47,.1l.84-.34c.12-.09,.23-.19,.36-.28l.08-.06c.58-.44,1.17-.9,1.68-1.46,1.64-1.79,3.38-3.77,5.47-6.2,.42-.5,.82-1.03,1.21-1.55,.5-.67,1.08-1.43,1.71-2.07,1.07-1.09,1.98-2.29,2.86-3.45l.44-.58c.46-.61,.94-1.23,1.44-1.82,.51-.61,1.02-1.22,1.52-1.84,1.17-1.44,2.33-2.83,3.53-4.13,2.66-2.86,5.36-5.54,8.03-7.99,.74-.69,1.4-1.49,2.02-2.24,.24-.28,.21-.63,.2-.73-.03-.28-.16-.69-.45-.92l-.02-.02h0Z"/>
  <path class="cls-1" d="M102.77,1.76c0-.33-.26-.97-.84-1-.63-.02-.95,.2-1.11,.39-1.04,1.32-1.77,2.6-2.25,3.93-1.08,3-1.83,5.7-2.3,8.23-.12,.61-.22,1.22-.31,1.83l-.02,.13c-.22,1.3-.44,2.66-.83,3.93-.16,.52-.32,1.1-.36,1.7-.08,1.41-.32,2.84-.57,4.26-.12,.64-.23,1.27-.32,1.9-.26,1.78-.52,3.55-.76,5.32l-.05,.35c-.14,.96-.27,1.92-.41,2.89-.17,1.17-.34,2.34-.52,3.49,0-.03-.02-.06-.04-.09-.22-.54-.42-1.11-.63-1.67l-.32-.91c-.3-.85-.61-1.69-.89-2.54l-.45-1.39c-.11-.34-.22-.69-.33-1.04-.12-.34-.23-.69-.35-1.03-.23-.62-.46-1.27-.63-1.92-.21-.81-.46-1.63-.71-2.47-.49-1.6-1.05-3.41-1.25-5.24-.03-.24-.11-.45-.19-.63-.03-.08-.07-.16-.09-.23l-.09-.31c-.14-.48-.26-.96-.41-1.43-.36-1.26-.77-2.7-1.04-4.08-.35-1.87-1.04-3.65-1.67-5.3-.32-.85-.67-1.73-.95-2.61-.15-.43-.38-.83-.59-1.16l-.12-.2c-.76-1.27-1.99-1.96-2.83-2.36-.69-.33-1.49-.09-1.92,.57l-.07,.1c-.1,.16-.22,.34-.29,.57-.2,.58-.4,1.17-.62,1.75l-.03,.1c-.49,1.36-1.01,2.77-1.3,4.22l-.23,1.12c-.5,2.44-1.03,4.96-1.09,7.54-.02,.58-.1,1.18-.18,1.77l-.04,.3c-.08,.6-.17,1.2-.25,1.8l-.14,.98c-.21,1.45-.43,2.96-.6,4.43-.35,3.04-.6,6.22-.81,9.02l-.28,3.53c-.2,2.32-.26,4.68-.33,7.04l-.08,2.42c-.03,.75-.04,1.5-.04,2.23v.19c-.02,1.7-.04,3.46-.33,5.16-.1,.55-.11,1.09-.12,1.56,0,.18-.02,.35-.02,.51,0,.28-.03,1.04,.64,1.61,.17,.15,.32,.31,.47,.49,.06,.08,.13,.15,.2,.22l.09,.1c.32,.34,.71,.54,1.13,.54l.62-.2c.2-.12,.36-.29,.5-.52,.49-.88,.93-1.75,1.35-2.66,.49-1.04,.72-2.13,.95-3.2l.02-.12c.1-.46,.19-.9,.29-1.35l.1-.37c.55-2.18,1.17-4.66,1.69-7.1,.18-.86,.27-1.74,.37-2.68,.05-.42,.1-.84,.15-1.25,.05-.31,.09-.63,.13-.96,.19-1.5,.38-3.05,.79-4.56,.39-1.37,.82-3.18,.7-5.08-.1-1.81,.05-3.66,.2-5.45l.04-.56c.02-.21,.03-.41,.05-.63,.31,.97,.62,1.94,.93,2.91l1.87,5.87c.63,1.97,1.27,4,2.3,5.9,.31,.59,.57,1.25,.82,1.92,.15,.37,.28,.73,.44,1.11l3.86,9.02c.88,2.04,1.81,4.21,2.69,6.34,.5,1.21,1.13,2.11,1.99,2.83,.23,.18,.51,.25,.79,.22,.34-.05,.65-.24,.84-.53,.49-.67,.43-1.4,.39-1.89v-.25c-.09-2.51,.15-5.05,.37-7.54,.09-.87,.17-1.73,.23-2.6,.21-2.65,.52-5.35,.82-7.96l.19-1.6c.14-1.25,.33-2.52,.53-3.77l.2-1.25c.14-.88,.28-1.76,.43-2.68,.28-1.72,.57-3.51,.81-5.27,.21-1.51,.39-3.04,.57-4.54l.21-1.71c.17-1.42,.34-2.87,.54-4.29,.36-2.65,.66-5.53,.9-9.12l-.04-.96c-.05-1.38-.1-2.75-.15-4.12,0,0,.02,.05,.02,.05Z"/>
  <path class="cls-1" d="M137.56,1.73c0-.33-.26-.97-.86-1-.23,0-.78,0-1.09,.39-1.04,1.32-1.77,2.6-2.25,3.93-1.09,3.06-1.84,5.75-2.3,8.23-.12,.61-.22,1.22-.31,1.82l-.03,.16c-.22,1.3-.44,2.65-.83,3.91-.18,.57-.33,1.13-.36,1.7-.08,1.41-.33,2.84-.58,4.26-.12,.64-.23,1.27-.32,1.91-.21,1.35-.4,2.7-.59,4.06l-.64,4.51c-.17,1.17-.34,2.34-.52,3.48,0-.02-.02-.04-.03-.07-.19-.46-.35-.93-.52-1.4l-.39-1.1c-.32-.87-.63-1.76-.93-2.64-.12-.32-.22-.65-.32-.97l-.47-1.45c-.12-.34-.23-.68-.35-1.02-.22-.59-.45-1.25-.62-1.92-.22-.83-.47-1.66-.71-2.47-.49-1.6-1.05-3.41-1.25-5.24-.03-.24-.11-.46-.19-.63-.03-.08-.07-.16-.09-.23l-.09-.31c-.14-.48-.26-.96-.41-1.43-.42-1.45-.78-2.75-1.04-4.08-.35-1.87-1.04-3.65-1.67-5.28-.33-.86-.67-1.74-.95-2.63-.15-.44-.38-.83-.59-1.16l-.12-.2c-.76-1.27-1.99-1.96-2.83-2.36-.69-.33-1.49-.09-1.92,.57l-.07,.1c-.1,.16-.22,.34-.29,.57-.2,.58-.4,1.17-.62,1.75l-.03,.1c-.49,1.36-1.01,2.77-1.3,4.22l-.23,1.12c-.5,2.44-1.03,4.96-1.09,7.54-.02,.58-.1,1.19-.18,1.78l-.04,.29c-.08,.6-.17,1.19-.25,1.79l-.15,1c-.21,1.45-.43,2.96-.6,4.43-.36,3.06-.61,6.24-.82,9.04l-.28,3.51c-.2,2.31-.26,4.65-.33,6.92l-.08,2.53c-.03,.74-.04,1.5-.04,2.23v.17c-.02,1.71-.04,3.47-.33,5.18-.1,.54-.11,1.08-.12,1.54,0,.19-.02,.36-.02,.53,0,.28-.03,1.04,.64,1.61,.15,.12,.26,.26,.39,.41l.35,.39c.32,.34,.71,.54,1.13,.54l.82-.35c.11-.1,.21-.22,.28-.35,.49-.89,.94-1.76,1.35-2.66,.49-1.05,.72-2.14,.95-3.21l.02-.12c.09-.45,.19-.9,.29-1.35l.14-.54c.54-2.13,1.14-4.56,1.65-6.94,.18-.87,.27-1.75,.37-2.68,.05-.42,.1-.84,.15-1.25,.04-.28,.08-.58,.13-.96,.18-1.43,.37-3.04,.79-4.56,.39-1.37,.82-3.18,.7-5.08-.1-1.81,.05-3.66,.2-5.45v-.1c.04-.36,.07-.72,.1-1.1,.3,.96,.62,1.93,.92,2.89,.58,1.82,1.15,3.64,1.73,5.46l.15,.45c.63,1.97,1.27,3.99,2.3,5.89,.31,.59,.57,1.24,.84,1.96,.14,.35,.27,.7,.42,1.05l3.87,9.01c.92,2.14,1.83,4.24,2.69,6.35,.5,1.2,1.13,2.09,1.99,2.83,.23,.18,.51,.25,.79,.22,.33-.05,.65-.24,.85-.53,.48-.69,.43-1.43,.39-1.89v-.25c-.08-2.51,.15-5.05,.37-7.54,.09-.86,.16-1.73,.23-2.6,.19-2.49,.48-5.02,.76-7.47l.23-2.08c.17-1.42,.39-2.86,.61-4.29l.12-.71c.14-.89,.28-1.78,.43-2.67l.04-.22c.27-1.68,.55-3.41,.78-5.11,.21-1.47,.38-2.96,.56-4.42l.22-1.77c.18-1.44,.35-2.91,.55-4.34,.37-2.66,.66-5.55,.9-9.12l-.04-.98c-.05-1.37-.1-2.74-.15-4.1l.03,.05h0Z"/>
  <path class="cls-1" d="M67.41,2.33l-.2-.78c-.1-.4-.4-.7-.79-.8-.41-.11-.86,.03-1.17,.37-.74,.84-1.16,1.91-1.29,3.29-.22,2.39-.69,4.79-1.15,7.16l-.06,.31c-.2,1.02-.4,2.06-.59,3.1-.5,2.89-1.11,5.82-1.67,8.59l-.3,1.5c-.21,.99-.41,1.99-.6,2.97-.4,2-.78,4-1.15,6l-1.52,7.87c-.41,2.11-.82,4.28-1.2,6.4-.17,.89-.51,1.67-1.04,2.37-.18,.23-.36,.37-.49,.37-.21,0-.41-.19-.55-.33-.91-1.03-1.49-2.13-1.72-3.3-.19-.95-.44-1.89-.69-2.87-.52-1.95-1.06-3.96-.96-6.11l-.02-.14c-.29-1.03-.37-2.12-.44-3.24l-.03-.35c-.04-.52-.08-1.05-.15-1.57l-.13-.92c-.13-.89-.25-1.81-.26-2.7,0-1.31-.1-2.64-.2-3.91l-.02-.23c-.12-1.62-.24-3.46-.2-5.25,.02-.6-.06-1.17-.13-1.73l-.16-1.27c-.04-.25-.06-.48-.06-.7,.06-3.01-.36-5.96-.77-8.82l-.1-.66c-.03-.23-.08-.47-.12-.7l-.07-.41c-.13-.74-.26-1.52-.24-2.28,0-.49-.24-.93-.41-1.14-.47-.64-1.12-.78-1.74-.41-.59,.35-1.12,.75-1.18,1.72-.1,1.33-.29,2.64-.52,4.11l-.05,.32c-.04,.27-.11,.91-.18,1.59l-.04,.34c-.06,.59-.12,1.14-.16,1.4l-.17,1.04c-.18,1.08-.38,2.29-.43,3.51-.1,2.32-.13,4.68-.16,6.57l-.04,2.46c.04,1.44,.05,2.79,.06,4.08v.13c.03,3.59,.05,6.98,.5,10.28v.11c.08,.49,.14,.97,.2,1.55,.06,.56,.13,1.12,.21,1.67,.11,.73,.23,1.44,.39,2.18,.12,.54,.23,1.09,.32,1.63l.16,.82c.27,1.42,.55,2.88,.99,4.31,.91,2.95,2.19,5.53,3.92,7.9,.93,1.29,2.34,2,3.95,2h.49v-.03c.06,0,.13,0,.19-.02,1.71-.22,3.33-1.06,4.54-2.37,1.56-1.69,2.53-3.54,2.92-5.49,.44-2.32,1.03-5.39,1.6-8.49,.19-1.06,.35-2.12,.52-3.17l.24-1.58c.1-.66,.2-1.32,.31-1.98,.3-1.9,.65-4.04,.89-6.14,.18-1.52,.47-3.21,.9-5.16l.38-1.73c.47-2.21,.8-4.48,1.13-6.68l.06-.43c.17-1.18,.35-2.39,.54-3.57,.47-2.89,.93-6.24,.53-9.59-.12-.98-.34-1.91-.62-2.94,0,0,0-.02,0-.02Z"/>
  <path class="cls-1" d="M166.4,2.03c-.9-.2-1.31,.63-1.54,1.08-.06,.12-.12,.23-.17,.31-.31,.47-.58,.99-.79,1.53l-.42,1.06c-.65,1.63-1.31,3.33-1.91,5.02-.57,1.58-1.31,3.05-2.23,4.39-1.33,1.95-2.64,4.07-4.04,6.52-.45-1.02-.84-1.97-1.22-2.91-.84-2.06-1.83-4.51-2.79-6.93-.15-.35-.28-.72-.41-1.09l-.29-.79c-.2-.54-.39-1.08-.62-1.61-.29-.7-.65-1.33-1.06-1.86-.56-.72-1.16-1.42-1.75-2.08l-.56-.64c-.2-.23-.44-.48-.78-.76-.31-.26-.75-.35-1.17-.23-.44,.12-.77,.42-.91,.83-.28,.86-.29,1.78-.03,2.74,.37,1.32,.59,2.6,.65,3.91,.02,.32,.08,.65,.14,.96l.06,.28c.17,.94,.44,1.86,.7,2.72l.05,.15c.16,.5,.31,1.02,.44,1.54,.66,2.64,1.75,5.14,2.82,7.47l.09,.19c.78,1.7,1.55,3.37,2.33,4.98,.56,1.14,.43,1.73,.06,2.29-.23,.34-.35,.71-.47,1.06-.04,.11-.08,.23-.12,.33l-.37,.92c-1.19,2.98-2.37,5.96-3.55,8.94l-4.19,10.61c-.41,1.05-.63,2.06-.65,3.11,0,.52-.1,1.07-.18,1.56-.04,.27-.08,.54-.13,.9l-.07,.62c-.06,.52-.12,1.05-.14,1.59v.11c0,.61-.03,1.36,.49,1.76,.23,.17,.5,.25,.78,.25l.18-.02h0c.42-.06,.87-.29,1.32-.69,.08-.07,.17-.15,.24-.22l.2-.16c.56-.48,1.2-1.02,1.6-1.81,1-2.03,2.15-3.96,3.34-5.93,1.01-1.67,1.73-3.51,2.44-5.29l.35-.89c1.17-2.97,2.06-5.39,2.77-7.6,.59-1.83,1.32-3.68,1.98-5.3l.31-.79c.11-.28,.22-.56,.33-.84,.17-.42,.32-.85,.48-1.28l.13-.35c.52-1.44,1.05-2.84,1.74-4.08,2-3.55,3.4-7.4,4.76-11.11l.26-.73c.91-2.51,1.89-5.51,2.25-8.7,.07-.57,.15-1.13,.23-1.69l.22-1.59h-.16c.05-.45,.12-1.47-1.01-1.71h0Z"/>
  <path class="cls-1" d="M263.98,58.15c-.04-1.19-.32-2.24-.86-3.19h0c-.26-.47-.7-.77-1.2-.85-.48-.09-.99,.07-1.36,.42-.35,.33-.72,.7-.9,1.17-.41,1.1-.8,2.26-1.19,3.56-.29,.95,.33,2.3,1.03,2.7,.28,.17,.63,.27,1.01,.3l.21,.02c.33,0,.68-.06,.99-.17,.72-.24,1.27-.72,1.52-1.32,.24-.6,.41-1.2,.57-1.77,.06-.22,.13-.44,.19-.65l.02-.16v-.08h0Z"/>
  <path class="cls-1" d="M214.69,57.71c-.07-.43-.13-.88-.23-1.31-.23-1.01-.48-1.25-1.39-1.4-.1-.02-.22-.04-.33-.06-1.61-.3-2.17,.79-2.5,1.44-.36,.71-.46,1.46-.31,2.34l.04,.2c.14,.89,.29,1.9,1.16,2.7,.34,.3,.7,.45,1.09,.45,.19,0,.36-.03,.54-.1,1.22-.48,1.87-1.31,1.94-2.5v-.33l.1-.56-.13-.87h.02Z"/>
  <path class="cls-1" d="M204.63,59.32c-.08-.54-.14-1.09-.21-1.63l-.1-.83c-.23-1.88-.46-3.82-.8-5.73-.27-1.55-.66-3.09-1.02-4.58l-.07-.25c-.19-.75-.37-1.52-.56-2.27-.08-.36-.14-.73-.18-1.1-.28-2.1-.57-4-1.08-5.88l-.13-.45c-.13-.46-.26-.94-.36-1.41-.43-2.06-.86-4.13-1.28-6.21l-.76-3.78c-.23-1.14-.46-2.33-.73-3.48-.4-1.68-.61-3.43-.8-5.1l-.05-.42c-.09-.71-.18-1.45-.28-2.17-.21-1.39-.55-2.74-.88-4.06l-.2-.77c-.15-.57-.28-1.14-.41-1.73-.07-.28-.14-.61-.29-.92-.8-1.54-1.8-3.07-3.61-3.85-.75-.32-1.49-.22-2.16,.31-1.29,1.03-2.1,2.41-2.5,4.21-.22,1.01-.43,2.04-.65,3.04l-.13,.62c-.21,.98-.41,1.95-.61,2.92-.46,2.25-.94,4.58-1.45,6.86-.1,.42-.2,.84-.32,1.35-.23,.95-.47,1.93-.61,2.98-.03,.2-.05,.39-.07,.6-.05,.41-.09,.83-.21,1.31-.4,1.68-.86,3.58-1.2,5.49-.31,1.69-.7,3.41-1.1,5.07l-.06,.27c-.33,1.43-.69,2.95-.99,4.44-.5,2.51-1,5.2-1.21,7.88-.19,2.34-.39,4.98-.78,7.54-.12,.83-.14,1.67-.14,2.46,0,.43,.23,1.02,.66,1.26,.09,.05,.11,.09,.17,.41,.02,.12,.04,.23,.07,.33,.09,.34,.31,.59,.61,.68l.23,.04c.43,0,.72-.31,.76-.36,.26-.28,.53-.6,.69-.97,1.26-2.88,2.28-5.23,3.19-7.4,.22-.52,.4-1.12,.55-1.82,.34-1.6,.68-3.22,1.01-4.82l.08-.39c.31-1.53,.64-3.05,.95-4.58,.25-1.22,.5-2.32,.79-3.41,.09-.31,.23-.65,.35-.97l.06-.15c.09-.22,.18-.44,.25-.66,.07-.17,.12-.23,.37-.22,.33,.03,.68,.07,1.01,.11l1.04,.15c.42,.07,.85,.13,1.29,.13h0c1.06,.02,1.63,.25,1.72,.69,.06,.32,.14,.72,.28,1.25v.15c0,.11,0,.21,.03,.32,.04,.28,.08,.56,.12,.92,.09,.75,.19,1.5,.36,2.24,.77,3.18,1.79,6.01,3.14,8.64,.32,.63,.63,1.28,.91,1.91,.24,.54,.5,1.09,.76,1.61,.43,.88,.91,1.79,1.48,2.81,.33,.6,.7,1.18,1.16,1.88,.6,.89,1.1,1.61,1.6,2.28,.29,.38,.88,.49,1.3,.37,.42-.14,.79-.62,.8-1.03,.02-.39,.02-.8,.02-1.19v-.19l.14-.73h0Zm-17.78-29.93c.33-2.01,.63-3.57,1.03-5.17,.5-1.96,1.05-4.29,1.27-6.79,0-.14,.05-.27,.09-.4l.04-.16c.04-.13,.08-.25,.09-.38,.08-.45,.15-.91,.21-1.37l.03-.19c.11-.78,.23-1.56,.36-2.32,.09-.49,.24-.99,.4-1.46l.02-.06,.07,.03c.04,.12,.05,.27,.04,.5,0,.23-.02,.45-.03,.59v1.08c0,.45-.02,.76,.02,1.11l.2,1.69c.28,2.39,.59,4.86,.94,7.27,.18,1.2,.44,2.37,.73,3.66l.12,.56c.08,.33,.15,.67,.22,1,.22,1.01,.29,1.65,.06,1.98h0c-.23,.31-.85,.44-1.73,.55-1.01,.13-2,.37-2.99,.65l-.69,.19s-.11,.02-.18,.02h-.09s-.1-.03-.14-.06c-.13-.1-.16-.26-.17-.37v-.28c-.02-.61-.03-1.24,.07-1.83l.05-.02h-.02Z"/>
</svg>