<svg width="302" height="50" viewBox="0 0 302 50" fill="none" xmlns="http://www.w3.org/2000/svg">
<g clip-path="url(#clip0_19_41)">
<path d="M300.795 44.7894C300.867 44.3459 300.795 43.8823 300.809 43.4288C300.838 38.0569 300.867 32.685 300.895 27.3131C300.895 26.6781 301.096 25.9323 300.838 25.4284C300.422 24.6423 301.182 23.9871 300.895 23.3623C300.321 22.1327 300.522 20.8628 300.537 19.613C300.537 16.3576 304.209 2.26774 299.905 1.69325C289.404 0.282248 113.497 0.191541 74.6751 0.0705976C73.9864 0.0705976 73.3695 0.181462 72.8387 0.383035C66.2822 0.151227 59.7114 0.0302832 53.1549 4.73158e-05C42.28 -0.0402671 31.4195 0.131069 20.5446 0.352799C15.4802 0.463664 3.70147 -0.493804 1.01862 4.97888H0.832114V5.4425C0.40171 6.5713 0.344323 7.94199 0.76038 9.61504L0.702993 13.5457C0.702993 13.5457 0.631259 13.5759 0.588219 13.586C0.502138 21.2155 0.416057 28.8551 0.329976 36.4846L0 47.4602H0.157815C0.157815 48.4177 0.559525 49.2341 1.24817 49.8489C1.75031 50.2923 2.20941 49.5969 2.75458 49.6171C3.84494 49.6675 4.94964 49.6675 6.04 49.6574C6.57083 49.6473 7.18774 49.7178 7.64684 49.5062C8.53634 49.093 9.42584 49.1736 10.344 49.1736C13.816 49.1938 17.3022 49.2341 20.7742 49.2744C27.5458 49.3449 34.3175 49.4155 41.0892 49.476C41.8209 49.486 42.61 49.5969 43.2556 49.355C43.9729 49.0829 44.6759 49.0527 45.3933 49.0527C46.4836 49.0527 47.5883 49.0728 48.6787 49.0829C49.6829 49.093 50.7016 49.093 51.6915 49.1031C52.7819 49.1131 53.8866 49.1232 54.9769 49.1333C55.9812 49.1434 56.9998 49.1736 57.9897 49.1837C59.0801 49.1938 60.1848 49.1736 61.2752 49.1736C62.3655 49.1736 63.4702 49.1837 64.5606 49.1938C65.5648 49.2038 66.5835 49.2038 67.5734 49.2038C68.6207 48.4782 69.6537 49.3449 70.701 49.2542C71.0597 49.224 71.447 49.2643 71.777 49.1534C72.5374 48.9015 73.3265 48.9922 74.0868 48.8712C74.9763 48.7301 75.9089 48.841 76.8271 48.8511C87.8024 48.9418 98.8064 49.0426 109.782 49.1333C110.686 49.1434 111.561 49.0627 112.465 48.8511C113.77 48.5487 115.176 48.5689 116.525 48.9418C116.783 49.0123 117.099 49.2139 117.285 49.1333C119.15 48.3572 121.087 48.8108 122.981 48.8209C132.234 48.841 141.474 48.9519 150.713 49.0224C151.344 49.0224 152.047 49.093 152.592 48.8712C153.367 48.5689 153.998 49.4054 154.673 48.9922C155.433 48.5185 156.251 48.6294 157.069 48.6394L179.866 48.8209C182.606 48.841 185.361 48.8813 188.101 48.8813C188.976 48.8813 189.865 48.6294 190.712 48.7503C191.616 48.8813 192.52 48.8914 193.423 48.7805C194.37 48.6596 195.375 48.8914 196.336 48.962C196.522 48.972 196.709 48.9821 196.881 48.9317C197.254 48.8108 197.627 48.71 198.014 48.6394L201.415 48.6596C201.773 48.7301 202.132 48.8209 202.505 48.9418C202.663 48.9922 202.907 49.0224 203.036 48.9519C203.251 48.8309 203.466 48.7402 203.696 48.6797L238.243 48.8813H238.401C238.946 48.8813 239.548 49.0224 240.036 48.8511C242.002 48.1758 244.025 48.4983 246.004 48.5185C258.457 48.6092 270.91 48.8007 283.364 48.8511C288.371 48.8712 293.392 49.3651 298.385 48.5286C299.174 48.3976 299.762 48.2262 300.092 47.4502C300.264 47.047 300.58 46.6943 300.824 46.3214C301.182 45.7771 300.594 45.3236 300.68 44.7894H300.795Z" fill="#EA7BB1"/>
<path d="M192.247 15.2489C192.161 15.2993 192.075 15.39 191.989 15.39C191.903 15.39 191.831 15.2892 191.759 15.2288C191.845 15.1784 191.931 15.0776 192.017 15.0877C192.104 15.0877 192.175 15.1885 192.247 15.2489Z" fill="#873A96"/>
<path d="M10.9323 42.2092C9.42584 42.2092 9.42584 43.852 10.9323 43.852C12.4387 43.852 12.4387 42.2092 10.9323 42.2092Z" fill="#EAE1C8"/>
<path d="M43.7577 44.2249C42.2513 44.2249 42.2513 45.8678 43.7577 45.8678C45.2641 45.8678 45.2641 44.2249 43.7577 44.2249Z" fill="#EAE1C8"/>
<path d="M63.212 43.3683C61.7056 43.3683 61.7056 45.0111 63.212 45.0111C64.7184 45.0111 64.7184 43.3683 63.212 43.3683Z" fill="#EAE1C8"/>
<path d="M80.8442 43.8016C79.3378 43.8016 79.3378 45.4445 80.8442 45.4445C82.3506 45.4344 82.3506 43.8016 80.8442 43.8016Z" fill="#EAE1C8"/>
<path d="M96.3531 43.8016C94.8467 43.8016 94.8467 45.4445 96.3531 45.4445C97.8595 45.4344 97.8595 43.8016 96.3531 43.8016Z" fill="#EAE1C8"/>
<path d="M25.3077 44.2249C23.8013 44.2249 23.8013 45.8678 25.3077 45.8678C26.8142 45.8577 26.8142 44.2249 25.3077 44.2249Z" fill="#EAE1C8"/>
<path d="M111.862 43.8016C110.356 43.8016 110.356 45.4445 111.862 45.4445C113.368 45.4344 113.368 43.8016 111.862 43.8016Z" fill="#EAE1C8"/>
<path d="M128.892 43.3683C127.385 43.3683 127.385 45.0111 128.892 45.0111C130.398 45.0111 130.398 43.3683 128.892 43.3683Z" fill="#EAE1C8"/>
<path d="M144.687 43.3683C143.181 43.3683 143.181 45.0111 144.687 45.0111C146.194 45.0111 146.194 43.3683 144.687 43.3683Z" fill="#EAE1C8"/>
<path d="M161.717 43.3683C160.211 43.3683 160.211 45.0111 161.717 45.0111C163.223 45.0111 163.223 43.3683 161.717 43.3683Z" fill="#EAE1C8"/>
<path d="M179.952 43.8016C178.445 43.8016 178.445 45.4445 179.952 45.4445C181.458 45.4344 181.458 43.8016 179.952 43.8016Z" fill="#EAE1C8"/>
<path d="M197.283 43.3683C195.776 43.3683 195.776 45.0111 197.283 45.0111C198.789 45.001 198.789 43.3683 197.283 43.3683Z" fill="#EAE1C8"/>
<path d="M214.614 43.3683C213.107 43.3683 213.107 45.0111 214.614 45.0111C216.12 45.0111 216.12 43.3683 214.614 43.3683Z" fill="#EAE1C8"/>
<path d="M235.89 42.5116H235.287C234.986 42.5116 234.671 42.6023 234.455 42.7535C234.254 42.8946 234.097 43.1264 234.111 43.338C234.14 43.7815 234.627 44.1544 235.273 44.1544H235.876C236.177 44.1544 236.493 44.0637 236.708 43.9125C236.909 43.7714 237.066 43.5396 237.052 43.328C237.038 42.8946 236.55 42.5116 235.89 42.5116Z" fill="#EAE1C8"/>
<path d="M257.396 43.1869C257.195 43.0458 256.865 42.9349 256.564 42.945C255.932 42.9651 255.402 43.3078 255.402 43.7613V44.1846C255.402 44.3963 255.531 44.618 255.746 44.7692C255.947 44.9103 256.277 45.0212 256.578 45.0111C257.209 44.9909 257.74 44.6483 257.74 44.1947V43.7714C257.74 43.5497 257.611 43.328 257.396 43.1869Z" fill="#EAE1C8"/>
<path d="M277.854 42.5116C276.348 42.5116 276.348 44.1544 277.854 44.1544C279.361 44.1544 279.361 42.5116 277.854 42.5116Z" fill="#EAE1C8"/>
<path d="M59.697 3.69885C58.1906 3.69885 58.1906 5.34167 59.697 5.34167C61.2034 5.34167 61.2034 3.69885 59.697 3.69885Z" fill="#EAE1C8"/>
<path d="M79.1513 2.84216C77.6448 2.84216 77.6448 4.48498 79.1513 4.48498C80.6577 4.48498 80.6577 2.84216 79.1513 2.84216Z" fill="#EAE1C8"/>
<path d="M96.7835 3.27554C95.2771 3.27554 95.2771 4.91836 96.7835 4.91836C98.2899 4.90828 98.2899 3.27554 96.7835 3.27554Z" fill="#EAE1C8"/>
<path d="M112.292 3.27554C110.786 3.27554 110.786 4.91836 112.292 4.91836C113.799 4.90828 113.799 3.27554 112.292 3.27554Z" fill="#EAE1C8"/>
<path d="M41.247 3.69885C39.7406 3.69885 39.7406 5.34167 41.247 5.34167C42.7534 5.33159 42.7534 3.69885 41.247 3.69885Z" fill="#EAE1C8"/>
<path d="M127.801 3.27554C126.295 3.27554 126.295 4.91836 127.801 4.91836C129.308 4.90828 129.308 3.27554 127.801 3.27554Z" fill="#EAE1C8"/>
<path d="M144.831 2.84216C143.324 2.84216 143.324 4.48498 144.831 4.48498C146.337 4.48498 146.337 2.84216 144.831 2.84216Z" fill="#EAE1C8"/>
<path d="M160.627 2.84216C159.12 2.84216 159.12 4.48498 160.627 4.48498C162.133 4.48498 162.133 2.84216 160.627 2.84216Z" fill="#EAE1C8"/>
<path d="M177.656 2.84216C176.15 2.84216 176.15 4.48498 177.656 4.48498C179.163 4.48498 179.163 2.84216 177.656 2.84216Z" fill="#EAE1C8"/>
<path d="M195.891 3.27554C194.385 3.27554 194.385 4.91836 195.891 4.91836C197.398 4.90828 197.398 3.27554 195.891 3.27554Z" fill="#EAE1C8"/>
<path d="M214.355 3.65854C212.849 3.65854 212.849 5.30135 214.355 5.30135C215.862 5.29127 215.862 3.65854 214.355 3.65854Z" fill="#EAE1C8"/>
<path d="M233.422 3.65854C231.916 3.65854 231.916 5.30135 233.422 5.30135C234.929 5.30135 234.929 3.65854 233.422 3.65854Z" fill="#EAE1C8"/>
<path d="M272.589 3.65854C271.083 3.65854 271.083 5.30135 272.589 5.30135C274.095 5.30135 274.095 3.65854 272.589 3.65854Z" fill="#EAE1C8"/>
<path d="M254.268 3.65854C252.762 3.65854 252.762 5.30135 254.268 5.30135C255.775 5.30135 255.775 3.65854 254.268 3.65854Z" fill="#EAE1C8"/>
<path d="M289.518 3.65854C288.012 3.65854 288.012 5.30135 289.518 5.30135C291.025 5.30135 291.025 3.65854 289.518 3.65854Z" fill="#EAE1C8"/>
<path d="M293.779 41.7456C292.273 41.7456 292.273 43.3884 293.779 43.3884C295.286 43.3884 295.286 41.7456 293.779 41.7456Z" fill="#EAE1C8"/>
<path d="M294.913 32.2818C293.406 32.2818 293.406 33.9246 294.913 33.9246C296.419 33.9246 296.419 32.2818 294.913 32.2818Z" fill="#EAE1C8"/>
<path d="M296.046 20.6712C294.54 20.6712 294.54 22.314 296.046 22.314C297.552 22.314 297.552 20.6712 296.046 20.6712Z" fill="#EAE1C8"/>
<path d="M5.45178 13.5255C3.94536 13.5255 3.94536 15.1683 5.45178 15.1683C6.95819 15.1683 6.95819 13.5255 5.45178 13.5255Z" fill="#EAE1C8"/>
<path d="M12.0657 3.65854C10.5592 3.65854 10.5592 5.30135 12.0657 5.30135C13.5721 5.30135 13.5721 3.65854 12.0657 3.65854Z" fill="#EAE1C8"/>
<path d="M26.4268 2.84216C24.9204 2.84216 24.9204 4.48498 26.4268 4.48498C27.9332 4.48498 27.9332 2.84216 26.4268 2.84216Z" fill="#EAE1C8"/>
<path d="M296.046 9.28241C294.54 9.28241 294.54 10.9252 296.046 10.9252C297.552 10.9252 297.552 9.28241 296.046 9.28241Z" fill="#EAE1C8"/>
<path d="M6.06869 33.592C4.56228 33.592 4.56228 35.2348 6.06869 35.2348C7.5751 35.2348 7.5751 33.592 6.06869 33.592Z" fill="#EAE1C8"/>
<path d="M5.02138 24.6321C3.51497 24.6321 3.51497 26.275 5.02138 26.275C6.52779 26.2649 6.52779 24.6321 5.02138 24.6321Z" fill="#EAE1C8"/>
</g>
<defs>
<clipPath id="clip0_19_41">
<rect width="302" height="50" fill="white"/>
</clipPath>
</defs>
</svg>
