<?xml version="1.0" encoding="UTF-8"?>
<svg id="Layer_1" data-name="Layer 1" xmlns="http://www.w3.org/2000/svg" viewBox="0 0 449.46 245.62">
  <defs>
    <style>
      .cls-1 {
        fill: #ea7bb1;
      }
    </style>
  </defs>
  <path class="cls-1" d="M447.82,116.36c-1.18-.55-2.18-1.46-2.84-2.58-2.68-4.57-6.22-8.31-10.26-11.67-1.1-.91-2.61-1.96-2.96-3.11-4.4-3.46-8.59-7.16-12.58-11.09-3.36-2.57-7.04-4.69-10.46-7.16-1.28-.93-2.7-1.32-4.07-1.95-3.96-1.8-8.38-2.4-12.11-4.78-2.08-1.33-4.34-1.9-6.86-1.75-1.73,.1-3.42-.56-5.1-.87-2.78-.51-5.29-1.99-8.2-1.97-6.6,.05-13.19-.06-19.79-.09-1.1,0-2.4-.31-3.26,.16-2.5,1.38-5.16,.77-7.74,1.03-1.08,.11-2.23,0-3.23,.34-3.9,1.35-7.99,1.98-11.97,2.93-3.46,.83-6.64,1.99-9.7,3.66-2.49,1.35-4.87,2.92-7.42,4.13-3.13,1.49-6.5,2.52-9.58,4.1-6.99,3.59-14.27,6.49-21.45,9.63-4.51,1.97-9.07,3.01-13.91,1.08-1.45-.58-2.97-.49-4.48,.06-1.01,.36-2.13,.75-3.16,.66-3.39-.3-6.37,1.36-9.62,1.75-1.86,.23-3.66,1.04-5.49,1.56-.04,.01-.31-.41-.26-.5,.95-1.69,1.65-3.66,2.98-4.98,2.1-2.09,1.92-5.39,4.29-7.22,2.29-4.47,5.18-8.74,6.71-13.46,1.78-5.52,3.6-11.08,4.81-16.8,.58-2.73,1.58-5.28,3.11-7.76,3.43-5.55,6.85-11.13,9.72-17.03,2.39-4.89,4.87-9.71,8.38-14.03,3.15-3.88,5.5-8.34,10.08-10.98,2.07-1.19,2.22-3.54,1.1-5.74-1.05-2.07-3.56-2.58-5.34-1.05-.64,.55-1.2,1.2-1.83,1.77-5.83,5.3-12.6,9.53-17.75,15.6-1.83,2.16-3.42,4.57-5.42,6.55-5.66,5.61-9.64,12.31-13.04,19.4-1.4,2.9-2.59,5.9-3.54,8.98-1.71,5.55-3.81,10.85-7.81,15.21-.42,.46-.85,.92-1.25,1.4-4.08,4.99-7.56,10.59-14.2,12.85-3.67,1.25-7.23,3.15-9.88,6.27-.54,.63-1.54,.84-2.16,1.42-2.51,2.37-5.81,3.88-7.59,7.06-.41,.74-1.13,1.38-1.85,1.86-1.96,1.35-4,2.59-6,3.87-3.81-.46-7.47,1.31-11.48,.11-5.67-1.69-11.48-3.12-15.76-7.31-7.33-7.18-15.08-14.06-20.36-23.07-3.33-3.47-6.36-7.18-10.32-10.08-4.82-3.52-10.33-5.61-15.45-8.49-1.45-.81-2.97-.64-4.47-.77-3.02-.26-6.02-.05-9.03-1.18-1.94-.73-4.58-.85-6.47-.11-2.82,1.1-5.56,.98-8.38,1.02-1.75,.02-3.41,.42-5.12,.77-3.18,.65-6.27,1.82-9.63,1.7-5.71-.2-11.43-.19-17.15-.28-1.1-.02-2.36,.24-3.26-.2-2.71-1.32-5.57-.95-8.38-1.15-3.46-.24-7,.31-10.32-1.28-.74-.35-1.75-.31-2.61-.21-3.82,.47-7.33-1.01-10.89-1.84-3.75-.88-7.67-1.68-10.59-4.66-.58-.59-1.51-.98-2.34-1.13-3.04-.54-5.81-1.69-8.48-3.21-1.02-.58-2.69,.14-3.45,1.24-1.21,1.75-1.26,4.07,.02,5.46,1.19,1.29,2.33,2.84,3.84,3.56,1.79,.86,1.93,2.97,3.53,3.75,1.83,.89,3.25,2.24,4.49,3.77,2.33,2.88,4.57,5.83,6.83,8.77,1.33,1.72,2.79,3.38,3.88,5.24,2.1,3.56,3.96,7.26,5.96,10.87,1.58,2.86,3.14,5.73,4.86,8.51,.68,1.1,1.7,2.02,2.7,2.86,.75,.63,1.51,1.14,2.14,1.97,2.29,3,4.99,5.68,8.19,7.69,7.91,4.96,16.28,8.44,25.8,8.35,5.28-.05,10.55,.07,15.83,.05,1.29,0,2.66-.04,3.86-.45,1.55-.53,2.9-.62,4.43,.05,.97,.43,2.11,.43,3.16,.69,3.78,.9,7.66,1.28,11.37,2.62,3.11,1.13,5.57,3.34,8.56,4.64,2.02,.87,3.68,2.25,5.23,3.86,7.49,7.74,15.19,15.28,22.56,23.13,2.62,2.79,5.82,4.44,9,6.25,1.68,.96,3.53,1.64,5.3,2.43,.4,.18,.81,.31,1.21,.49,.79,.36,1.13,1.44,.65,2.06-1.47,1.9-2.92,3.81-4.42,5.69-5.18,6.49-9.77,13.35-13.65,20.71-2.54,4.81-5.53,9.38-8.3,14.08-2.32,3.94-5.12,7.69-6.82,11.89-2.96,7.32-3.51,6.99,.82,13.16,.62,.89,1.05,1.92,1.7,2.78,.38,.5,.98,1.1,1.54,1.16,3.04,.33,6.12,.81,9.12-.21,1.23-.42,2.38-1.11,3.56-1.68,.54,1.34,1.04,2.69,1.63,4.01,.71,1.59,1.71,3.08,2.22,4.73,1.16,3.79,4.17,5.97,6.93,8.36,1.86,1.61,4.25,1.53,6.22,.79,1.97-.74,4.17-2.04,5.27-3.74,2.51-3.89,5.79-7.12,8.43-10.82,4.65-6.55,8.88-13.42,13.03-20.31,1.81-3,3.66-5.91,5.78-8.71,1.48-1.95,3.16-2.99,5.43-2.99,2.45,0,4.69-.9,7.01-1.23,8.4-1.2,15.1-5.33,21.02-11.09,2.2-2.15,4.38-4.33,6.58-6.48,2.29-2.24,4.96-3.6,8.24-3.35,2.45,.18,4.74-.45,7.03-1.17,2.28-.72,4.52-1.57,7.02-1.34,1.01,.09,2.07-.6,3.13-.7,4.93-.48,9.02-3.03,13.28-5.18,3.92-1.98,7.61-4.29,10.57-7.61,3.78-4.24,7.59-8.47,11.35-12.73,.42-.48,.57-1.18,.93-1.72,1.28-1.86,3.69-2.57,5.75-1.59,1.17,.56,2.37,1.2,3.32,2.07,1.41,1.3,2.97,1.67,4.81,1.65,5.44-.07,10.94,.82,16.27-.98,3.39,.27,6.61-.7,9.8-1.6,2.68-.75,5.31-1.67,7.89-2.71,5.19-2.09,10.79-3.22,15.45-6.61,.66-.48,1.66-.46,2.45-.8,1.39-.6,2.98-1.04,4.06-2.02,2.46-2.23,5.45-2.87,8.45-3.51,.41-.34,.94-.55,1.62-.55h.8c.2-.05,.39-.1,.59-.16,.21-.06,.47,.04,.74,.16h13.66c1.09-.23,2.24-.32,3.49-.26,2.51,.12,5.03,.2,7.54,.26h1.07c.15,0,.29,.01,.43,.03,4.68,.09,9.36,.12,14.04,.2,4.43,.07,8.6-1.14,12.65-2.75,1.22-.49,2.4-.89,3.69-1.16,3.17-.67,6.28-1.59,9.39-2.51,1.66-.49,2.43-1.8,2.5-3.49,.05-1.34-.06-2.51-1.64-3.25Zm-315.36-6.31c.35,.19,.7,.38,1.05,.58,.58,.33,1.14,.45,1.67,.41,.89,.97,1.78,1.93,2.67,2.88-1.8-1.28-3.6-2.57-5.39-3.87Zm-7.18-10.94c-.19-.11-.39-.21-.58-.32,.17-.07,.34-.14,.52-.22,0,.18,.03,.36,.07,.53Zm-15.14-9.96c-.41,.49-.84,.98-1.25,1.47-.15-.08-.3-.15-.46-.23,.57-.42,1.14-.84,1.71-1.25Zm5.5,4.87c1.34-.97,2.68-1.93,4.04-2.87-.8,1.24-1.57,2.49-2.33,3.76-.57-.3-1.14-.6-1.71-.89Zm3.65-18.09c.25-.27,.5-.55,.75-.82,.03,.08,.06,.16,.09,.24,0,.02,.02,.04,.03,.06-.29,.17-.58,.34-.87,.52Zm-12.94,25.97c-.51,.02-1.02,.04-1.53,.06-.02-.15-.06-.29-.1-.43,.54,.13,1.09,.25,1.63,.38Zm-19.15-5.81c-1.28-.26-2.56-.51-3.85-.75,.39-.33,.79-.66,1.18-.99,.77,.45,1.56,.86,2.35,1.26,.09,.17,.19,.33,.31,.47Zm-2.15-35.22c-.5,.19-.9,.5-1.23,.87-1.3-.15-2.6-.29-3.9-.41,1.72-.22,3.45-.37,5.18-.48-.02,0-.04,.01-.05,.02Zm-5.79,8.62c-.33,.25-.67,.5-1,.74-.03-.26-.1-.5-.19-.73,.4,0,.8,0,1.19,0Zm-3.1,23.9c-.21,.23-.42,.47-.62,.7-.09-.01-.17-.02-.26-.03,.29-.22,.59-.45,.88-.67Zm-24.28-22.28c.57-.08,1.15-.15,1.72-.22-.04,.31-.04,.63,.02,.95-.58-.24-1.16-.49-1.74-.73Zm13.79-1.26l-1.33,.33c-.07-.08-.14-.16-.22-.23,.52-.03,1.04-.07,1.55-.1Zm.34,6.12c-.49,.39-.97,.77-1.46,1.16-.14-.23-.28-.47-.43-.69,.63-.16,1.26-.31,1.88-.47Zm145.27,75.2c-1.32,1.26-2.64,2.51-3.95,3.77,0,0-.01,0-.02,0,.38-.57,.77-1.14,1.15-1.7,.89-.74,1.78-1.48,2.67-2.22,.05,.06,.1,.11,.15,.16Zm-19.71-20.51c.04-.28,.09-.55,.14-.83l.42,.25c-.18,.19-.37,.38-.55,.57Zm-29.6,57.45c-.23,.37-.46,.75-.69,1.13-.37-.44-.88-.77-1.45-.98,.26-.36,.52-.73,.78-1.09,.37,.41,.84,.74,1.36,.94Zm31.95,6.54s.03,0,.05,0c-.03,.03-.05,.06-.08,.09,.01-.03,.02-.06,.03-.09Zm19.31-15.19c.97-.83,1.93-1.66,2.9-2.48-.67,.77-1.34,1.55-2,2.33-.3,.05-.6,.1-.9,.16Zm209.9-64.44c-.26-.22-.57-.41-.92-.54-.23-.08-.46-.16-.69-.23,.17-.09,.33-.18,.5-.27,.06-.03,.11-.07,.16-.1,1.29,.16,2.58,.31,3.87,.47,.68,.08,1.24-.03,1.67-.28,.19,.13,.38,.26,.57,.39-1.33-.09-2.65,.05-3.91,.4-.42,.05-.83,.1-1.25,.16Zm-21.99-1.94c-.32,.03-.63,.07-.95,.1,0-.13-.02-.27-.05-.4,.33,.1,.66,.2,1,.29Zm-6.69-16.55c-.6-.36-1.31-.56-2.02-.5,.26-.14,.53-.29,.79-.43,.49,.18,.98,.37,1.46,.56-.09,.12-.16,.25-.23,.38Zm-33.63,8.23c-.37,.39-.74,.78-1.14,1.14-.53,.48-1.18,1.24-1.83,1.05,.98-.74,1.96-1.48,2.94-2.23,.01,.01,.02,.03,.04,.04Zm-7.88,5.94c-.32,.13-.64,.27-.96,.4,.28-.18,.55-.37,.82-.55,.04,.05,.09,.1,.13,.15Zm-71.64,31.48l1-.5s.02,.08,.03,.12c-.23,.31-.38,.64-.48,.97-.15-.21-.34-.41-.55-.59Zm-2.17-38.35c.03-.52-.06-1.05-.27-1.54,.94-.31,1.86-.64,2.78-1-.85,.83-1.69,1.67-2.51,2.54Zm-12.41,8.83l-1.16,.71c-.12-.08-.26-.14-.4-.19,0-.13,0-.25,0-.37,.52-.05,1.04-.1,1.56-.15Zm-34.29-27.86c-.23,0-.47,.04-.71,.1,.48-.41,.95-.84,1.41-1.28-.23,.39-.47,.78-.7,1.18Zm-4.6,2.93c.19-.11,.37-.23,.55-.35-.16,.14-.32,.28-.48,.43-.02-.03-.05-.05-.07-.08Zm24.29,33.79c.07,0,.15,.02,.22,.03-.36,.23-.73,.45-1.09,.68,.29-.24,.58-.47,.87-.71Zm-6.84-40.62c.21-.43,.41-.87,.62-1.3,.1-.05,.2-.12,.29-.18-.26,.44-.52,.87-.8,1.3-.04,.06-.08,.13-.12,.19Zm-89.45,12.63c-.22-.05-.45-.07-.67-.06-.77-1.02-1.55-2.03-2.34-3.04,.35,.37,.7,.75,1.07,1.12,.65,.66,1.3,1.31,1.94,1.99Zm-13.94-16.64c1.03,1.3,2.03,2.62,3.04,3.94-.59-.68-1.17-1.36-1.77-2.03-1.93-2.54-3.94-5.01-6.07-7.37,1.7,1.71,3.29,3.54,4.8,5.46Zm73.67,112.86c.66-.39,1.33-.79,1.98-1.2-.07,.05-.14,.1-.21,.15-.54,.38-1.14,.76-1.77,1.05Zm25.47-20.03c.24-.02,.47-.03,.71-.05,2.33-.12,4.66-.25,6.99-.37-2.56,.26-5.12,.39-7.7,.42Z"/>
</svg>