<?xml version="1.0" encoding="UTF-8"?>
<svg id="Layer_1" data-name="Layer 1" xmlns="http://www.w3.org/2000/svg" viewBox="0 0 92.53 164.46">
  <defs>
    <style>
      .cls-1 {
        fill: #eae1c8;
      }
    </style>
  </defs>
  <path class="cls-1" d="M91.32,96.97c-.74-1.35-.6-2.76-.62-4.17-.02-1.19,.21-2.43-.05-3.57-.75-3.19-1.11-6.48-2.34-9.56-.44-1.08-.77-2.24-.94-3.39-.22-1.49-.93-2.64-1.87-3.75-1.9-2.24-4.64-3.23-6.99-4.79-.18-.12-.45-.16-.68-.16-2.71,.08-5.45-.48-8.11,.46-.17,.06-.49-.06-.61-.2-.12-.15-.2-.48-.11-.64,2.54-4.66,4.62-9.56,7.19-14.21,1.96-3.57,4.36-6.73,7.32-9.54,1.84-1.74,3.79-3.21,6.09-4.25,.32-.14,.67-.24,.97-.41,.61-.36,.96-1.22,.76-1.86-.22-.73-.71-1.42-1.44-1.39-2.63,.09-5.17-.4-7.74-.83-1.16-.2-2.3-.18-3.47-.59-1.16-.4-2.51-.2-3.83,.11-3.09,.74-6.06,1.83-9.1,2.71-1.23,.36-2.39,.84-3.44,1.73-2.97,2.53-6.28,4.66-9.01,7.48-.27,.27-.95,0-1.08-.41-.36-1.05-.43-2.17,0-3.14,.45-1.04,.44-2.08,.48-3.14,.07-1.91,.09-3.81,.13-5.72,.02-.71-.19-1.52,.08-2.13,.97-2.21,.24-4.74,1.35-6.9-.12-1.95,.58-3.71,1.24-5.48,.12-.33,.24-.67,.26-1.02,.21-3.32,1.39-6.42,2.24-9.59,.61-2.26,1.47-4.45,1.76-6.8,.13-1.01-.15-1.57-1.01-1.75-1-.21-1.86,.1-2.69,.63-2.7,1.75-5.26,3.67-7.33,6.15-1.51,1.81-2.86,3.76-4.4,5.54-2.04,2.36-3.48,5.06-4.89,7.8-1.47,2.84-1.71,6.11-3.01,9.01-.14,.31-.12,.71-.1,1.06,.09,1.57-.37,3.03-.73,4.52-.35,1.48-.99,2.92-.85,4.51,.03,.34-.04,.74-.2,1.03-.76,1.32-.14,2.89-.72,4.16-.63,1.39-.5,2.79-.57,4.19-.1,2.02-.02,4.05-.04,6.08,0,.83-.04,1.66-.1,2.49-.03,.34-.25,.4-.49,.2-1.95-1.52-3.89-3.07-5.87-4.56-1.52-1.14-3.2-1.92-5.02-2.53-2.24-.75-4.57-1.06-6.82-1.69-3.49-.97-6.47-.12-9.4,1.7-1.56,.97-2.34,2.64-3.74,3.73-.98,.76-1.5,1.77-1.73,3.01-.19,1.01,.23,2.05,1.07,2.57,1.2,.74,2.5,.69,3.8,.68,1.21-.01,2.24,.17,3.29,.98,1.08,.84,2.49,1.34,3.83,1.75,4.54,1.38,8.18,4.19,11.67,7.2,1.98,1.7,3.7,3.71,5.52,5.6,1.17,1.22,1.07,1.64-.5,2.16-.44,.15-.93,.35-1.36,.3-1.26-.14-2.33,.41-3.39,.9-1.83,.86-3.48,1.99-4.96,3.38-1.38,1.3-2.68,2.7-4.35,3.67-.4,.23-.77,.61-1,1-2.58,4.57-5.15,9.76-3.32,16.5,.12,.43,.09,1.01-.12,1.38-.41,.7-.06,1.1,.35,1.52,.25,.25,.53,.49,.82,.68,.7,.47,1.72,.26,2.21-.45,.19-.28,.39-.6,.46-.93,.54-2.42,1.99-4.25,3.71-5.92,1.77-1.73,3.4-3.61,5.94-4.32,1.13-.32,2.17-1.1,3.38-.87,1.16,.22,2.26-.89,3.39-.04,2.01,.12,4.02,.15,5.94,.88,2.05-.31,3.64,.84,5.3,1.72,.64,.34,.96,.9,1.12,1.69,.21,1.04,.51,2.03,.5,3.12-.08,6.32-.11,12.63-.17,18.95,0,.6,.15,1.28-.09,1.77-.88,1.81-.56,3.73-.71,5.6-.05,.59,.11,1.29-.15,1.76-.69,1.24-.46,2.55-.55,3.84-.09,1.31,.17,2.73-.26,3.9-.6,1.64-.51,3.26-.63,4.91-.04,.59,.08,1.27-.18,1.75-.66,1.24-.5,2.55-.56,3.84-.09,2.02-.06,4.05-.08,6.08h0c-.02,2.03-.05,4.05-.06,6.08,0,.83-.07,1.68,.08,2.49,.07,.4,.51,.79,.87,1.07,.43,.32,.94,.17,1.25-.24,.99-1.29,2.31-2.3,3.86-2.28,2.17,.02,4.17-.95,6.32-.77,.47,.04,.96,0,1.42-.09,4.24-.78,6.26-.69,9.71,.48,1.73,.59,2.29,.42,3.3-.94,.39-.52,.59-1.19,.29-1.67-.97-1.55-1.26-3.3-1.67-5-.66-2.73-1.35-5.49-1.56-8.29-.17-2.36-.79-4.64-.82-7.03-.02-1.24-.66-2.49-.53-3.81,.14-1.44-.49-2.78-.61-4.18-.16-1.88-.3-3.74-.6-5.61-.23-1.51-.72-3.01-.72-4.52s-.63-3-.77-4.52c-.07-.81-.53-1.58-.59-2.39-.31-4.12-1.68-8.05-2.25-12.12-.77-.99-.34-1.68,.49-2.42,1.24-1.11,2.33-2.4,3.58-3.5,2.24-1.96,4.71-3.49,7.59-4.43,2.04-.67,3.86-.74,5.83,.07,1.63,.66,3.38,1.01,5,1.7,1.4,.59,2.67,1.49,4.03,2.2,1.61,.85,2.8,2.18,4.06,3.43,.88,.87,1.85,1.07,2.87,.6,.77-.31,1.37-1.28,.98-1.99Zm-30.12,52.92c-.02-.08-.04-.16-.08-.23h.02c.02,.08,.04,.16,.06,.23Zm-20.43-71.96c-.07,.07-.14,.14-.2,.21-.06-.1-.12-.2-.19-.3,.13,.05,.26,.07,.39,.09ZM12.56,56.82c.4,.02,.8,.04,1.2,.06,.14,.14,.27,.28,.41,.42-.53-.18-1.07-.34-1.61-.48Zm18.5,23.89c-.05,.06-.1,.12-.15,.18,0-.06-.02-.12-.04-.18h.19Zm16.6-16.04c.08-.17,.16-.33,.24-.5,.02,.09,.03,.18,.05,.27-.11,.07-.21,.14-.29,.23Zm.19,79.07c-.19,.17-.33,.41-.39,.77-.06,.38-.11,.76-.15,1.13,0-.02-.03-.04-.05-.06,.11-.81,.22-1.61,.34-2.42,.07,.2,.16,.38,.25,.56v.02h0Zm-.65-84.68c-.06,.12-.11,.24-.17,.35,.05-.23,.09-.46,.14-.68,0,.11,.02,.22,.03,.33Zm-1.09,62.64c0-.32,0-.64,.02-.96v-.07c.02,.23,.04,.45,.06,.68-.03,.12-.05,.24-.08,.35Zm5.24-23.63h-.08c0-.2-.03-.4-.04-.59,.09,.05,.18,.09,.28,.13-.09,.16-.14,.31-.16,.46Zm35.58-9.56c.05-.16,.09-.33,.13-.5,.1,.52,.14,1.04,.15,1.56-.09-.35-.2-.7-.28-1.06Zm-56.84,3.31s.02-.01,.04-.01c.04,0,.08,.01,.12,.01-.04,.01-.08,.01-.12,.01-.02-.01-.03-.01-.04-.01Zm13.08,3.13s-.04-.03-.07-.04c.19,.07,.38,.13,.57,.19-.17-.02-.35-.06-.5-.15Zm13.71,23.07c0,1.03,.38,2.06,.57,3.1,.15,.8,.32,1.6,.46,2.4-.35-1.63-.73-3.27-1.13-4.9,0-.06,0-.11,0-.18-.11-1.94-.42-3.85-.74-5.77,.04,.16,.07,.31,.1,.47,.32,1.62,.73,3.2,.73,4.88h0Z"/>
</svg>