<?xml version="1.0" encoding="UTF-8"?>
<svg id="Layer_1" data-name="Layer 1" xmlns="http://www.w3.org/2000/svg" viewBox="0 0 24 24">
  <defs>
    <style>
      .cls-1 {
        fill-rule: evenodd;
      }
    </style>
  </defs>
  <path class="cls-1" d="M19.1,10.64c-3.87-2.3-10.25-2.51-13.94-1.39-.59,.18-1.22-.15-1.4-.75-.18-.59,.15-1.22,.75-1.4,4.24-1.29,11.28-1.04,15.74,1.61,.53,.32,.71,1.01,.39,1.54s-1,.71-1.54,.39Zm-.13,3.4c-.27,.44-.85,.58-1.29,.31-3.23-1.98-8.14-2.56-11.96-1.4-.49,.15-1.02-.13-1.17-.62-.15-.49,.13-1.02,.62-1.17,4.36-1.32,9.78-.68,13.48,1.6,.44,.27,.58,.85,.31,1.29Zm-1.47,3.27c-.22,.35-.68,.47-1.03,.25-2.82-1.72-6.36-2.11-10.54-1.16-.4,.09-.8-.16-.89-.56-.09-.4,.16-.8,.56-.9,4.57-1.05,8.49-.6,11.66,1.34,.35,.22,.46,.68,.25,1.03ZM12,0C5.37,0,0,5.37,0,12s5.37,12,12,12,12-5.37,12-12S18.63,0,12,0Z"/>
</svg>