<?xml version="1.0" encoding="UTF-8"?>
<svg id="layer" xmlns="http://www.w3.org/2000/svg" viewBox="0 0 652 97">
  <rect x="26.77" y="16.56" width="27.6" height="27.6" transform="translate(-9.59 37.58) rotate(-45)"/>
  <polygon points="60 30.4 79.5 49.9 99 30.4 79.5 10.9 60 30.4"/>
  <polygon points="60 69.4 79.5 88.9 99 69.4 79.5 49.9 60 69.4"/>
  <polygon points="99 30.4 118.5 49.9 138 30.4 118.5 10.9 99 30.4"/>
  <polygon points="191.5 10.7 191.5 26.5 215.3 26.5 215.3 88.6 232.4 88.6 232.4 26.5 256.1 26.5 256.1 10.7 191.5 10.7"/>
  <rect x="292.3" y="10.7" width="17.1" height="77.9"/>
  <g>
    <path d="M381.5,88.6h-30.4V10.7h30.4c24.5,0,41.4,16.8,41.4,38.7v.2c0,22-16.9,39-41.4,39m23.5-39c0-13.8-9.5-23.5-23.5-23.5h-13.2v47h13.2c14,0,23.5-9.5,23.5-23.3v-.2Z"/>
    <path d="M512.9,88.6l-7.1-17.5h-32.9l-7.1,17.5h-17.5L481.7,10.1h15.8l33.4,78.5h-18Zm-23.6-57.9l-10.4,25.3h20.7l-10.3-25.3Z"/>
    <polygon points="565.1 88.6 565.1 10.7 582.2 10.7 582.2 73 621.1 73 621.1 88.6 565.1 88.6"/>
  </g>
</svg>